<svg width="1254" height="1254" viewBox="0 0 1254 1254" fill="none" xmlns="http://www.w3.org/2000/svg">
<rect width="1254" height="1254" fill="white"/>
<path fill-rule="evenodd" clip-rule="evenodd" d="M219.034 842.819C225.026 842.819 231.018 842.819 237.01 842.819C237.01 874.987 237.01 907.149 237.01 939.317C237.01 971.485 237.01 1003.65 237.01 1035.82C230.972 1035.8 224.934 1035.8 218.896 1035.78C212.858 1035.78 206.82 1035.77 200.782 1035.76C199.794 1034.43 198.804 1033.1 197.816 1031.78C163.808 986.182 148.24 965.305 142.97 958.233C135.318 947.961 115.144 921.262 105.238 908.297C102.89 905.226 100.541 902.148 98.1934 899.077C98.1383 921.865 98.0833 944.659 98.0295 967.446C97.9757 990.234 97.9207 1013.03 97.8669 1035.82C91.9902 1035.82 86.1135 1035.82 80.2368 1035.82C74.3601 1035.82 68.4834 1035.82 62.6067 1035.82C62.6067 1003.65 62.6067 971.485 62.6067 939.317C62.6067 907.149 62.6067 874.987 62.6067 842.819C68.6614 842.819 74.716 842.819 80.7707 842.819C86.8253 842.819 92.8813 842.819 98.936 842.819C103.927 849.391 108.916 855.964 113.907 862.536C142.329 899.961 193.226 967.934 198.885 976.013C199.928 977.5 200.927 978.731 201.103 978.737C201.28 978.744 201.342 948.165 201.24 910.785C201.18 888.132 201.12 865.472 201.059 842.819C207.051 842.819 213.043 842.819 219.034 842.819Z" fill="#030F35"/>
<path fill-rule="evenodd" clip-rule="evenodd" d="M422.268 958.412C423.012 966.094 423.015 968.177 422.29 974.583C419.872 995.941 408.839 1014.37 391.616 1025.81C377.325 1035.31 364.049 1038.89 345.746 1038.19C335.338 1037.79 329.737 1036.71 320.418 1033.31C296.7 1024.65 279.53 1003.73 275.79 978.911C269.715 938.605 294.904 903.335 334.717 896.39C342.106 895.101 356.329 895.101 363.718 896.39C383.628 899.859 402.003 911.951 411.962 928.135C417.352 936.894 421.313 948.525 422.268 958.412ZM309.492 954.462C307.922 960.452 307.769 972.108 309.18 978.11C312.268 991.254 322.703 1002.65 335.383 1006.72C342.299 1008.94 352.817 1009.51 358.835 1008C366.198 1006.15 372.096 1002.79 377.484 997.403C383.311 991.574 386.577 985.984 388.42 978.692C390.208 971.627 389.866 959.528 387.696 953.104C382.926 938.978 372.3 929.046 358.515 925.815C351.902 924.269 341.436 924.788 335.234 926.981C322.717 931.4 312.743 942.049 309.492 954.462Z" fill="#031036"/>
<path fill-rule="evenodd" clip-rule="evenodd" d="M568.457 897.961C574.44 897.961 580.422 897.961 586.405 897.961C585.751 899.404 585.097 900.846 584.442 902.289C581.743 908.259 571.863 931.014 557.929 963.362C551.473 978.353 542.138 1000.02 537.187 1011.52C532.231 1023.02 527.986 1033.2 527.749 1034.14C527.609 1034.7 527.467 1035.27 527.326 1035.84C521.67 1035.78 516.015 1035.72 510.36 1035.67C504.711 1035.61 499.056 1035.55 493.401 1035.5C491.201 1030.37 489.002 1025.24 486.81 1020.11C483.18 1011.64 477.397 998.23 473.954 990.292C470.51 982.354 462.861 964.613 456.956 950.859C438.549 908.015 436.303 902.841 435.049 900.366C434.642 899.564 434.234 898.763 433.827 897.961C439.87 897.968 445.912 897.981 451.954 897.987C457.995 897.993 464.04 898 470.081 898.013C471.831 902.436 473.581 906.861 475.325 911.291C478.211 918.595 486.239 938.42 493.158 955.347C500.075 972.274 506.796 988.792 508.084 992.055C510.277 997.601 511.437 999.313 511.437 996.998C511.437 996.461 520.061 974.461 530.602 948.108C541.137 921.763 549.927 899.699 550.133 899.083C550.479 898.051 551.935 897.961 568.457 897.961Z" fill="#031036"/>
<path fill-rule="evenodd" clip-rule="evenodd" d="M744.989 897.801C745.253 897.929 745.47 929.04 745.47 966.927C745.47 989.888 745.47 1012.86 745.47 1035.82C740.02 1035.82 734.57 1035.82 729.121 1035.82C723.67 1035.82 718.22 1035.82 712.77 1035.82C712.77 1032.81 712.77 1029.8 712.77 1026.79C712.77 1023.79 712.77 1020.78 712.77 1017.78C711.384 1019.18 710 1020.59 708.621 1021.99C701.536 1029.18 692.758 1034.16 683.083 1036.46C665.187 1040.74 644.939 1037.21 629.236 1027.1C623.766 1023.58 615.399 1015.32 611.558 1009.67C596.279 987.163 594.554 954.848 607.384 931.302C614.521 918.197 627.806 905.912 640.572 900.59C649.876 896.723 655.397 895.749 667.886 895.775C680.582 895.8 685.327 896.723 693.906 900.852C699.709 903.642 707.404 909.675 710.288 913.689C711.007 914.696 711.731 915.696 712.449 916.703C712.507 913.606 712.565 910.502 712.629 907.406C712.686 904.303 712.744 901.199 712.801 898.102C717.342 897.949 721.875 897.795 726.414 897.64C739.199 897.211 743.855 897.249 744.989 897.801ZM633.186 955.988C631.8 961.586 631.692 971.172 632.942 977.148C635 986.977 641.964 997.197 650.1 1002.32C655.275 1005.58 659.923 1007.28 666.29 1008.24C679.03 1010.18 692.001 1005.99 700.914 997.043C708.244 989.689 711.904 981.014 712.577 969.441C713.725 949.532 702.947 932.649 685.519 927.064C678.742 924.89 669.996 924.385 663.399 925.783C648.555 928.917 637.02 940.446 633.186 955.988Z" fill="#041136"/>
<path fill-rule="evenodd" clip-rule="evenodd" d="M956.516 868.993C960.345 872.66 963.474 875.865 963.474 876.123C963.474 876.725 940.5 897.333 939.89 897.275C939.641 897.256 937.742 895.229 935.684 892.786C922.162 876.718 897.002 868.114 874.836 871.981C864.551 873.776 853.863 878.328 846.136 884.215C841.45 887.779 833.589 896.096 830.53 900.724C826.817 906.335 823.163 914.601 821.309 921.55C819.854 927.02 819.642 929.104 819.591 938.677C819.501 955.187 822.323 965.35 830.459 977.897C837.396 988.593 845.732 995.787 857.831 1001.51C867.558 1006.12 873.245 1007.26 886.531 1007.25C896.207 1007.24 898.541 1007.04 903.484 1005.75C915.051 1002.73 925.604 996.57 935.017 987.349C936.87 985.534 938.724 983.72 940.577 981.905C941.5 982.713 942.416 983.521 943.339 984.335C944.859 985.669 950.015 990.171 954.792 994.338C959.569 998.499 963.474 1002.22 963.474 1002.6C963.474 1003.82 951.823 1014.95 946.283 1019.04C932.389 1029.29 917.719 1034.9 898.072 1037.48C873.919 1040.64 846.688 1034.03 827.106 1020.24C819.469 1014.86 808.229 1003.54 803.299 996.255C795.629 984.938 790.872 973.723 787.68 959.45C786.378 953.648 786.192 951.122 786.218 939.959C786.243 929.13 786.474 926.09 787.699 920.403C792.161 899.699 800.824 883.387 814.622 869.73C826.324 858.143 839.09 850.482 855.536 845.159C866.731 841.544 872.97 840.632 886.851 840.607C897.239 840.587 900.067 840.806 906.029 842.075C925.047 846.134 942.211 855.291 956.516 868.993Z" fill="url(#paint0_linear_3_325)"/>
<path fill-rule="evenodd" clip-rule="evenodd" d="M1153.01 842.819C1169.61 842.819 1170.69 842.889 1170.27 843.942C1170.04 844.556 1167 852.565 1163.52 861.734C1160.05 870.903 1153.13 888.94 1148.14 901.809C1143.14 914.677 1138.09 927.808 1136.92 930.982C1134.63 937.157 1132.11 943.748 1112.68 994.139C1105.81 1011.95 1099.51 1028.6 1098.68 1031.15C1097.31 1035.34 1096.97 1035.82 1095.24 1036.15C1094.18 1036.35 1085.85 1036.42 1076.73 1036.32C1071.21 1036.26 1065.68 1036.2 1060.15 1036.14C1059.86 1035.39 1059.58 1034.64 1059.29 1033.89C1058.82 1032.66 1055.56 1024 1052.03 1014.66C1029.98 956.142 990.755 853.989 986.172 843.14C985.999 842.723 992.083 842.448 1003.53 842.352C1009.41 842.307 1015.29 842.254 1021.17 842.203C1021.49 842.704 1021.81 843.198 1022.14 843.691C1022.67 844.505 1023.95 847.602 1024.97 850.571C1025.98 853.534 1029.7 863.754 1033.23 873.275C1063.65 955.379 1074.39 984.483 1076.46 990.292C1077.52 993.293 1078.46 995.826 1078.55 995.922C1078.64 996.024 1079.37 994.293 1080.18 992.074C1080.99 989.862 1088.65 969.293 1097.21 946.37C1105.76 923.449 1114.25 900.654 1116.08 895.717C1117.9 890.78 1122.97 877.136 1127.35 865.389C1131.73 853.649 1135.31 843.768 1135.31 843.428C1135.31 843.056 1142.2 842.819 1153.01 842.819Z" fill="url(#paint1_linear_3_325)"/>
<path fill-rule="evenodd" clip-rule="evenodd" d="M219.034 842.819C225.026 842.819 231.018 842.819 237.01 842.819C237.01 874.987 237.01 907.149 237.01 939.317C237.01 971.485 237.01 1003.65 237.01 1035.82C230.972 1035.8 224.934 1035.8 218.896 1035.78C212.858 1035.78 206.82 1035.77 200.782 1035.76C199.794 1034.43 198.804 1033.1 197.816 1031.78C163.808 986.182 148.24 965.305 142.97 958.233C135.318 947.961 115.144 921.262 105.238 908.297C102.89 905.226 100.541 902.148 98.1934 899.077C98.1383 921.865 98.0833 944.659 98.0295 967.446C97.9757 990.234 97.9207 1013.03 97.8669 1035.82C91.9902 1035.82 86.1135 1035.82 80.2368 1035.82C74.3601 1035.82 68.4834 1035.82 62.6067 1035.82C62.6067 1003.65 62.6067 971.485 62.6067 939.317C62.6067 907.149 62.6067 874.987 62.6067 842.819C68.6614 842.819 74.716 842.819 80.7707 842.819C86.8253 842.819 92.8813 842.819 98.936 842.819C103.927 849.391 108.916 855.964 113.907 862.536C142.329 899.961 193.226 967.934 198.885 976.013C199.928 977.5 200.927 978.731 201.103 978.737C201.28 978.744 201.342 948.165 201.24 910.785C201.18 888.132 201.12 865.472 201.059 842.819C207.051 842.819 213.043 842.819 219.034 842.819Z" fill="#030F35"/>
<path fill-rule="evenodd" clip-rule="evenodd" d="M422.268 958.412C423.012 966.094 423.015 968.177 422.29 974.583C419.872 995.941 408.839 1014.37 391.616 1025.81C377.325 1035.31 364.049 1038.89 345.746 1038.19C335.338 1037.79 329.737 1036.71 320.418 1033.31C296.7 1024.65 279.53 1003.73 275.79 978.911C269.715 938.605 294.904 903.335 334.717 896.39C342.106 895.101 356.329 895.101 363.718 896.39C383.628 899.859 402.003 911.951 411.962 928.135C417.352 936.894 421.313 948.525 422.268 958.412ZM309.492 954.462C307.922 960.452 307.769 972.108 309.18 978.11C312.268 991.254 322.703 1002.65 335.383 1006.72C342.299 1008.94 352.817 1009.51 358.835 1008C366.198 1006.15 372.096 1002.79 377.484 997.403C383.311 991.574 386.577 985.984 388.42 978.692C390.208 971.627 389.866 959.528 387.696 953.104C382.926 938.978 372.3 929.046 358.515 925.815C351.902 924.269 341.436 924.788 335.234 926.981C322.717 931.4 312.743 942.049 309.492 954.462Z" fill="#031036"/>
<path fill-rule="evenodd" clip-rule="evenodd" d="M568.457 897.961C574.44 897.961 580.422 897.961 586.405 897.961C585.751 899.404 585.097 900.846 584.442 902.289C581.743 908.259 571.863 931.014 557.929 963.362C551.473 978.353 542.138 1000.02 537.187 1011.52C532.231 1023.02 527.986 1033.2 527.749 1034.14C527.609 1034.7 527.467 1035.27 527.326 1035.84C521.67 1035.78 516.015 1035.72 510.36 1035.67C504.711 1035.61 499.056 1035.55 493.401 1035.5C491.201 1030.37 489.002 1025.24 486.81 1020.11C483.18 1011.64 477.397 998.23 473.954 990.292C470.51 982.354 462.861 964.613 456.956 950.859C438.549 908.015 436.303 902.841 435.049 900.366C434.642 899.564 434.234 898.763 433.827 897.961C439.87 897.968 445.912 897.981 451.954 897.987C457.995 897.993 464.04 898 470.081 898.013C471.831 902.436 473.581 906.861 475.325 911.291C478.211 918.595 486.239 938.42 493.158 955.347C500.075 972.274 506.796 988.792 508.084 992.055C510.277 997.601 511.437 999.313 511.437 996.998C511.437 996.461 520.061 974.461 530.602 948.108C541.137 921.763 549.927 899.699 550.133 899.083C550.479 898.051 551.935 897.961 568.457 897.961Z" fill="#031036"/>
<path fill-rule="evenodd" clip-rule="evenodd" d="M744.989 897.801C745.253 897.929 745.47 929.04 745.47 966.927C745.47 989.888 745.47 1012.86 745.47 1035.82C740.02 1035.82 734.57 1035.82 729.121 1035.82C723.67 1035.82 718.22 1035.82 712.77 1035.82C712.77 1032.81 712.77 1029.8 712.77 1026.79C712.77 1023.79 712.77 1020.78 712.77 1017.78C711.384 1019.18 710 1020.59 708.621 1021.99C701.536 1029.18 692.758 1034.16 683.083 1036.46C665.187 1040.74 644.939 1037.21 629.236 1027.1C623.766 1023.58 615.399 1015.32 611.558 1009.67C596.279 987.163 594.554 954.848 607.384 931.302C614.521 918.197 627.806 905.912 640.572 900.59C649.876 896.723 655.397 895.749 667.886 895.775C680.582 895.8 685.327 896.723 693.906 900.852C699.709 903.642 707.404 909.675 710.288 913.689C711.007 914.696 711.731 915.696 712.449 916.703C712.507 913.606 712.565 910.502 712.629 907.406C712.686 904.303 712.744 901.199 712.801 898.102C717.342 897.949 721.875 897.795 726.414 897.64C739.199 897.211 743.855 897.249 744.989 897.801ZM633.186 955.988C631.8 961.586 631.692 971.172 632.942 977.148C635 986.977 641.964 997.197 650.1 1002.32C655.275 1005.58 659.923 1007.28 666.29 1008.24C679.03 1010.18 692.001 1005.99 700.914 997.043C708.244 989.689 711.904 981.014 712.577 969.441C713.725 949.532 702.947 932.649 685.519 927.064C678.742 924.89 669.996 924.385 663.399 925.783C648.555 928.917 637.02 940.446 633.186 955.988Z" fill="#041136"/>
<path fill-rule="evenodd" clip-rule="evenodd" d="M956.516 868.993C960.345 872.66 963.474 875.865 963.474 876.123C963.474 876.725 940.5 897.333 939.89 897.275C939.641 897.256 937.742 895.229 935.684 892.786C922.162 876.718 897.002 868.114 874.836 871.981C864.551 873.776 853.863 878.328 846.136 884.215C841.45 887.779 833.589 896.096 830.53 900.724C826.817 906.335 823.163 914.601 821.309 921.55C819.854 927.02 819.642 929.104 819.591 938.677C819.501 955.187 822.323 965.35 830.459 977.897C837.396 988.593 845.732 995.787 857.831 1001.51C867.558 1006.12 873.245 1007.26 886.531 1007.25C896.207 1007.24 898.541 1007.04 903.484 1005.75C915.051 1002.73 925.604 996.57 935.017 987.349C936.87 985.534 938.724 983.72 940.577 981.905C941.5 982.713 942.416 983.521 943.339 984.335C944.859 985.669 950.015 990.171 954.792 994.338C959.569 998.499 963.474 1002.22 963.474 1002.6C963.474 1003.82 951.823 1014.95 946.283 1019.04C932.389 1029.29 917.719 1034.9 898.072 1037.48C873.919 1040.64 846.688 1034.03 827.106 1020.24C819.469 1014.86 808.229 1003.54 803.299 996.255C795.629 984.938 790.872 973.723 787.68 959.45C786.378 953.648 786.192 951.122 786.218 939.959C786.243 929.13 786.474 926.09 787.699 920.403C792.161 899.699 800.824 883.387 814.622 869.73C826.324 858.143 839.09 850.482 855.536 845.159C866.731 841.544 872.97 840.632 886.851 840.607C897.239 840.587 900.067 840.806 906.029 842.075C925.047 846.134 942.211 855.291 956.516 868.993Z" fill="url(#paint2_linear_3_325)"/>
<path fill-rule="evenodd" clip-rule="evenodd" d="M1153.01 842.819C1169.61 842.819 1170.69 842.889 1170.27 843.942C1170.04 844.556 1167 852.565 1163.52 861.734C1160.05 870.903 1153.13 888.94 1148.14 901.809C1143.14 914.677 1138.09 927.808 1136.92 930.982C1134.63 937.157 1132.11 943.748 1112.68 994.139C1105.81 1011.95 1099.51 1028.6 1098.68 1031.15C1097.31 1035.34 1096.97 1035.82 1095.24 1036.15C1094.18 1036.35 1085.85 1036.42 1076.73 1036.32C1071.21 1036.26 1065.68 1036.2 1060.15 1036.14C1059.86 1035.39 1059.58 1034.64 1059.29 1033.89C1058.82 1032.66 1055.56 1024 1052.03 1014.66C1029.98 956.142 990.755 853.989 986.172 843.14C985.999 842.723 992.083 842.448 1003.53 842.352C1009.41 842.307 1015.29 842.254 1021.17 842.203C1021.49 842.704 1021.81 843.198 1022.14 843.691C1022.67 844.505 1023.95 847.602 1024.97 850.571C1025.98 853.534 1029.7 863.754 1033.23 873.275C1063.65 955.379 1074.39 984.483 1076.46 990.292C1077.52 993.293 1078.46 995.826 1078.55 995.922C1078.64 996.024 1079.37 994.293 1080.18 992.074C1080.99 989.862 1088.65 969.293 1097.21 946.37C1105.76 923.449 1114.25 900.654 1116.08 895.717C1117.9 890.78 1122.97 877.136 1127.35 865.389C1131.73 853.649 1135.31 843.768 1135.31 843.428C1135.31 843.056 1142.2 842.819 1153.01 842.819Z" fill="url(#paint3_linear_3_325)"/>
<path fill-rule="evenodd" clip-rule="evenodd" d="M1176.23 1133.18C1176.65 1133.6 1177 1134.55 1177 1135.29C1177 1137.11 1175.81 1138.18 1173.79 1138.18C1171.78 1138.18 1170.59 1137.11 1170.59 1135.29C1170.59 1133.48 1171.78 1132.41 1173.79 1132.41C1174.71 1132.41 1175.81 1132.75 1176.23 1133.18Z" fill="#061738"/>
<path fill-rule="evenodd" clip-rule="evenodd" d="M542.507 1114.77C543.944 1118.25 542.815 1122.34 539.602 1125.35C538.108 1126.75 537.185 1126.98 532.485 1127.18C530.684 1127.25 528.889 1127.33 527.087 1127.41C527.087 1129.31 527.087 1131.21 527.087 1133.11C527.087 1135.01 527.087 1136.91 527.087 1138.81C526.235 1138.81 525.374 1138.81 524.521 1138.81C523.669 1138.81 522.81 1138.81 521.957 1138.81C521.957 1133.9 521.957 1128.99 521.957 1124.07C521.957 1119.15 521.957 1114.24 521.957 1109.32C524.041 1109.32 526.124 1109.32 528.215 1109.32C531.652 1109.32 535.448 1109.6 536.653 1109.95C539.071 1110.64 541.687 1112.8 542.507 1114.77ZM536.814 1114.87C535.968 1114.1 534.448 1113.81 531.364 1113.81C529.94 1113.81 528.51 1113.81 527.087 1113.81C527.087 1115.41 527.087 1117.01 527.087 1118.62C527.087 1120.22 527.087 1121.82 527.087 1123.43C528.343 1123.43 529.594 1123.43 530.85 1123.43C535.787 1123.43 537.987 1121.86 537.987 1118.35C537.987 1116.82 537.558 1115.54 536.814 1114.87Z" fill="#09142E"/>
<path fill-rule="evenodd" clip-rule="evenodd" d="M613.678 1137.23C615.102 1138.12 614.083 1138.81 611.384 1138.81C609.165 1138.81 608.37 1138.54 608.017 1137.65C607.761 1137 606.254 1134.41 604.67 1131.89C601.933 1127.54 601.662 1127.31 599.381 1127.29C598.579 1127.29 597.778 1127.28 596.976 1127.27C596.976 1129.09 596.976 1130.91 596.976 1132.72C596.976 1134.54 596.976 1136.36 596.976 1138.17C596.226 1138.17 595.482 1138.17 594.732 1138.17C593.982 1138.17 593.238 1138.17 592.488 1138.17C592.488 1133.36 592.488 1128.56 592.488 1123.75C592.488 1118.94 592.488 1114.13 592.488 1109.32C594.706 1109.32 596.925 1109.32 599.143 1109.32C609.787 1109.32 612.685 1111.18 612.685 1118C612.685 1121.61 612.48 1122.27 610.807 1124.02C609.775 1125.09 608.421 1126.14 607.793 1126.34C606.703 1126.68 606.703 1126.79 607.812 1128.75C609.562 1131.85 612.993 1136.81 613.678 1137.23ZM606.831 1114.49C605.523 1113.47 604.215 1113.17 601.061 1113.17C599.695 1113.17 598.335 1113.17 596.976 1113.17C596.976 1114.88 596.976 1116.58 596.976 1118.3C596.976 1120.01 596.976 1121.71 596.976 1123.43C598.373 1123.43 599.771 1123.43 601.176 1123.43C604.772 1123.43 605.593 1123.2 606.946 1121.86C609.152 1119.64 609.095 1116.28 606.831 1114.49Z" fill="#061732"/>
<path fill-rule="evenodd" clip-rule="evenodd" d="M638.332 1109.32C641.429 1109.32 644.533 1109.32 647.63 1109.32C647.63 1109.96 647.63 1110.6 647.63 1111.24C647.63 1111.89 647.63 1112.53 647.63 1113.17C645.277 1113.17 642.93 1113.17 640.577 1113.17C638.223 1113.17 635.877 1113.17 633.523 1113.17C633.523 1114.66 633.523 1116.16 633.523 1117.66C633.523 1119.15 633.523 1120.65 633.523 1122.14C635.422 1122.14 637.319 1122.14 639.223 1122.14C641.122 1122.14 643.019 1122.14 644.917 1122.14C645.013 1122.78 645.11 1123.43 645.2 1124.07C645.296 1124.71 645.392 1125.35 645.482 1125.99C643.488 1125.99 641.5 1125.99 639.506 1125.99C637.512 1125.99 635.518 1125.99 633.523 1125.99C633.523 1128.02 633.523 1130.05 633.523 1132.08C633.523 1134.11 633.523 1136.14 633.523 1138.17C632.773 1138.17 632.029 1138.17 631.279 1138.17C630.529 1138.17 629.786 1138.17 629.036 1138.17C629.036 1133.36 629.036 1128.56 629.036 1123.75C629.036 1118.94 629.036 1114.13 629.036 1109.32C632.132 1109.32 635.235 1109.32 638.332 1109.32Z" fill="#0A162E"/>
<path fill-rule="evenodd" clip-rule="evenodd" d="M671.995 1109.32C675.201 1109.32 678.407 1109.32 681.612 1109.32C681.612 1110.07 681.612 1110.81 681.612 1111.56C681.612 1112.31 681.612 1113.06 681.612 1113.81C679.259 1113.81 676.912 1113.81 674.559 1113.81C672.206 1113.81 669.859 1113.81 667.506 1113.81C667.506 1115.09 667.506 1116.37 667.506 1117.66C667.506 1118.94 667.506 1120.22 667.506 1121.5C669.43 1121.5 671.353 1121.5 673.278 1121.5C675.201 1121.5 677.124 1121.5 679.048 1121.5C679.048 1122.25 679.048 1123 679.048 1123.75C679.048 1124.5 679.048 1125.24 679.048 1125.99C677.124 1125.99 675.201 1125.99 673.278 1125.99C671.353 1125.99 669.43 1125.99 667.506 1125.99C667.506 1127.27 667.506 1128.55 667.506 1129.84C667.506 1131.12 667.506 1132.4 667.506 1133.69C669.859 1133.69 672.206 1133.69 674.559 1133.69C676.912 1133.69 679.259 1133.69 681.612 1133.69C681.612 1134.44 681.612 1135.18 681.612 1135.93C681.612 1136.68 681.612 1137.42 681.612 1138.17C680.041 1138.17 678.47 1138.17 676.9 1138.17C674.309 1138.17 669.982 1138.36 667.282 1138.59C665.647 1138.72 664.012 1138.87 662.377 1139C662.377 1134.06 662.377 1129.11 662.377 1124.16C662.377 1119.21 662.377 1114.27 662.377 1109.32C665.583 1109.32 668.789 1109.32 671.995 1109.32Z" fill="#0A1430"/>
<path fill-rule="evenodd" clip-rule="evenodd" d="M720.269 1112.42C721.36 1113.37 721.341 1113.49 719.821 1115C719.289 1115.53 718.762 1116.07 718.231 1116.6C717.365 1115.99 716.506 1115.4 715.64 1114.8C713.358 1113.22 712.621 1113.05 709.408 1113.31C706.125 1113.58 705.522 1113.87 703.233 1116.33C702.387 1117.24 701.534 1118.15 700.688 1119.06C700.79 1120.77 700.886 1122.47 700.989 1124.18C701.265 1128.99 701.413 1129.42 703.515 1131.52C705.382 1133.39 706.343 1133.81 709.383 1134.13C712.614 1134.46 713.313 1134.31 715.672 1132.75C716.551 1132.17 717.436 1131.58 718.321 1131C718.762 1131.43 719.199 1131.88 719.641 1132.32C720.949 1133.63 720.955 1133.65 719.725 1135.02C717.916 1137.04 713.364 1138.81 709.972 1138.81C706.151 1138.81 702.246 1136.89 699.079 1133.45C696.25 1130.39 695.302 1126.41 696.09 1120.96C696.655 1117.08 697.604 1115.33 700.816 1112.22C703.342 1109.77 703.657 1109.65 708.279 1109.42C713.3 1109.17 717.833 1110.3 720.269 1112.42Z" fill="#07152F"/>
<path fill-rule="evenodd" clip-rule="evenodd" d="M744.128 1109.32C747.654 1109.32 751.182 1109.32 754.708 1109.32C754.708 1109.96 754.708 1110.6 754.708 1111.24C754.708 1111.89 754.708 1112.53 754.708 1113.17C753.426 1113.17 752.143 1113.17 750.86 1113.17C749.579 1113.17 748.296 1113.17 747.014 1113.17C747.014 1117.33 747.014 1121.5 747.014 1125.67C747.014 1129.84 747.014 1134.01 747.014 1138.17C746.264 1138.17 745.52 1138.17 744.77 1138.17C744.019 1138.17 743.276 1138.17 742.525 1138.17C742.525 1134.01 742.525 1129.84 742.525 1125.67C742.525 1121.5 742.525 1117.33 742.525 1113.17C741.031 1113.17 739.531 1113.17 738.037 1113.17C736.542 1113.17 735.043 1113.17 733.549 1113.17C733.549 1112.53 733.549 1111.89 733.549 1111.24C733.549 1110.6 733.549 1109.96 733.549 1109.32C737.075 1109.32 740.602 1109.32 744.128 1109.32Z" fill="#091532"/>
<path fill-rule="evenodd" clip-rule="evenodd" d="M781.317 1134.33C783.561 1134.33 785.805 1134.33 788.05 1134.33C788.05 1135.08 788.05 1135.82 788.05 1136.57C788.05 1137.32 788.05 1138.06 788.05 1138.81C784.953 1138.81 781.849 1138.81 778.752 1138.81C775.655 1138.81 772.551 1138.81 769.454 1138.81C769.454 1133.9 769.454 1128.99 769.454 1124.07C769.454 1119.15 769.454 1114.24 769.454 1109.32C770.308 1109.32 771.167 1109.32 772.02 1109.32C772.873 1109.32 773.732 1109.32 774.585 1109.32C774.585 1113.49 774.585 1117.66 774.585 1121.82C774.585 1125.99 774.585 1130.16 774.585 1134.33C776.829 1134.33 779.072 1134.33 781.317 1134.33Z" fill="#0D152E"/>
<path fill-rule="evenodd" clip-rule="evenodd" d="M873.795 1113.74C874.757 1115.18 875.25 1116.88 875.25 1118.73C875.25 1121.2 874.905 1121.88 872.385 1124.41C871.43 1125.36 870.467 1126.32 869.512 1127.27C867.8 1127.27 866.082 1127.27 864.37 1127.27C862.652 1127.27 860.939 1127.27 859.221 1127.27C859.221 1129.09 859.221 1130.91 859.221 1132.72C859.221 1134.54 859.221 1136.36 859.221 1138.17C858.47 1138.17 857.726 1138.17 856.977 1138.17C856.227 1138.17 855.483 1138.17 854.733 1138.17C854.733 1133.36 854.733 1128.56 854.733 1123.75C854.733 1118.94 854.733 1114.13 854.733 1109.32C856.925 1109.32 859.112 1109.32 861.305 1109.32C868.87 1109.32 871.455 1110.24 873.795 1113.74ZM868.698 1114.81C867.806 1114.18 865.883 1113.81 863.569 1113.81C862.33 1113.81 861.1 1113.81 859.862 1113.81C859.862 1115.3 859.862 1116.8 859.862 1118.3C859.862 1119.79 859.862 1121.29 859.862 1122.78C861.215 1122.78 862.574 1122.78 863.927 1122.78C868.717 1122.78 870.121 1121.73 870.121 1118.12C870.121 1116.46 869.723 1115.53 868.698 1114.81Z" fill="#0B172F"/>
<path fill-rule="evenodd" clip-rule="evenodd" d="M909.324 1134.95C909.887 1135.92 910.452 1136.88 911.016 1137.85C910.228 1137.92 909.432 1137.98 908.644 1138.04C906.323 1138.23 906.201 1138.13 902.765 1132.92C899.706 1128.27 898.988 1127.57 897.193 1127.4C896.506 1127.32 895.814 1127.26 895.127 1127.19C895.127 1129.13 895.127 1131.07 895.127 1133.01C895.127 1134.94 895.127 1136.88 895.127 1138.81C894.275 1138.81 893.416 1138.81 892.563 1138.81C891.71 1138.81 890.851 1138.81 889.998 1138.81C889.998 1133.9 889.998 1128.99 889.998 1124.07C889.998 1119.15 889.998 1114.24 889.998 1109.32C892.139 1109.32 894.288 1109.32 896.43 1109.32C903.643 1109.32 905.996 1110.03 908.842 1113.06C910.586 1114.91 910.676 1115.28 910.343 1118.98C910.055 1122.13 909.625 1123.29 908.207 1124.78C907.226 1125.8 905.905 1126.63 905.265 1126.63C903.707 1126.63 903.796 1127.07 905.867 1129.75C906.836 1131.01 908.394 1133.35 909.324 1134.95ZM904.547 1115.2C903.347 1114.08 902.283 1113.81 899.096 1113.81C897.769 1113.81 896.449 1113.81 895.127 1113.81C895.127 1115.41 895.127 1117.01 895.127 1118.62C895.127 1120.22 895.127 1121.82 895.127 1123.43C896.287 1123.43 897.449 1123.43 898.602 1123.43C901.411 1123.43 902.462 1123.11 904.053 1121.77C906.476 1119.73 906.662 1117.19 904.547 1115.2Z" fill="#07162E"/>
<path fill-rule="evenodd" clip-rule="evenodd" d="M935.843 1109.32C938.94 1109.32 942.042 1109.32 945.14 1109.32C945.14 1110.07 945.14 1110.81 945.14 1111.56C945.14 1112.31 945.14 1113.06 945.14 1113.81C942.786 1113.81 940.44 1113.81 938.088 1113.81C935.734 1113.81 933.387 1113.81 931.034 1113.81C931.034 1115.09 931.034 1116.37 931.034 1117.66C931.034 1118.94 931.034 1120.22 931.034 1121.5C933.066 1121.5 935.093 1121.5 937.125 1121.5C939.158 1121.5 941.183 1121.5 943.217 1121.5C943.217 1122.25 943.217 1123 943.217 1123.75C943.217 1124.5 943.217 1125.24 943.217 1125.99C941.183 1125.99 939.158 1125.99 937.125 1125.99C935.093 1125.99 933.066 1125.99 931.034 1125.99C931.034 1127.38 931.034 1128.77 931.034 1130.16C931.034 1131.55 931.034 1132.94 931.034 1134.33C933.387 1134.33 935.734 1134.33 938.088 1134.33C940.44 1134.33 942.786 1134.33 945.14 1134.33C945.14 1134.97 945.14 1135.61 945.14 1136.25C945.14 1136.89 945.14 1137.53 945.14 1138.17C942.042 1138.17 938.94 1138.17 935.843 1138.17C932.746 1138.17 929.643 1138.17 926.545 1138.17C926.545 1133.36 926.545 1128.56 926.545 1123.75C926.545 1118.94 926.545 1114.13 926.545 1109.32C929.643 1109.32 932.746 1109.32 935.843 1109.32Z" fill="#0C162B"/>
<path fill-rule="evenodd" clip-rule="evenodd" d="M978.642 1125.25C980.899 1127.33 981.098 1131.56 979.072 1134.4C975.135 1139.92 964.337 1140.24 959.566 1134.97C958.323 1133.6 958.323 1133.58 959.907 1132.37C961.952 1130.79 962.222 1130.81 964.49 1132.72C968.325 1135.95 975.917 1134.24 975.917 1130.15C975.917 1128.18 974.282 1126.95 969.723 1125.47C962.003 1122.94 959.888 1121.19 959.888 1117.31C959.888 1112.44 963.715 1109.31 969.633 1109.33C973.031 1109.34 977.879 1111.04 978.802 1112.53C979.078 1112.97 978.7 1113.87 977.924 1114.65C976.61 1115.96 976.493 1115.97 974.698 1114.91C972.544 1113.64 966.94 1113.42 965.786 1114.58C964.549 1115.82 964.895 1118.19 966.46 1119.19C967.255 1119.71 969.922 1120.91 972.39 1121.87C974.859 1122.83 977.674 1124.35 978.642 1125.25Z" fill="#0A1227"/>
<path fill-rule="evenodd" clip-rule="evenodd" d="M1013.32 1109.75C1013.55 1109.98 1013.75 1110.99 1013.75 1111.99C1013.75 1112.6 1013.75 1113.21 1013.75 1113.81C1011.51 1113.81 1009.26 1113.81 1007.03 1113.81C999.455 1113.81 999.314 1113.91 999.756 1119.32C999.826 1120.16 999.891 1120.99 999.962 1121.82C1001.94 1121.89 1003.92 1121.94 1005.89 1122.01C1011.69 1122.19 1011.82 1122.23 1011.82 1123.75C1011.82 1125.27 1011.69 1125.3 1005.89 1125.48C1003.92 1125.55 1001.94 1125.61 999.962 1125.67C999.898 1127.11 999.832 1128.55 999.768 1130C999.711 1131.44 999.647 1132.88 999.583 1134.33C1001.94 1134.33 1004.3 1134.33 1006.66 1134.33C1009.03 1134.33 1011.39 1134.33 1013.75 1134.33C1013.75 1134.97 1013.75 1135.61 1013.75 1136.25C1013.75 1136.89 1013.75 1137.53 1013.75 1138.17C1010.65 1138.17 1007.55 1138.17 1004.45 1138.17C1001.35 1138.17 998.249 1138.17 995.153 1138.17C995.153 1133.36 995.153 1128.56 995.153 1123.75C995.153 1118.94 995.153 1114.13 995.153 1109.32C998.108 1109.32 1001.06 1109.32 1004.02 1109.32C1008.9 1109.32 1013.09 1109.51 1013.32 1109.75Z" fill="#0C152C"/>
<path fill-rule="evenodd" clip-rule="evenodd" d="M1076.58 1109.32C1080.22 1109.32 1083.85 1109.32 1087.48 1109.32C1087.48 1109.95 1087.48 1110.58 1087.48 1111.21C1087.48 1113.09 1087.45 1113.11 1083.48 1113.29C1082.14 1113.36 1080.8 1113.42 1079.47 1113.49C1079.41 1117.6 1079.35 1121.71 1079.29 1125.83C1079.24 1129.95 1079.18 1134.06 1079.12 1138.17C1078.38 1138.17 1077.63 1138.17 1076.89 1138.17C1076.15 1138.17 1075.4 1138.17 1074.66 1138.17C1074.66 1134.01 1074.66 1129.84 1074.66 1125.67C1074.66 1121.5 1074.66 1117.33 1074.66 1113.17C1073.17 1113.17 1071.67 1113.17 1070.17 1113.17C1068.68 1113.17 1067.18 1113.17 1065.68 1113.17C1065.68 1112.53 1065.68 1111.89 1065.68 1111.24C1065.68 1110.6 1065.68 1109.96 1065.68 1109.32C1069.32 1109.32 1072.95 1109.32 1076.58 1109.32Z" fill="#10172D"/>
<path fill-rule="evenodd" clip-rule="evenodd" d="M1110.89 1109.32C1113.98 1109.32 1117.09 1109.32 1120.18 1109.32C1120.18 1110.07 1120.18 1110.81 1120.18 1111.56C1120.18 1112.31 1120.18 1113.06 1120.18 1113.81C1117.83 1113.81 1115.48 1113.81 1113.13 1113.81C1110.78 1113.81 1108.43 1113.81 1106.08 1113.81C1106.08 1115.09 1106.08 1116.37 1106.08 1117.66C1106.08 1118.94 1106.08 1120.22 1106.08 1121.5C1108.11 1121.5 1110.14 1121.5 1112.17 1121.5C1114.2 1121.5 1116.23 1121.5 1118.26 1121.5C1118.26 1122.14 1118.26 1122.78 1118.26 1123.43C1118.26 1124.07 1118.26 1124.71 1118.26 1125.35C1116.24 1125.35 1114.23 1125.35 1112.21 1125.35C1108.88 1125.35 1106.03 1125.57 1105.89 1125.83C1105.73 1126.09 1105.75 1128.11 1105.92 1130.32C1106.03 1131.65 1106.13 1132.99 1106.23 1134.33C1108.45 1134.33 1110.67 1134.33 1112.89 1134.33C1115.11 1134.33 1117.32 1134.33 1119.54 1134.33C1119.54 1134.97 1119.54 1135.61 1119.54 1136.25C1119.54 1136.89 1119.54 1137.53 1119.54 1138.17C1116.55 1138.17 1113.56 1138.17 1110.57 1138.17C1107.57 1138.17 1104.58 1138.17 1101.59 1138.17C1101.59 1133.36 1101.59 1128.56 1101.59 1123.75C1101.59 1118.94 1101.59 1114.13 1101.59 1109.32C1104.69 1109.32 1107.79 1109.32 1110.89 1109.32Z" fill="#0E1328"/>
<path fill-rule="evenodd" clip-rule="evenodd" d="M1158.03 1117.25C1159.38 1120.29 1159.63 1125.45 1158.57 1128.62C1157.69 1131.26 1153.42 1135.85 1150.59 1137.19C1149.14 1137.88 1146.5 1138.17 1141.73 1138.17C1139.46 1138.17 1137.19 1138.17 1134.93 1138.17C1134.93 1133.36 1134.93 1128.56 1134.93 1123.75C1134.93 1118.94 1134.93 1114.13 1134.93 1109.32C1137.04 1109.32 1139.16 1109.32 1141.27 1109.32C1150.3 1109.32 1155.62 1111.84 1158.03 1117.25ZM1152.52 1117.45C1150.52 1114.51 1148.84 1113.81 1143.86 1113.81C1142.6 1113.81 1141.33 1113.81 1140.06 1113.81C1140.06 1117.1 1140.06 1120.39 1140.06 1123.67C1140.06 1133.36 1140.09 1133.54 1141.5 1133.92C1145.56 1135.01 1150.83 1133.06 1152.87 1129.72C1154.84 1126.48 1154.67 1120.62 1152.52 1117.45Z" fill="#0A162E"/>
<path fill-rule="evenodd" clip-rule="evenodd" d="M1031.54 1109.44C1033.86 1109.63 1034.18 1109.99 1040.55 1119.26C1044.19 1124.55 1047.43 1128.97 1047.77 1129.09C1048.13 1129.22 1048.37 1125.29 1048.37 1119.31C1048.37 1115.98 1048.37 1112.65 1048.37 1109.32C1049.12 1109.32 1049.87 1109.32 1050.62 1109.32C1051.37 1109.32 1052.11 1109.32 1052.86 1109.32C1052.86 1114.13 1052.86 1118.94 1052.86 1123.75C1052.86 1128.56 1052.86 1133.36 1052.86 1138.17C1052.01 1138.17 1051.15 1138.17 1050.3 1138.17C1049.45 1138.17 1048.59 1138.17 1047.74 1138.17C1045.39 1134.61 1043.04 1131.05 1040.68 1127.48C1038.33 1123.93 1035.98 1120.36 1033.62 1116.8C1033.62 1120.36 1033.62 1123.93 1033.62 1127.48C1033.62 1131.05 1033.62 1134.61 1033.62 1138.17C1032.87 1138.17 1032.13 1138.17 1031.38 1138.17C1030.63 1138.17 1029.89 1138.17 1029.14 1138.17C1029.14 1133.35 1029.14 1128.53 1029.14 1123.71C1029.14 1118.89 1029.14 1114.06 1029.14 1109.24C1029.94 1109.31 1030.74 1109.38 1031.54 1109.44Z" fill="#131A2F"/>
<path fill-rule="evenodd" clip-rule="evenodd" d="M567.16 1109.32C570.257 1109.32 573.361 1109.32 576.458 1109.32C576.458 1109.96 576.458 1110.6 576.458 1111.24C576.458 1111.89 576.458 1112.53 576.458 1113.17C574.105 1113.17 571.758 1113.17 569.405 1113.17C567.051 1113.17 564.705 1113.17 562.353 1113.17C562.353 1114.56 562.353 1115.94 562.353 1117.33C562.353 1118.73 562.353 1120.11 562.353 1121.5C564.384 1121.5 566.411 1121.5 568.443 1121.5C570.476 1121.5 572.502 1121.5 574.535 1121.5C574.535 1122.25 574.535 1123 574.535 1123.75C574.535 1124.5 574.535 1125.24 574.535 1125.99C572.502 1125.99 570.476 1125.99 568.443 1125.99C566.411 1125.99 564.384 1125.99 562.353 1125.99C562.353 1127.24 562.353 1128.5 562.353 1129.75C562.353 1131 562.353 1132.26 562.353 1133.51C563.474 1133.64 564.596 1133.77 565.719 1133.91C567.571 1134.13 570.745 1134.32 572.771 1134.32C576.439 1134.33 576.458 1134.34 576.458 1136.25C576.458 1136.89 576.458 1137.53 576.458 1138.17C573.361 1138.17 570.257 1138.17 567.16 1138.17C564.064 1138.17 560.961 1138.17 557.864 1138.17C557.864 1133.36 557.864 1128.56 557.864 1123.75C557.864 1118.94 557.864 1114.13 557.864 1109.32C560.961 1109.32 564.064 1109.32 567.16 1109.32Z" fill="#131931"/>
<path fill-rule="evenodd" clip-rule="evenodd" d="M796.764 1109.26C798.757 1109.03 801.95 1109.53 802.605 1110.17C803.027 1110.58 804.566 1113.09 806.022 1115.73C807.478 1118.37 808.759 1120.54 808.869 1120.54C809.061 1120.54 810.984 1117.54 814.338 1111.98C815.812 1109.54 816.16 1109.33 818.666 1109.33C819.577 1109.33 820.487 1109.32 821.397 1109.32C819.686 1112.11 817.974 1114.9 816.262 1117.69C814.556 1120.48 812.845 1123.27 811.132 1126.06C811.132 1128.08 811.132 1130.1 811.132 1132.12C811.132 1134.13 811.132 1136.15 811.132 1138.17C810.381 1138.17 809.639 1138.17 808.889 1138.17C808.138 1138.17 807.394 1138.17 806.644 1138.17C806.638 1136.2 806.638 1134.22 806.631 1132.24C806.625 1126.93 806.433 1125.98 804.811 1123.11C799.983 1114.56 798.122 1111.47 797.193 1110.44C796.641 1109.83 796.449 1109.29 796.764 1109.26Z" fill="#141C34"/>
<path fill-rule="evenodd" clip-rule="evenodd" d="M315.077 742.7C405.55 652.358 431.805 625.813 431.794 625.427C431.787 625.191 431.78 624.96 431.773 624.722C453.52 603.082 475.265 581.442 497.014 559.802C518.763 538.162 540.505 516.522 562.254 494.881C562.851 495.152 563.454 495.414 564.05 495.683C565.153 496.177 566.319 497.537 567.082 499.21C568.282 501.852 568.32 504.218 568.327 575.351C568.327 599.825 568.333 624.293 568.333 648.766C563.473 653.684 558.613 658.602 553.753 663.515C469.411 748.837 459.107 758.999 453.823 762.128C443.569 768.2 431.766 772.381 419.591 774.246C415.7 774.843 405.606 775.081 384.326 775.081C355.215 775.081 354.381 775.041 349.06 773.6C342.305 771.771 334.506 767.989 329.699 764.206C324.118 759.813 319.933 753.659 315.077 742.7Z" fill="url(#paint4_linear_3_325)"/>
<path fill-rule="evenodd" clip-rule="evenodd" d="M861.907 690.181C864.817 694.425 862.83 701.408 857.951 704.082C856.052 705.12 849.646 705.203 760.702 705.384C708.329 705.486 664.203 705.39 662.638 705.165C659.15 704.665 655.989 701.767 654.989 698.151C653.553 692.931 656.778 687.026 661.817 685.673C663.633 685.187 693.011 685.025 760.592 685.147C792.658 685.199 824.723 685.257 856.783 685.315C857.386 685.763 857.995 686.206 858.597 686.654C859.592 687.391 861.08 688.981 861.907 690.181Z" fill="url(#paint5_radial_3_325)"/>
<path fill-rule="evenodd" clip-rule="evenodd" d="M862.317 634.661C863.663 637.149 863.272 642.169 861.56 644.484C860.861 645.432 859.328 646.856 858.155 647.658C857.444 648.138 856.732 648.626 856.02 649.107C829.501 649.049 802.981 648.99 776.462 648.939C749.942 648.882 723.423 648.824 696.903 648.766C696.23 648.286 695.563 647.811 694.891 647.33C692.736 645.791 690.812 641.842 690.812 638.95C690.812 636.488 693.333 631.794 695.505 630.211C697.308 628.896 697.737 628.889 775.654 628.697C828.019 628.576 854.751 628.729 856.277 629.172C858.759 629.891 860.694 631.647 862.317 634.661Z" fill="url(#paint6_radial_3_325)"/>
<path fill-rule="evenodd" clip-rule="evenodd" d="M697.447 329.137C697.268 329.137 697.127 329.28 697.127 329.457C697.127 329.633 697.268 329.778 697.447 329.778C697.628 329.778 697.769 329.633 697.769 329.457C697.769 329.28 697.628 329.137 697.447 329.137Z" fill="url(#paint7_linear_3_325)"/>
<path fill-rule="evenodd" clip-rule="evenodd" d="M691.517 409.124C695.742 413.998 758.065 486.924 770.868 493.326C770.868 483.723 774.022 251.629 774.069 249.628C772.984 247.392 766.282 252.632 725.929 296.436C700.147 323.549 692.171 332.258 690.658 334.921C689.914 336.223 689.722 342.841 689.594 371.615C689.542 383.316 689.485 395.018 689.432 406.719C690.125 407.521 690.824 408.322 691.517 409.124ZM697.127 329.457C697.127 329.28 697.268 329.137 697.447 329.137C697.628 329.137 697.769 329.28 697.769 329.457C697.769 329.633 697.628 329.778 697.447 329.778C697.268 329.778 697.127 329.633 697.127 329.457Z" fill="url(#paint8_linear_3_325)"/>
<path fill-rule="evenodd" clip-rule="evenodd" d="M311.231 146.397C311.473 145.595 311.715 144.794 311.958 143.992C315.577 132.021 321.393 125.948 332.366 122.68C336.472 121.457 338.498 121.391 371.684 121.391C393.1 121.391 408.593 121.658 411.621 122.08C424.309 123.844 441.465 133.163 450.047 142.953C452.163 145.366 457.208 150.963 461.268 155.389C465.327 159.815 475.438 170.927 483.755 180.084C492.064 189.239 506.201 204.796 515.173 214.655C524.136 224.514 535.947 237.527 541.415 243.574C546.885 249.621 556.099 259.733 561.896 266.043C575.745 281.128 659.131 372.843 673.5 388.8C679.669 395.653 686.094 402.633 690.812 407.36C691.504 408.161 692.203 408.962 692.896 409.764C697.121 414.638 722.25 441.968 733.13 453.526C735.965 456.678 738.792 459.829 741.626 462.981C746.301 468.183 751.782 474.095 757.496 479.815C757.496 479.968 757.496 480.128 757.496 480.282C757.496 480.546 759.733 483.008 762.465 485.764C765.196 488.516 766.569 489.676 765.511 488.335C764.87 487.527 764.228 486.713 763.587 485.905C764.446 486.675 765.298 487.444 766.151 488.22C769.024 490.81 770.941 491.728 770.999 490.535C771.024 490.106 771.32 490.451 771.659 491.298C772.237 492.741 770.666 494.465 749.019 516.163C736.227 528.98 718.832 546.517 710.369 555.122C701.904 563.726 694.115 571.19 693.056 571.702C691.998 572.216 689.113 572.972 686.644 573.382C682.662 574.049 681.694 573.991 678.143 572.883C673.712 571.504 675.142 572.806 656.887 553.551C647.77 543.933 638.062 533.546 613.229 506.859C608.465 501.743 603.13 495.767 601.367 493.581C599.604 491.394 596.142 487.778 593.672 485.547C588.786 481.122 586.94 479.039 586.94 477.941C586.94 477.551 586.363 477.236 584.375 477.25C575.546 467.792 566.717 458.334 557.888 448.877C535.671 425.079 519.129 407.24 496.5 382.688C460.088 343.177 432.933 314.121 432.127 313.801C431.657 313.615 431.501 360.606 431.773 624.722C431.78 624.96 431.787 625.191 431.794 625.427C431.805 625.813 405.55 652.358 315.077 742.7C314.489 741.046 313.901 739.385 313.314 737.731C312.726 736.077 312.138 734.416 311.551 732.762C311.443 537.309 311.337 341.852 311.231 146.397Z" fill="url(#paint9_radial_3_325)"/>
<path fill-rule="evenodd" clip-rule="evenodd" d="M734.092 452.884C734.272 452.884 734.413 453.029 734.413 453.205C734.413 453.381 734.272 453.526 734.092 453.526C733.912 453.526 733.772 453.381 733.772 453.205C733.772 453.029 733.912 452.884 734.092 452.884Z" fill="url(#paint10_linear_3_325)"/>
<path fill-rule="evenodd" clip-rule="evenodd" d="M734.733 453.526C734.913 453.526 735.055 453.67 735.055 453.846C735.055 454.022 734.913 454.167 734.733 454.167C734.554 454.167 734.413 454.022 734.413 453.846C734.413 453.67 734.554 453.526 734.733 453.526Z" fill="url(#paint11_linear_3_325)"/>
<path fill-rule="evenodd" clip-rule="evenodd" d="M735.375 454.167C735.554 454.167 735.695 454.31 735.695 454.487C735.695 454.664 735.554 454.808 735.375 454.808C735.196 454.808 735.055 454.664 735.055 454.487C735.055 454.31 735.196 454.167 735.375 454.167Z" fill="url(#paint12_linear_3_325)"/>
<path fill-rule="evenodd" clip-rule="evenodd" d="M698.826 329.777C699.007 329.777 699.148 329.92 699.148 330.097C699.148 330.274 699.007 330.418 698.826 330.418C698.647 330.418 698.506 330.274 698.506 330.097C698.506 329.92 698.647 329.777 698.826 329.777Z" fill="url(#paint13_radial_3_325)"/>
<path fill-rule="evenodd" clip-rule="evenodd" d="M598.024 759.288C589.843 759.288 592.676 776.606 598.024 777.818C618.212 777.761 764.265 777.979 789.317 777.818C814.256 777.658 839.184 777.497 859.281 777.439C860.915 777.002 862.546 776.564 864.178 776.126C865.101 775.878 866.025 775.63 866.949 775.382C894.372 768.028 913.582 746.708 920.284 716.213C921.431 710.994 921.476 703.408 921.476 513.303C921.476 322.508 921.602 313.717 919.273 305.635C919.035 304.811 918.772 303.995 918.481 302.994C913.582 286.134 900.72 270.011 884.929 260.92C876.997 256.353 868.328 253.442 858.48 252.041C857.704 251.93 854.433 251.82 851.163 251.71C847.893 251.599 844.622 251.489 843.847 251.379C842.565 251.891 840.507 251.805 836.661 251.645C833.791 251.525 829.925 251.364 824.642 251.379C824.207 251.38 823.782 251.381 823.367 251.382C807.945 251.425 805.228 251.432 805.228 253.431V262.867V275.03C807.355 275.03 809.855 275.016 812.614 275C831.051 274.893 861.082 274.719 869.097 278.353C883.158 284.727 894.379 298.876 897.533 314.214C898.239 317.642 898.393 353.135 898.393 513.944C898.393 697.356 898.322 709.775 897.284 713.828C891.718 735.455 878.433 749.702 857.678 756.287C853.959 757.467 850.343 758.101 846.297 758.288L840.366 758.557V758.864C840.366 759.032 819.893 759.224 794.867 759.288H598.024Z" fill="url(#paint14_radial_3_325)"/>
<path fill-rule="evenodd" clip-rule="evenodd" d="M656.345 153.277C657.147 153.056 657.948 152.833 658.75 152.612C685.608 145.17 699.76 135.108 708.768 117.051C713.36 107.844 716.186 98.5819 719.823 80.8238C720.059 80.3962 720.298 79.9685 720.528 79.5409C720.919 78.8354 721.643 78.2593 723.029 78.2593C723.568 81.0914 724.105 83.9222 724.644 86.7543C728.876 109.07 734.339 121.123 745.085 131.861C756.005 142.777 767.956 148.383 794.841 155.201C794.828 155.362 794.822 155.522 794.809 155.682C794.79 155.947 795.079 156.378 796.124 157.125C795.431 157.245 794.732 157.367 794.039 157.488C762.02 163.069 741.925 176.231 732.429 197.842C729.319 204.918 726.638 214.347 723.029 230.861C722.598 231.094 722.176 231.329 721.746 231.562C721.041 231.948 720.464 232.669 720.464 234.067C720.253 232.838 720.04 231.609 719.823 230.38C717.867 219.098 712.897 202.914 708.89 194.768C703.895 184.619 698.439 178.517 688.584 172.062C679.595 166.177 672.952 163.519 654.422 158.406C654.286 157.946 654.158 157.485 654.024 157.024C653.755 156.069 654.05 155.275 656.345 153.277Z" fill="url(#paint15_linear_3_325)"/>
<path fill-rule="evenodd" clip-rule="evenodd" d="M723.029 78.2593C721.643 78.2593 720.919 78.8354 720.528 79.5409C720.298 79.9685 720.059 80.3961 719.823 80.8238C720.034 78.6869 720.246 76.5488 720.464 74.4119C720.81 70.8846 721.349 68 721.65 68C721.958 68 722.387 70.3084 723.029 78.2593Z" fill="#001BC7"/>
<path fill-rule="evenodd" clip-rule="evenodd" d="M77.9805 1109.98C77.3429 1110.41 76.7053 1110.84 76.0677 1111.27C75.0165 1111.99 74.1805 1112.59 74.2087 1112.62C74.2381 1112.65 73.2983 1113.67 72.1217 1114.88C69.5598 1117.52 69.0541 1116.8 70.9272 1113.18C71.2601 1112.53 71.5917 1111.88 71.9246 1111.23C72.8413 1109.42 73.1217 1109.29 77.9805 1109.98Z" fill="#0A1022"/>
<path fill-rule="evenodd" clip-rule="evenodd" d="M117.568 1117.73C120.111 1122.74 118.927 1130.4 115.027 1134.16C108.564 1140.41 99.0546 1140.27 93.2471 1133.84C89.3331 1129.5 88.3012 1122.46 90.9092 1117.87C94.649 1111.29 99.0969 1108.86 106.267 1109.52C109.599 1109.82 110.585 1110.23 113.145 1112.38C114.787 1113.77 116.778 1116.18 117.568 1117.73ZM113.447 1119.85C113.301 1119.11 112.184 1117.54 110.966 1116.35C109.022 1114.47 108.25 1114.17 104.714 1113.95C101.063 1113.72 100.481 1113.86 98.604 1115.44C95.6605 1117.92 94.6516 1120.26 94.6516 1124.61C94.6516 1128.89 95.7104 1130.75 99.5104 1133.09C101.339 1134.22 102.464 1134.44 105.274 1134.21C111.959 1133.65 115.083 1128.16 113.447 1119.85Z" fill="#0A1530"/>
<path fill-rule="evenodd" clip-rule="evenodd" d="M154.977 1109.34C155.814 1109.34 156.651 1109.34 157.487 1109.34C157.487 1112.62 157.487 1115.9 157.487 1119.18C157.487 1124.82 157.176 1129.95 156.759 1131.2C155.216 1135.82 150.776 1138.83 145.515 1138.83C142.102 1138.83 139.959 1137.79 136.97 1134.68C136.221 1133.91 135.474 1133.13 134.726 1132.35C134.659 1128.51 134.591 1124.68 134.525 1120.85C134.458 1117.01 134.392 1113.17 134.324 1109.34C135.086 1109.34 135.847 1109.34 136.609 1109.34C137.371 1109.34 138.131 1109.34 138.893 1109.34C138.893 1112.76 138.893 1116.17 138.893 1119.58C138.893 1123 138.893 1126.42 138.893 1129.84C139.487 1130.5 140.083 1131.16 140.677 1131.83C143.228 1134.69 147.498 1135.15 150.158 1132.87C150.784 1132.33 151.411 1131.79 152.038 1131.25C152.109 1127.6 152.181 1123.94 152.252 1120.3C152.324 1116.64 152.394 1112.99 152.467 1109.34C153.303 1109.34 154.141 1109.34 154.977 1109.34Z" fill="#091730"/>
<path fill-rule="evenodd" clip-rule="evenodd" d="M252.241 1112.75C252.727 1113.19 253.215 1113.64 253.701 1114.08C253.193 1114.59 252.686 1115.1 252.179 1115.6C251.671 1116.11 251.164 1116.62 250.657 1117.13C249.845 1116.58 249.035 1116.03 248.224 1115.47C246.291 1114.17 245.016 1113.83 242.011 1113.83C238.495 1113.83 238.037 1114 235.527 1116.35C234.627 1117.19 233.727 1118.03 232.827 1118.87C232.827 1120.47 232.827 1122.07 232.827 1123.67C232.827 1128.14 232.964 1128.63 234.751 1130.51C238.91 1134.89 243.221 1135.52 248.028 1132.47C249.012 1131.85 249.995 1131.23 250.977 1130.61C251.457 1131.11 251.936 1131.62 252.416 1132.13C254.125 1133.95 253.553 1135.02 249.862 1136.87C246.427 1138.59 243.089 1138.99 239.037 1138.15C236.055 1137.54 234.851 1136.86 232.413 1134.43C228.886 1130.91 227.718 1127.44 228.21 1121.96C228.627 1117.31 230.8 1113.83 234.907 1111.23C237.459 1109.61 238.518 1109.34 242.281 1109.34C246.848 1109.34 249.51 1110.25 252.241 1112.75Z" fill="#0A132F"/>
<path fill-rule="evenodd" clip-rule="evenodd" d="M355.294 1109.34C358.392 1109.34 361.492 1109.34 364.591 1109.34C364.591 1110.09 364.591 1110.83 364.591 1111.58C364.591 1112.33 364.591 1113.08 364.591 1113.83C362.24 1113.83 359.889 1113.83 357.539 1113.83C355.187 1113.83 352.836 1113.83 350.485 1113.83C350.485 1115.11 350.485 1116.39 350.485 1117.67C350.485 1118.95 350.485 1120.24 350.485 1121.52C352.516 1121.52 354.545 1121.52 356.576 1121.52C358.606 1121.52 360.637 1121.52 362.668 1121.52C362.668 1122.27 362.668 1123.01 362.668 1123.76C362.668 1124.51 362.668 1125.26 362.668 1126.01C360.637 1126.01 358.606 1126.01 356.576 1126.01C354.545 1126.01 352.516 1126.01 350.485 1126.01C350.485 1127.29 350.485 1128.57 350.485 1129.86C350.485 1131.14 350.485 1132.42 350.485 1133.7C352.836 1133.7 355.187 1133.7 357.539 1133.7C359.889 1133.7 362.24 1133.7 364.591 1133.7C364.591 1134.45 364.591 1135.2 364.591 1135.95C364.591 1136.7 364.591 1137.44 364.591 1138.19C361.492 1138.19 358.392 1138.19 355.294 1138.19C352.194 1138.19 349.095 1138.19 345.996 1138.19C345.996 1133.38 345.996 1128.57 345.996 1123.76C345.996 1118.95 345.996 1114.15 345.996 1109.34C349.095 1109.34 352.194 1109.34 355.294 1109.34Z" fill="#06142F"/>
<path fill-rule="evenodd" clip-rule="evenodd" d="M390.238 1109.34C393.444 1109.34 396.65 1109.34 399.856 1109.34C399.856 1110.09 399.856 1110.83 399.856 1111.58C399.856 1112.33 399.856 1113.08 399.856 1113.83C397.399 1113.83 394.941 1113.83 392.482 1113.83C390.024 1113.83 387.566 1113.83 385.109 1113.83C385.109 1115.11 385.109 1116.39 385.109 1117.67C385.109 1118.95 385.109 1120.24 385.109 1121.52C387.14 1121.52 389.169 1121.52 391.2 1121.52C393.23 1121.52 395.261 1121.52 397.291 1121.52C397.291 1122.16 397.291 1122.8 397.291 1123.44C397.291 1124.08 397.291 1124.73 397.291 1125.37C395.261 1125.37 393.23 1125.37 391.2 1125.37C389.169 1125.37 387.14 1125.37 385.109 1125.37C385.109 1126.86 385.109 1128.36 385.109 1129.86C385.109 1131.35 385.109 1132.85 385.109 1134.34C387.46 1134.34 389.81 1134.34 392.162 1134.34C394.513 1134.34 396.864 1134.34 399.214 1134.34C399.214 1134.98 399.214 1135.63 399.214 1136.27C399.214 1136.91 399.214 1137.55 399.214 1138.19C396.116 1138.19 393.016 1138.19 389.918 1138.19C386.818 1138.19 383.72 1138.19 380.62 1138.19C380.62 1133.38 380.62 1128.57 380.62 1123.76C380.62 1118.95 380.62 1114.15 380.62 1109.34C383.826 1109.34 387.032 1109.34 390.238 1109.34Z" fill="#08112D"/>
<path fill-rule="evenodd" clip-rule="evenodd" d="M456.793 1133.19C457.217 1133.61 457.563 1134.71 457.563 1135.63C457.563 1137.74 456.473 1138.83 454.357 1138.83C452.371 1138.83 451.151 1137.77 451.151 1136.03C451.151 1133.23 454.928 1131.32 456.793 1133.19Z" fill="#0A1530"/>
<path fill-rule="evenodd" clip-rule="evenodd" d="M70.9271 1113.18C69.054 1116.8 69.5597 1117.52 72.1217 1114.88C73.2983 1113.67 74.2381 1112.65 74.2086 1112.62C74.1804 1112.59 75.0165 1111.99 76.0676 1111.27C76.7052 1110.84 77.3429 1110.41 77.9805 1109.98C74.7796 1115.22 71.5801 1120.45 68.3793 1125.69C68.3767 1127.75 68.3742 1129.8 68.3703 1131.86C68.3678 1133.91 68.3652 1135.97 68.3626 1138.02C67.5087 1138.16 66.6534 1138.3 65.7981 1138.43C64.9442 1138.58 64.0876 1138.71 63.2336 1138.84C63.2336 1136.77 63.2336 1134.7 63.2336 1132.62C63.2336 1126.47 63.2042 1126.36 60.5526 1121.88C59.0764 1119.39 57.5272 1116.92 57.1086 1116.39C56.6899 1115.87 55.594 1114.06 54.6734 1112.38C54.1152 1111.37 53.5582 1110.35 53 1109.34C53.9372 1109.34 54.8744 1109.34 55.8116 1109.34C56.7488 1109.34 57.686 1109.34 58.6245 1109.34C59.7601 1111.36 60.8945 1113.37 62.0301 1115.39C64.2438 1119.33 65.6727 1121.25 66.1106 1120.89C66.4818 1120.58 67.4293 1119.15 68.2154 1117.72C68.6917 1116.85 69.1693 1115.98 69.6455 1115.11C70.0732 1114.47 70.4995 1113.83 70.9271 1113.18Z" fill="url(#paint16_radial_3_325)"/>
<path fill-rule="evenodd" clip-rule="evenodd" d="M180.568 1109.34C188.443 1109.34 190.198 1109.88 192.997 1113.21C196.044 1116.83 194.595 1123.61 190.318 1125.75C189.529 1126.14 188.726 1126.62 188.534 1126.81C188.342 1127 189.639 1129.57 191.417 1132.52C192.495 1134.3 193.573 1136.09 194.651 1137.87C193.831 1137.93 193.011 1138 192.192 1138.06C189.764 1138.25 189.695 1138.2 187.004 1133.66C183.665 1128.04 182.322 1126.65 180.25 1126.65C178.659 1126.65 178.647 1126.69 178.647 1132.42C178.647 1134.34 178.647 1136.27 178.647 1138.19C177.924 1138.19 177.201 1138.19 176.477 1138.19C175.755 1138.19 175.032 1138.19 174.308 1138.19C174.194 1136.86 174.08 1135.52 173.967 1134.18C173.78 1131.98 173.586 1125.49 173.536 1119.76C173.507 1116.28 173.477 1112.81 173.448 1109.34C175.82 1109.34 178.194 1109.34 180.568 1109.34ZM188.374 1114.89C187.529 1114.12 186.003 1113.83 182.896 1113.83C181.462 1113.83 180.026 1113.83 178.591 1113.83C178.654 1115.38 178.717 1116.92 178.779 1118.47C178.842 1120.03 178.905 1121.57 178.967 1123.12C180.427 1123.12 181.888 1123.12 183.347 1123.12C186.943 1123.12 187.89 1122.9 188.638 1121.88C189.942 1120.1 189.795 1116.17 188.374 1114.89Z" fill="url(#paint17_radial_3_325)"/>
<path fill-rule="evenodd" clip-rule="evenodd" d="M267.782 1134.79C268.081 1133.79 268.593 1132.64 268.922 1132.22C269.25 1131.8 269.711 1130.66 269.944 1129.68C270.178 1128.7 271.05 1126.39 271.881 1124.55C272.712 1122.71 273.604 1120.48 273.864 1119.6C274.124 1118.71 274.886 1116.77 275.558 1115.27C276.229 1113.77 277.06 1111.81 277.404 1110.9C277.938 1109.5 278.362 1109.29 280.339 1109.46C282.591 1109.65 282.703 1109.79 284.872 1115.11C286.096 1118.11 288.193 1123.44 289.533 1126.97C290.872 1130.5 292.443 1134.47 293.023 1135.79C293.375 1136.59 293.726 1137.39 294.078 1138.19C293.234 1138.19 292.39 1138.19 291.548 1138.19C289.471 1138.19 288.945 1137.93 288.611 1136.75C287.147 1131.55 287.515 1131.78 280.348 1131.78C278.18 1131.78 276.011 1131.78 273.844 1131.78C273.465 1132.85 273.084 1133.91 272.705 1134.98C271.636 1137.99 271.43 1138.19 269.348 1138.19C267.001 1138.19 266.856 1137.88 267.782 1134.79ZM284.445 1126.01C284.136 1125.48 283.084 1122.92 282.108 1120.32C281.517 1118.75 280.925 1117.17 280.334 1115.6C280.024 1116.32 279.715 1117.04 279.405 1117.76C278.894 1118.94 278.088 1120.83 277.613 1121.94C277.137 1123.05 276.749 1124.41 276.749 1124.94C276.749 1125.49 276.461 1126.11 276.107 1126.33C274.425 1127.37 275.891 1127.93 280.275 1127.93C285.117 1127.93 285.475 1127.76 284.445 1126.01Z" fill="#131931"/>
<path fill-rule="evenodd" clip-rule="evenodd" d="M316.493 1109.45C319.054 1109.52 321.616 1109.59 324.178 1109.66C324.982 1110.47 325.786 1111.27 326.592 1112.08C328.854 1114.34 329.005 1114.73 329.005 1118.4C329.005 1122.2 328.93 1122.37 326.229 1124.77C325.304 1125.59 324.379 1126.41 323.455 1127.23C324.547 1129.01 325.639 1130.78 326.733 1132.55C327.823 1134.32 328.917 1136.1 330.009 1137.87C329.16 1137.93 328.311 1138 327.461 1138.06C325.37 1138.22 324.752 1138 324.017 1136.78C318.359 1127.46 318.224 1127.3 315.7 1127.3C314.898 1127.3 314.097 1127.29 313.296 1127.29C313.296 1129.11 313.296 1130.93 313.296 1132.74C313.296 1134.56 313.296 1136.38 313.296 1138.19C312.548 1138.19 311.8 1138.19 311.052 1138.19C310.303 1138.19 309.556 1138.19 308.808 1138.19C308.808 1133.36 308.808 1128.53 308.808 1123.71C308.808 1118.88 308.808 1114.06 308.808 1109.23C311.369 1109.3 313.932 1109.38 316.493 1109.45ZM323.354 1115.22C322.166 1114.1 321.091 1113.83 317.978 1113.83C316.681 1113.83 315.384 1113.83 314.087 1113.83C313.987 1115.27 313.887 1116.71 313.787 1118.15C313.621 1120.53 313.604 1122.7 313.749 1122.96C313.895 1123.23 315.56 1123.44 317.453 1123.44C320.217 1123.44 321.278 1123.12 322.865 1121.78C325.285 1119.75 325.474 1117.21 323.354 1115.22Z" fill="url(#paint18_radial_3_325)"/>
<path fill-rule="evenodd" clip-rule="evenodd" d="M422.323 1109.34C427.538 1109.34 429.247 1109.59 431.325 1110.65C437.848 1113.97 438.221 1123.4 431.932 1126C430.865 1126.44 429.992 1126.92 429.992 1127.05C429.992 1127.19 431.435 1129.61 433.198 1132.42C434.961 1135.24 436.404 1137.68 436.404 1137.86C436.404 1138.04 435.289 1138.19 433.925 1138.19C431.506 1138.19 431.369 1138.06 428.105 1132.74C424.961 1127.61 424.633 1127.29 422.569 1127.29C421.838 1127.29 421.106 1127.29 420.374 1127.29C420.374 1129.11 420.374 1130.93 420.374 1132.74C420.374 1134.56 420.374 1136.38 420.374 1138.19C419.625 1138.19 418.878 1138.19 418.13 1138.19C417.382 1138.19 416.635 1138.19 415.886 1138.19C415.886 1133.38 415.886 1128.57 415.886 1123.76C415.886 1118.95 415.886 1114.15 415.886 1109.34C418.031 1109.34 420.177 1109.34 422.323 1109.34ZM430.294 1115.21C428.912 1114.12 427.663 1113.83 424.455 1113.83C423.095 1113.83 421.734 1113.83 420.374 1113.83C420.374 1115.43 420.374 1117.03 420.374 1118.63C420.374 1120.24 420.374 1121.84 420.374 1123.44C421.739 1123.44 423.105 1123.44 424.47 1123.44C429.347 1123.44 431.134 1122.32 431.682 1118.9C431.999 1116.92 431.801 1116.39 430.294 1115.21Z" fill="#101A33"/>
<defs>
<linearGradient id="paint0_linear_3_325" x1="578.396" y1="1219.88" x2="483.924" y2="1048.22" gradientUnits="userSpaceOnUse">
<stop stop-color="#3A38F5"/>
<stop offset="0.181818" stop-color="#333FF1"/>
<stop offset="0.227273" stop-color="#2C3FF0"/>
<stop offset="0.454545" stop-color="#1F4AF0"/>
<stop offset="0.545455" stop-color="#194DEF"/>
<stop offset="0.590909" stop-color="#1C4DF2"/>
<stop offset="0.636364" stop-color="#1C4DF2"/>
<stop offset="0.818182" stop-color="#1056F3"/>
<stop offset="0.954545" stop-color="#0D56EE"/>
<stop offset="1" stop-color="#0756ED"/>
</linearGradient>
<linearGradient id="paint1_linear_3_325" x1="858.985" y1="-292.032" x2="1035.51" y2="-312.129" gradientUnits="userSpaceOnUse">
<stop stop-color="#144EF5"/>
<stop offset="0.136364" stop-color="#2B46F5"/>
<stop offset="0.227273" stop-color="#3C3AF4"/>
<stop offset="0.272727" stop-color="#4534F2"/>
<stop offset="0.454545" stop-color="#4E2EF1"/>
<stop offset="0.727273" stop-color="#4A34F2"/>
<stop offset="0.863636" stop-color="#4E38F0"/>
<stop offset="0.954545" stop-color="#4A3AF0"/>
<stop offset="1" stop-color="#4E38F0"/>
</linearGradient>
<linearGradient id="paint2_linear_3_325" x1="578.396" y1="1219.88" x2="483.924" y2="1048.22" gradientUnits="userSpaceOnUse">
<stop stop-color="#3A38F5"/>
<stop offset="0.181818" stop-color="#333FF1"/>
<stop offset="0.227273" stop-color="#2C3FF0"/>
<stop offset="0.454545" stop-color="#1F4AF0"/>
<stop offset="0.545455" stop-color="#194DEF"/>
<stop offset="0.590909" stop-color="#1C4DF2"/>
<stop offset="0.636364" stop-color="#1C4DF2"/>
<stop offset="0.818182" stop-color="#1056F3"/>
<stop offset="0.954545" stop-color="#0D56EE"/>
<stop offset="1" stop-color="#0756ED"/>
</linearGradient>
<linearGradient id="paint3_linear_3_325" x1="858.985" y1="-292.032" x2="1035.51" y2="-312.129" gradientUnits="userSpaceOnUse">
<stop stop-color="#144EF5"/>
<stop offset="0.136364" stop-color="#2B46F5"/>
<stop offset="0.227273" stop-color="#3C3AF4"/>
<stop offset="0.272727" stop-color="#4534F2"/>
<stop offset="0.454545" stop-color="#4E2EF1"/>
<stop offset="0.727273" stop-color="#4A34F2"/>
<stop offset="0.863636" stop-color="#4E38F0"/>
<stop offset="0.954545" stop-color="#4A3AF0"/>
<stop offset="1" stop-color="#4E38F0"/>
</linearGradient>
<linearGradient id="paint4_linear_3_325" x1="567.448" y1="427.288" x2="674.231" y2="512.418" gradientUnits="userSpaceOnUse">
<stop stop-color="#111091"/>
<stop offset="0.0454545" stop-color="#12118F"/>
<stop offset="0.0909091" stop-color="#190F92"/>
<stop offset="0.136364" stop-color="#191199"/>
<stop offset="0.227273" stop-color="#2017AD"/>
<stop offset="0.272727" stop-color="#2B1BB7"/>
<stop offset="0.318182" stop-color="#2B1DBE"/>
<stop offset="0.954545" stop-color="#4F2BE5"/>
<stop offset="1" stop-color="#502CE7"/>
</linearGradient>
<radialGradient id="paint5_radial_3_325" cx="0" cy="0" r="1" gradientTransform="matrix(15.0231 54.1547 324.928 -90.1384 970.406 621.457)" gradientUnits="userSpaceOnUse">
<stop stop-color="#623EE5"/>
<stop offset="0.629615" stop-color="#623EE5"/>
<stop offset="0.831643" stop-color="#562FE5"/>
<stop offset="0.932657" stop-color="#4C25E1"/>
<stop offset="1" stop-color="#4B21DC"/>
</radialGradient>
<radialGradient id="paint6_radial_3_325" cx="0" cy="0" r="1" gradientUnits="userSpaceOnUse" gradientTransform="translate(755.708 637.147) rotate(89.0849) scale(20.0103 120.061)">
<stop stop-color="#522BE4"/>
<stop offset="0.00821977" stop-color="#522BE4"/>
<stop offset="0.368867" stop-color="#5330E5"/>
<stop offset="0.684434" stop-color="#5F3BE5"/>
<stop offset="0.864757" stop-color="#603CE6"/>
<stop offset="0.954919" stop-color="#5F3DEA"/>
<stop offset="1" stop-color="#623CE9"/>
</radialGradient>
<linearGradient id="paint7_linear_3_325" x1="415.922" y1="-384.337" x2="455.144" y2="-398.01" gradientUnits="userSpaceOnUse">
<stop stop-color="#120795"/>
<stop offset="0.0952381" stop-color="#170B95"/>
<stop offset="0.629808" stop-color="#2615AF"/>
<stop offset="0.904762" stop-color="#2E1ABD"/>
<stop offset="1" stop-color="#311BC1"/>
</linearGradient>
<linearGradient id="paint8_linear_3_325" x1="415.922" y1="-384.337" x2="455.144" y2="-398.01" gradientUnits="userSpaceOnUse">
<stop stop-color="#120795"/>
<stop offset="0.0952381" stop-color="#170B95"/>
<stop offset="0.629808" stop-color="#2615AF"/>
<stop offset="0.904762" stop-color="#2E1ABD"/>
<stop offset="1" stop-color="#311BC1"/>
</linearGradient>
<radialGradient id="paint9_radial_3_325" cx="0" cy="0" r="1" gradientUnits="userSpaceOnUse" gradientTransform="translate(284.724 971.501) scale(858.394 858.394)">
<stop stop-color="#442EE9"/>
<stop offset="0.0717379" stop-color="#442EE9"/>
<stop offset="0.113932" stop-color="#3E31EC"/>
<stop offset="0.409288" stop-color="#2147EE"/>
<stop offset="0.451482" stop-color="#2448EF"/>
<stop offset="0.493675" stop-color="#3940EC"/>
<stop offset="0.578063" stop-color="#3541EC"/>
<stop offset="0.66245" stop-color="#3348ED"/>
<stop offset="0.704644" stop-color="#264EED"/>
<stop offset="0.789031" stop-color="#0655EF"/>
<stop offset="0.915613" stop-color="#005BF0"/>
<stop offset="1" stop-color="#005CF0"/>
</radialGradient>
<linearGradient id="paint10_linear_3_325" x1="415.898" y1="-384.349" x2="455.123" y2="-398.023" gradientUnits="userSpaceOnUse">
<stop stop-color="#120795"/>
<stop offset="0.0952381" stop-color="#170B95"/>
<stop offset="0.904762" stop-color="#2E1ABD"/>
<stop offset="1" stop-color="#311BC1"/>
</linearGradient>
<linearGradient id="paint11_linear_3_325" x1="415.937" y1="-384.298" x2="455.158" y2="-397.97" gradientUnits="userSpaceOnUse">
<stop stop-color="#120795"/>
<stop offset="0.0952381" stop-color="#170B95"/>
<stop offset="0.904762" stop-color="#2E1ABD"/>
<stop offset="1" stop-color="#311BC1"/>
</linearGradient>
<linearGradient id="paint12_linear_3_325" x1="415.922" y1="-384.349" x2="455.145" y2="-398.021" gradientUnits="userSpaceOnUse">
<stop stop-color="#120795"/>
<stop offset="0.0952381" stop-color="#170B95"/>
<stop offset="0.904762" stop-color="#2E1ABD"/>
<stop offset="1" stop-color="#311BC1"/>
</linearGradient>
<radialGradient id="paint13_radial_3_325" cx="0" cy="0" r="1" gradientUnits="userSpaceOnUse" gradientTransform="translate(792.032 372.999) scale(119.821 119.829)">
<stop stop-color="#321FC6"/>
<stop offset="0.157345" stop-color="#321FC6"/>
<stop offset="0.297788" stop-color="#4023D7"/>
<stop offset="0.344602" stop-color="#4124D8"/>
<stop offset="0.672301" stop-color="#3A24D5"/>
<stop offset="1" stop-color="#4A22E1"/>
</radialGradient>
<radialGradient id="paint14_radial_3_325" cx="0" cy="0" r="1" gradientUnits="userSpaceOnUse" gradientTransform="translate(268.98 804.445) rotate(-39.4101) scale(855.074 533.638)">
<stop stop-color="white"/>
<stop offset="0.475962" stop-color="white"/>
<stop offset="0.557692" stop-color="#522BE4"/>
<stop offset="0.928949" stop-color="#4E38F0"/>
<stop offset="1" stop-color="#120795"/>
</radialGradient>
<linearGradient id="paint15_linear_3_325" x1="681.724" y1="-68.3625" x2="811.339" y2="-52.9474" gradientUnits="userSpaceOnUse">
<stop stop-color="#2837E6"/>
<stop offset="0.136364" stop-color="#2C37EA"/>
<stop offset="0.363636" stop-color="#3A37EC"/>
<stop offset="0.454545" stop-color="#3739ED"/>
<stop offset="0.545455" stop-color="#4234EC"/>
<stop offset="0.636364" stop-color="#4235EB"/>
<stop offset="0.772727" stop-color="#462FEA"/>
<stop offset="0.909091" stop-color="#402EEB"/>
<stop offset="1" stop-color="#4530F0"/>
</linearGradient>
<radialGradient id="paint16_radial_3_325" cx="0" cy="0" r="1" gradientUnits="userSpaceOnUse" gradientTransform="translate(47.5394 1122.69) scale(32.3974 32.3975)">
<stop stop-color="#061B39"/>
<stop offset="0.371308" stop-color="#061B39"/>
<stop offset="0.461122" stop-color="#091A39"/>
<stop offset="0.550935" stop-color="#0A1B38"/>
<stop offset="0.730561" stop-color="#0D1A32"/>
<stop offset="0.820374" stop-color="#0E1930"/>
<stop offset="0.910187" stop-color="#0D172C"/>
<stop offset="1" stop-color="#0D172B"/>
</radialGradient>
<radialGradient id="paint17_radial_3_325" cx="0" cy="0" r="1" gradientUnits="userSpaceOnUse" gradientTransform="translate(260.111 1104.93) scale(87.2108 87.211)">
<stop stop-color="#071537"/>
<stop offset="0.0519333" stop-color="#071537"/>
<stop offset="0.0931536" stop-color="#081631"/>
<stop offset="0.134374" stop-color="#071530"/>
<stop offset="0.175594" stop-color="#071530"/>
<stop offset="0.258035" stop-color="#09172F"/>
<stop offset="0.299255" stop-color="#051530"/>
<stop offset="0.340475" stop-color="#081129"/>
<stop offset="0.381696" stop-color="#051531"/>
<stop offset="0.422916" stop-color="#051531"/>
<stop offset="0.464136" stop-color="#06122C"/>
<stop offset="0.505356" stop-color="#051531"/>
<stop offset="0.587797" stop-color="#041430"/>
<stop offset="0.670238" stop-color="#051531"/>
<stop offset="0.711458" stop-color="#061633"/>
<stop offset="0.793899" stop-color="#061632"/>
<stop offset="0.835119" stop-color="#041734"/>
<stop offset="0.876339" stop-color="#061632"/>
<stop offset="0.95878" stop-color="#041734"/>
<stop offset="1" stop-color="#051735"/>
</radialGradient>
<radialGradient id="paint18_radial_3_325" cx="0" cy="0" r="1" gradientUnits="userSpaceOnUse" gradientTransform="translate(397.092 1118.17) scale(87.2107 87.2109)">
<stop stop-color="#071530"/>
<stop offset="0.0499384" stop-color="#071530"/>
<stop offset="0.132552" stop-color="#09162B"/>
<stop offset="0.173859" stop-color="#0D182C"/>
<stop offset="0.215167" stop-color="#0A172C"/>
<stop offset="0.256474" stop-color="#081631"/>
<stop offset="0.297781" stop-color="#0E172E"/>
<stop offset="0.339088" stop-color="#071636"/>
<stop offset="0.380395" stop-color="#0A1732"/>
<stop offset="0.421702" stop-color="#0A1732"/>
<stop offset="0.463009" stop-color="#061737"/>
<stop offset="0.545623" stop-color="#061633"/>
<stop offset="0.58693" stop-color="#071839"/>
<stop offset="0.628237" stop-color="#021639"/>
<stop offset="0.669544" stop-color="#051636"/>
<stop offset="0.710851" stop-color="#071839"/>
<stop offset="0.752158" stop-color="#071839"/>
<stop offset="0.793465" stop-color="#021739"/>
<stop offset="0.834772" stop-color="#061738"/>
<stop offset="0.876079" stop-color="#021739"/>
<stop offset="0.917386" stop-color="#031538"/>
<stop offset="0.958693" stop-color="#031538"/>
<stop offset="1" stop-color="#03133A"/>
</radialGradient>
</defs>
</svg>
