<svg width="477" height="555" viewBox="0 0 477 555" fill="none" xmlns="http://www.w3.org/2000/svg">
<rect width="477" height="555" fill="transparent"/>
<path fill-rule="evenodd" clip-rule="evenodd" d="M29.6658 498.528C92.3783 435.926 110.578 417.532 110.57 417.265C110.565 417.101 110.56 416.941 110.556 416.776C125.629 401.781 140.702 386.785 155.778 371.79C170.853 356.795 185.924 341.799 201 326.804C201.413 326.991 201.831 327.173 202.245 327.359C203.009 327.702 203.818 328.644 204.347 329.804C205.178 331.634 205.205 333.273 205.209 382.565C205.209 399.524 205.214 416.479 205.214 433.437C201.845 436.845 198.476 440.253 195.107 443.657C136.645 502.78 129.502 509.822 125.84 511.99C118.732 516.198 110.55 519.095 102.111 520.387C99.4142 520.801 92.4174 520.966 77.6666 520.966C57.4881 520.966 56.9104 520.938 53.222 519.939C48.5397 518.673 43.1332 516.052 39.8016 513.43C35.9331 510.386 33.032 506.121 29.6658 498.528Z" fill="url(#paint0_linear_4_2)"/>
<path fill-rule="evenodd" clip-rule="evenodd" d="M408.708 462.135C410.726 465.076 409.348 469.915 405.966 471.768C404.65 472.487 400.21 472.545 338.557 472.67C302.254 472.741 271.667 472.674 270.583 472.518C268.165 472.172 265.974 470.163 265.281 467.658C264.285 464.041 266.521 459.949 270.014 459.011C271.272 458.674 291.636 458.563 338.481 458.647C360.707 458.683 382.934 458.723 405.157 458.763C405.575 459.074 405.997 459.381 406.414 459.691C407.104 460.202 408.135 461.304 408.708 462.135Z" fill="url(#paint1_radial_4_2)"/>
<path fill-rule="evenodd" clip-rule="evenodd" d="M408.992 423.663C409.926 425.387 409.654 428.866 408.468 430.47C407.983 431.127 406.921 432.114 406.108 432.669C405.614 433.002 405.121 433.34 404.628 433.673C386.245 433.633 367.863 433.593 349.481 433.557C331.098 433.517 312.716 433.477 294.334 433.437C293.867 433.105 293.405 432.775 292.939 432.442C291.445 431.375 290.111 428.639 290.111 426.635C290.111 424.929 291.859 421.677 293.365 420.579C294.614 419.668 294.912 419.664 348.921 419.531C385.218 419.446 403.748 419.553 404.806 419.86C406.526 420.357 407.868 421.575 408.992 423.663Z" fill="url(#paint2_radial_4_2)"/>
<path fill-rule="evenodd" clip-rule="evenodd" d="M294.711 211.952C294.587 211.952 294.489 212.052 294.489 212.174C294.489 212.297 294.587 212.397 294.711 212.397C294.836 212.397 294.934 212.297 294.934 212.174C294.934 212.052 294.836 211.952 294.711 211.952Z" fill="url(#paint3_linear_4_2)"/>
<path fill-rule="evenodd" clip-rule="evenodd" d="M290.6 267.379C293.529 270.756 336.729 321.29 345.603 325.726C345.603 319.072 347.79 158.244 347.822 156.858C347.07 155.308 342.424 158.939 314.454 189.293C296.582 208.081 291.054 214.115 290.005 215.961C289.489 216.863 289.356 221.449 289.267 241.388C289.232 249.496 289.192 257.605 289.155 265.713C289.635 266.268 290.12 266.823 290.6 267.379ZM294.489 212.174C294.489 212.052 294.587 211.952 294.711 211.952C294.836 211.952 294.934 212.052 294.934 212.174C294.934 212.297 294.836 212.397 294.711 212.397C294.587 212.397 294.489 212.297 294.489 212.174Z" fill="url(#paint4_linear_4_2)"/>
<path fill-rule="evenodd" clip-rule="evenodd" d="M27 85.3245C27.1677 84.7691 27.3355 84.2137 27.5041 83.6584C30.013 75.3631 34.0439 71.1543 41.6504 68.8902C44.4966 68.0429 45.9006 67.9968 68.9039 67.9968C83.7487 67.9968 94.488 68.1822 96.5869 68.4741C105.382 69.6966 117.274 76.1545 123.223 82.938C124.689 84.6103 128.186 88.4882 131.001 91.5553C133.814 94.6223 140.822 102.322 146.587 108.667C152.347 115.012 162.146 125.792 168.365 132.623C174.578 139.455 182.765 148.472 186.556 152.662C190.347 156.853 196.734 163.86 200.752 168.233C210.351 178.685 268.152 242.239 278.112 253.296C282.388 258.045 286.841 262.881 290.111 266.156C290.592 266.712 291.076 267.267 291.556 267.823C294.485 271.2 311.903 290.138 319.445 298.147C321.41 300.331 323.37 302.514 325.334 304.699C328.575 308.303 332.374 312.4 336.335 316.363C336.335 316.47 336.335 316.581 336.335 316.687C336.335 316.87 337.885 318.576 339.779 320.486C341.672 322.393 342.623 323.197 341.89 322.268C341.446 321.708 341.001 321.144 340.556 320.584C341.152 321.117 341.743 321.65 342.334 322.188C344.326 323.983 345.654 324.619 345.694 323.792C345.712 323.495 345.917 323.734 346.152 324.321C346.552 325.321 345.463 326.516 330.459 341.551C321.592 350.433 309.534 362.584 303.668 368.547C297.801 374.509 292.401 379.681 291.667 380.036C290.934 380.392 288.934 380.916 287.223 381.2C284.463 381.663 283.792 381.623 281.33 380.854C278.258 379.899 279.25 380.801 266.596 367.459C260.276 360.794 253.548 353.596 236.334 335.104C233.032 331.558 229.334 327.418 228.112 325.903C226.89 324.387 224.49 321.882 222.778 320.335C219.391 317.269 218.112 315.826 218.112 315.066C218.112 314.795 217.711 314.577 216.334 314.586C210.214 308.033 204.094 301.479 197.974 294.925C182.573 278.435 171.107 266.074 155.422 249.06C130.182 221.681 111.36 201.548 110.801 201.326C110.475 201.197 110.367 233.759 110.556 416.776C110.56 416.941 110.566 417.101 110.57 417.265C110.578 417.532 92.3785 435.926 29.666 498.528C29.2586 497.382 28.8513 496.231 28.4439 495.085C28.0366 493.938 27.6292 492.788 27.2219 491.642C27.1473 356.204 27.0737 220.763 27 85.3245Z" fill="url(#paint5_radial_4_2)"/>
<path fill-rule="evenodd" clip-rule="evenodd" d="M320.112 297.702C320.237 297.702 320.334 297.803 320.334 297.925C320.334 298.047 320.237 298.147 320.112 298.147C319.987 298.147 319.89 298.047 319.89 297.925C319.89 297.803 319.987 297.702 320.112 297.702Z" fill="url(#paint6_linear_4_2)"/>
<path fill-rule="evenodd" clip-rule="evenodd" d="M320.556 298.147C320.681 298.147 320.779 298.247 320.779 298.369C320.779 298.491 320.681 298.591 320.556 298.591C320.432 298.591 320.334 298.491 320.334 298.369C320.334 298.247 320.432 298.147 320.556 298.147Z" fill="url(#paint7_linear_4_2)"/>
<path fill-rule="evenodd" clip-rule="evenodd" d="M321.001 298.591C321.125 298.591 321.223 298.691 321.223 298.813C321.223 298.935 321.125 299.036 321.001 299.036C320.877 299.036 320.779 298.935 320.779 298.813C320.779 298.691 320.877 298.591 321.001 298.591Z" fill="url(#paint8_linear_4_2)"/>
<path fill-rule="evenodd" clip-rule="evenodd" d="M295.667 212.396C295.792 212.396 295.89 212.495 295.89 212.618C295.89 212.74 295.792 212.841 295.667 212.841C295.543 212.841 295.445 212.74 295.445 212.618C295.445 212.495 295.543 212.396 295.667 212.396Z" fill="url(#paint9_radial_4_2)"/>
<path fill-rule="evenodd" clip-rule="evenodd" d="M225.794 510.022C220.124 510.022 222.088 522.022 225.794 522.863C239.788 522.823 341.027 522.974 358.391 522.863C375.678 522.751 392.957 522.64 406.888 522.6C408.021 522.297 409.152 521.993 410.283 521.69C410.923 521.518 411.563 521.346 412.203 521.174C431.212 516.078 444.528 501.305 449.173 480.174C449.968 476.557 449.999 471.301 449.999 339.569C449.999 207.359 450.087 201.268 448.472 195.667C448.307 195.096 448.125 194.531 447.923 193.837C444.528 182.154 435.612 170.982 424.666 164.682C419.168 161.517 413.159 159.501 406.333 158.529C405.795 158.453 403.528 158.377 401.261 158.3C398.994 158.223 396.727 158.147 396.19 158.071C395.301 158.426 393.875 158.366 391.209 158.255C389.219 158.172 386.539 158.06 382.878 158.071C382.576 158.072 382.282 158.072 381.994 158.073C371.304 158.103 369.421 158.108 369.421 159.493V166.031V174.46C370.895 174.46 372.628 174.45 374.54 174.439C387.32 174.365 408.137 174.244 413.692 176.762C423.439 181.179 431.217 190.984 433.403 201.612C433.892 203.987 433.999 228.582 433.999 340.013C433.999 467.107 433.95 475.713 433.23 478.521C429.372 493.507 420.164 503.38 405.777 507.943C403.199 508.761 400.693 509.2 397.888 509.329L393.777 509.516V509.729C393.777 509.845 379.586 509.978 362.238 510.022H225.794Z" fill="url(#paint10_radial_4_2)"/>
<path fill-rule="evenodd" clip-rule="evenodd" d="M266.221 90.0923C266.776 89.9388 267.332 89.7844 267.887 89.631C286.505 84.4746 296.314 77.5022 302.558 64.9892C305.741 58.6094 307.7 52.1915 310.221 39.8861C310.385 39.5898 310.55 39.2935 310.71 38.9972C310.981 38.5083 311.483 38.1091 312.443 38.1091C312.817 40.0715 313.189 42.0331 313.563 43.9956C316.496 59.4594 320.283 67.8114 327.732 75.2522C335.301 82.8164 343.586 86.7006 362.221 91.4249C362.212 91.5367 362.207 91.6476 362.199 91.7585C362.185 91.9421 362.386 92.2411 363.11 92.7583C362.63 92.8417 362.145 92.926 361.665 93.0103C339.47 96.8776 325.541 105.998 318.959 120.973C316.803 125.876 314.945 132.41 312.443 143.853C312.145 144.015 311.852 144.177 311.554 144.339C311.066 144.607 310.666 145.106 310.666 146.075C310.519 145.223 310.372 144.372 310.221 143.52C308.866 135.702 305.421 124.488 302.643 118.843C299.181 111.81 295.398 107.582 288.567 103.109C282.336 99.0308 277.732 97.189 264.888 93.6464C264.794 93.327 264.705 93.0076 264.612 92.6882C264.425 92.0264 264.63 91.4763 266.221 90.0923Z" fill="url(#paint11_linear_4_2)"/>
<path fill-rule="evenodd" clip-rule="evenodd" d="M312.443 38.1091C311.483 38.1091 310.98 38.5083 310.71 38.9972C310.55 39.2935 310.385 39.5898 310.221 39.8861C310.367 38.4054 310.514 36.9238 310.665 35.4431C310.905 32.9989 311.279 31 311.487 31C311.701 31 311.998 32.5996 312.443 38.1091Z" fill="var(--primary)"/>
<defs>
<linearGradient id="paint0_linear_4_2" x1="204.6" y1="279.966" x2="278.6" y2="338.979" gradientUnits="userSpaceOnUse">
<stop stop-color="var(--primary-dark)"/>
<stop offset="0.0454545" stop-color="var(--primary-dark)"/>
<stop offset="0.0909091" stop-color="var(--primary-dark)"/>
<stop offset="0.136364" stop-color="var(--primary-dark)"/>
<stop offset="0.227273" stop-color="var(--primary-dark)"/>
<stop offset="0.272727" stop-color="var(--primary)"/>
<stop offset="0.318182" stop-color="var(--primary)"/>
<stop offset="0.954545" stop-color="var(--primary)"/>
<stop offset="1" stop-color="var(--primary)"/>
</linearGradient>
<radialGradient id="paint1_radial_4_2" cx="0" cy="0" r="1" gradientTransform="matrix(10.4135 37.526 225.228 -62.4607 483.916 414.514)" gradientUnits="userSpaceOnUse">
<stop stop-color="var(--primary)"/>
<stop offset="0.629615" stop-color="var(--primary)"/>
<stop offset="0.831643" stop-color="var(--primary)"/>
<stop offset="0.932657" stop-color="var(--primary)"/>
<stop offset="1" stop-color="var(--primary)"/>
</radialGradient>
<radialGradient id="paint2_radial_4_2" cx="0" cy="0" r="1" gradientTransform="matrix(0.221533 13.8642 83.2114 -1.32878 335.095 425.386)" gradientUnits="userSpaceOnUse">
<stop stop-color="var(--primary)"/>
<stop offset="0.00821977" stop-color="var(--primary)"/>
<stop offset="0.368867" stop-color="var(--primary)"/>
<stop offset="0.684434" stop-color="var(--primary)"/>
<stop offset="0.864757" stop-color="var(--primary)"/>
<stop offset="0.954919" stop-color="var(--primary)"/>
<stop offset="1" stop-color="var(--primary)"/>
</radialGradient>
<linearGradient id="paint3_linear_4_2" x1="99.5678" y1="-282.443" x2="126.754" y2="-291.923" gradientUnits="userSpaceOnUse">
<stop stop-color="var(--primary-dark)"/>
<stop offset="0.0952381" stop-color="var(--primary-dark)"/>
<stop offset="0.629808" stop-color="var(--primary-dark)"/>
<stop offset="0.904762" stop-color="var(--primary)"/>
<stop offset="1" stop-color="var(--primary)"/>
</linearGradient>
<linearGradient id="paint4_linear_4_2" x1="99.5678" y1="-282.443" x2="126.754" y2="-291.923" gradientUnits="userSpaceOnUse">
<stop stop-color="var(--primary-dark)"/>
<stop offset="0.0952381" stop-color="var(--primary-dark)"/>
<stop offset="0.629808" stop-color="var(--primary-dark)"/>
<stop offset="0.904762" stop-color="var(--primary)"/>
<stop offset="1" stop-color="var(--primary)"/>
</linearGradient>
<radialGradient id="paint5_radial_4_2" cx="0" cy="0" r="1" gradientUnits="userSpaceOnUse" gradientTransform="translate(8.62663 657.074) scale(595.007 594.817)">
<stop stop-color="var(--primary)"/>
<stop offset="0.0717379" stop-color="var(--primary)"/>
<stop offset="0.113932" stop-color="var(--primary)"/>
<stop offset="0.409288" stop-color="var(--primary)"/>
<stop offset="0.451482" stop-color="var(--primary)"/>
<stop offset="0.493675" stop-color="var(--primary)"/>
<stop offset="0.578063" stop-color="var(--primary)"/>
<stop offset="0.66245" stop-color="var(--primary)"/>
<stop offset="0.704644" stop-color="var(--primary)"/>
<stop offset="0.789031" stop-color="var(--primary)"/>
<stop offset="0.915613" stop-color="var(--primary)"/>
<stop offset="1" stop-color="var(--primary)"/>
</radialGradient>
<linearGradient id="paint6_linear_4_2" x1="99.5512" y1="-282.451" x2="126.739" y2="-291.932" gradientUnits="userSpaceOnUse">
<stop stop-color="var(--primary-dark)"/>
<stop offset="0.0952381" stop-color="var(--primary-dark)"/>
<stop offset="0.904762" stop-color="var(--primary)"/>
<stop offset="1" stop-color="var(--primary)"/>
</linearGradient>
<linearGradient id="paint7_linear_4_2" x1="99.5783" y1="-282.416" x2="126.763" y2="-291.895" gradientUnits="userSpaceOnUse">
<stop stop-color="var(--primary-dark)"/>
<stop offset="0.0952381" stop-color="var(--primary-dark)"/>
<stop offset="0.904762" stop-color="var(--primary)"/>
<stop offset="1" stop-color="var(--primary)"/>
</linearGradient>
<linearGradient id="paint8_linear_4_2" x1="99.568" y1="-282.451" x2="126.754" y2="-291.931" gradientUnits="userSpaceOnUse">
<stop stop-color="var(--primary-dark)"/>
<stop offset="0.0952381" stop-color="var(--primary-dark)"/>
<stop offset="0.904762" stop-color="var(--primary)"/>
<stop offset="1" stop-color="var(--primary)"/>
</linearGradient>
<radialGradient id="paint9_radial_4_2" cx="0" cy="0" r="1" gradientUnits="userSpaceOnUse" gradientTransform="translate(360.274 242.346) scale(83.0558 83.0343)">
<stop stop-color="var(--primary)"/>
<stop offset="0.157345" stop-color="var(--primary)"/>
<stop offset="0.297788" stop-color="var(--primary)"/>
<stop offset="0.344602" stop-color="var(--primary)"/>
<stop offset="0.672301" stop-color="var(--primary)"/>
<stop offset="1" stop-color="var(--primary)"/>
</radialGradient>
<radialGradient id="paint10_radial_4_2" cx="0" cy="0" r="1" gradientTransform="matrix(457.937 -376.169 234.836 285.7 -2.28664 541.314)" gradientUnits="userSpaceOnUse">
<stop stop-color="white"/>
<stop offset="0.475962" stop-color="white"/>
<stop offset="0.557692" stop-color="var(--primary)"/>
<stop offset="0.928949" stop-color="var(--primary)"/>
<stop offset="1" stop-color="var(--primary-dark)"/>
</radialGradient>
<linearGradient id="paint11_linear_4_2" x1="283.812" y1="-63.4913" x2="373.656" y2="-52.8028" gradientUnits="userSpaceOnUse">
<stop stop-color="var(--primary)"/>
<stop offset="0.136364" stop-color="var(--primary)"/>
<stop offset="0.363636" stop-color="var(--primary)"/>
<stop offset="0.454545" stop-color="var(--primary)"/>
<stop offset="0.545455" stop-color="var(--primary)"/>
<stop offset="0.636364" stop-color="var(--primary)"/>
<stop offset="0.772727" stop-color="var(--primary)"/>
<stop offset="0.909091" stop-color="var(--primary)"/>
<stop offset="1" stop-color="var(--primary)"/>
</linearGradient>
</defs>
</svg>
