<svg width="2124" height="555" viewBox="0 0 2124 555" fill="none" xmlns="http://www.w3.org/2000/svg">
<rect width="2124" height="555" fill="transparent"/>
<path fill-rule="evenodd" clip-rule="evenodd" d="M316.874 46.9235C327.786 46.9235 338.698 46.9235 349.61 46.9235C349.61 103.942 349.61 160.949 349.61 217.968C349.61 274.987 349.61 331.996 349.61 389.015C338.614 388.992 327.618 388.981 316.622 388.958C305.626 388.947 294.631 388.924 283.635 388.913C281.835 386.559 280.032 384.206 278.232 381.855C216.299 301.037 187.949 264.032 178.352 251.496C164.416 233.289 127.676 185.965 109.636 162.985C105.36 157.541 101.084 152.085 96.8077 146.641C96.7075 187.034 96.6072 227.436 96.5093 267.827C96.4114 308.22 96.3111 348.622 96.2132 389.015C85.511 389.015 74.8088 389.015 64.1066 389.015C53.4044 389.015 42.7022 389.015 32 389.015C32 331.996 32 274.987 32 217.968C32 160.949 32 103.942 32 46.9235C43.0263 46.9235 54.0526 46.9235 65.0789 46.9235C76.1052 46.9235 87.1338 46.9235 98.1601 46.9235C107.249 58.5723 116.335 70.2234 125.424 81.8722C177.184 148.209 269.873 268.691 280.179 283.011C282.079 285.648 283.898 287.829 284.22 287.841C284.541 287.852 284.653 233.652 284.469 167.394C284.36 127.242 284.25 87.076 284.138 46.9235C295.05 46.9235 305.962 46.9235 316.874 46.9235Z" fill="#030F35"/>
<path fill-rule="evenodd" clip-rule="evenodd" d="M686.989 251.814C688.343 265.43 688.348 269.123 687.028 280.476C682.624 318.335 662.532 350.998 631.167 371.284C605.141 388.116 580.965 394.457 547.632 393.22C528.678 392.514 518.477 390.594 501.507 384.569C458.314 369.228 427.044 332.132 420.234 288.149C409.17 216.706 455.043 154.189 527.547 141.88C541.003 139.594 566.905 139.594 580.361 141.88C616.62 148.027 650.084 169.462 668.219 198.147C678.035 213.672 685.249 234.29 686.989 251.814ZM481.609 244.813C478.751 255.429 478.471 276.09 481.04 286.729C486.664 310.026 505.667 330.222 528.759 337.438C541.355 341.371 560.509 342.395 571.468 339.712C584.877 336.428 595.619 330.483 605.431 320.926C616.042 310.594 621.99 300.685 625.347 287.761C628.602 275.239 627.98 253.793 624.028 242.405C615.342 217.367 595.99 199.763 570.885 194.035C558.842 191.296 539.783 192.215 528.489 196.102C505.693 203.934 487.529 222.811 481.609 244.813Z" fill="#031036"/>
<path fill-rule="evenodd" clip-rule="evenodd" d="M953.218 144.664C964.113 144.664 975.007 144.664 985.902 144.664C984.711 147.222 983.52 149.777 982.328 152.335C977.413 162.917 959.42 203.251 934.045 260.587C922.286 287.16 905.286 325.563 896.27 345.951C887.244 366.342 879.515 384.376 879.083 386.035C878.827 387.036 878.568 388.048 878.312 389.049C868.013 388.947 857.714 388.843 847.415 388.752C837.128 388.65 826.829 388.548 816.53 388.445C812.524 379.354 808.519 370.261 804.527 361.17C797.917 346.167 787.385 322.392 781.115 308.322C774.843 294.252 760.914 262.805 750.16 238.427C716.638 162.484 712.549 153.313 710.264 148.926C709.522 147.506 708.781 146.085 708.039 144.664C719.045 144.676 730.048 144.698 741.051 144.71C752.051 144.721 763.061 144.732 774.062 144.755C777.249 152.596 780.437 160.439 783.612 168.291C788.868 181.238 803.487 216.377 816.087 246.381C828.685 276.385 840.924 305.662 843.269 311.447C847.264 321.278 849.376 324.312 849.376 320.209C849.376 319.256 865.082 280.261 884.278 233.55C903.463 186.852 919.472 147.744 919.847 146.652C920.477 144.823 923.128 144.664 953.218 144.664Z" fill="#031036"/>
<path fill-rule="evenodd" clip-rule="evenodd" d="M1274.7 144.38C1275.18 144.607 1275.58 199.752 1275.58 266.908C1275.58 307.605 1275.58 348.315 1275.58 389.015C1265.65 389.015 1255.73 389.015 1245.8 389.015C1235.88 389.015 1225.95 389.015 1216.03 389.015C1216.03 383.684 1216.03 378.353 1216.03 373.022C1216.03 367.694 1216.03 362.363 1216.03 357.044C1213.5 359.533 1210.98 362.023 1208.47 364.51C1195.57 377.25 1179.58 386.071 1161.96 390.161C1129.37 397.743 1092.5 391.491 1063.9 373.558C1053.94 367.317 1038.7 352.691 1031.71 342.667C1003.88 302.775 1000.74 245.496 1024.11 203.762C1037.1 180.532 1061.3 158.757 1084.55 149.323C1101.49 142.47 1111.54 140.743 1134.29 140.788C1157.41 140.833 1166.05 142.47 1181.67 149.788C1192.24 154.733 1206.25 165.427 1211.51 172.541C1212.82 174.327 1214.14 176.1 1215.44 177.884C1215.55 172.394 1215.65 166.893 1215.77 161.406C1215.87 155.904 1215.98 150.403 1216.08 144.914C1224.35 144.641 1232.61 144.369 1240.87 144.095C1264.16 143.334 1272.64 143.402 1274.7 144.38ZM1071.09 247.518C1068.57 257.44 1068.37 274.431 1070.65 285.024C1074.4 302.446 1087.08 320.561 1101.9 329.643C1111.32 335.416 1119.79 338.439 1131.38 340.143C1154.58 343.577 1178.21 336.142 1194.44 320.288C1207.78 307.253 1214.45 291.876 1215.68 271.362C1217.77 236.073 1198.14 206.149 1166.4 196.25C1154.06 192.396 1138.13 191.5 1126.12 193.978C1099.08 199.534 1078.08 219.97 1071.09 247.518Z" fill="#041136"/>
<path fill-rule="evenodd" clip-rule="evenodd" d="M1659.92 93.3169C1666.89 99.8164 1672.59 105.499 1672.59 105.955C1672.59 107.022 1630.75 143.55 1629.64 143.448C1629.19 143.414 1625.73 139.821 1621.98 135.491C1597.36 107.01 1551.54 91.76 1511.17 98.6136C1492.44 101.795 1472.97 109.863 1458.9 120.298C1450.37 126.616 1436.05 141.358 1430.48 149.562C1423.72 159.506 1417.07 174.157 1413.69 186.476C1411.04 196.171 1410.65 199.865 1410.56 216.833C1410.4 246.097 1415.54 264.112 1430.35 286.352C1442.99 305.31 1458.17 318.062 1480.2 328.211C1497.92 336.383 1508.27 338.394 1532.47 338.382C1550.09 338.371 1554.34 338.008 1563.34 335.723C1584.41 330.369 1603.63 319.449 1620.77 303.105C1624.14 299.889 1627.52 296.673 1630.89 293.455C1632.57 294.887 1634.24 296.319 1635.92 297.762C1638.69 300.127 1648.08 308.106 1656.78 315.493C1665.48 322.869 1672.59 329.473 1672.59 330.142C1672.59 332.291 1651.37 352.033 1641.28 359.272C1615.98 377.443 1589.26 387.388 1553.49 391.958C1509.5 397.573 1459.91 385.842 1424.25 361.408C1410.34 351.872 1389.87 331.801 1380.89 318.891C1366.93 298.831 1358.26 278.954 1352.45 253.654C1350.08 243.369 1349.74 238.892 1349.79 219.105C1349.83 199.91 1350.25 194.523 1352.48 184.442C1360.61 147.744 1376.38 118.832 1401.51 94.624C1422.82 74.0859 1446.07 60.5059 1476.02 51.072C1496.41 44.6632 1507.77 43.0474 1533.05 43.002C1551.97 42.9679 1557.12 43.3561 1567.98 45.605C1602.61 52.799 1633.87 69.0298 1659.92 93.3169Z" fill="url(#paint0_linear_4_212)"/>
<path fill-rule="evenodd" clip-rule="evenodd" d="M2017.77 46.9235C2047.99 46.9235 2049.95 47.0484 2049.2 48.9138C2048.77 50.0031 2043.23 64.1982 2036.91 80.4516C2030.59 96.7028 2017.98 128.674 2008.88 151.484C1999.78 174.293 1990.6 197.568 1988.46 203.194C1984.29 214.14 1979.69 225.822 1944.31 315.141C1931.8 346.713 1920.34 376.229 1918.82 380.752C1916.32 388.162 1915.71 389.026 1912.55 389.605C1910.62 389.957 1895.45 390.093 1878.85 389.911C1868.78 389.798 1858.72 389.696 1848.65 389.582C1848.13 388.252 1847.61 386.934 1847.09 385.604C1846.23 383.412 1840.29 368.068 1833.87 351.509C1793.71 247.79 1722.27 66.7217 1713.93 47.4931C1713.61 46.7533 1724.69 46.2654 1745.55 46.0952C1756.25 46.0158 1766.96 45.9227 1777.66 45.8319C1778.25 46.7192 1778.84 47.5952 1779.43 48.4689C1780.4 49.9123 1782.73 55.402 1784.58 60.6647C1786.43 65.9161 1793.2 84.0304 1799.63 100.908C1855.02 246.438 1874.59 298.026 1878.35 308.322C1880.27 313.641 1882 318.13 1882.16 318.3C1882.33 318.482 1883.66 315.414 1885.13 311.481C1886.6 307.559 1900.55 271.101 1916.13 230.47C1931.71 189.841 1947.17 149.437 1950.5 140.686C1953.83 131.935 1963.06 107.75 1971.04 86.9285C1979.01 66.1204 1985.53 48.6052 1985.53 48.0038C1985.53 47.3434 1998.07 46.9235 2017.77 46.9235Z" fill="url(#paint1_linear_4_212)"/>
<path fill-rule="evenodd" clip-rule="evenodd" d="M2089.99 499.717C2090.76 500.468 2091.39 502.15 2091.39 503.468C2091.39 506.684 2089.22 508.581 2085.56 508.581C2081.89 508.581 2079.72 506.684 2079.72 503.468C2079.72 500.253 2081.89 498.353 2085.56 498.353C2087.23 498.353 2089.22 498.968 2089.99 499.717Z" fill="#061738"/>
<path fill-rule="evenodd" clip-rule="evenodd" d="M932.179 467.052C934.795 473.213 932.738 480.475 926.888 485.804C924.167 488.282 922.486 488.702 913.926 489.044C910.646 489.18 907.377 489.317 904.096 489.453C904.096 492.816 904.096 496.193 904.096 499.556C904.096 502.931 904.096 506.296 904.096 509.671C902.543 509.671 900.977 509.671 899.424 509.671C897.871 509.671 896.306 509.671 894.753 509.671C894.753 500.954 894.753 492.249 894.753 483.532C894.753 474.815 894.753 466.11 894.753 457.391C898.549 457.391 902.343 457.391 906.15 457.391C912.409 457.391 919.322 457.892 921.516 458.505C925.92 459.733 930.684 463.564 932.179 467.052ZM921.81 467.233C920.268 465.869 917.501 465.347 911.884 465.347C909.291 465.347 906.687 465.347 904.096 465.347C904.096 468.189 904.096 471.03 904.096 473.871C904.096 476.712 904.096 479.554 904.096 482.395C906.384 482.395 908.662 482.395 910.949 482.395C919.94 482.395 923.946 479.622 923.946 473.395C923.946 470.689 923.164 468.416 921.81 467.233Z" fill="#09142E"/>
<path fill-rule="evenodd" clip-rule="evenodd" d="M1061.79 506.864C1064.38 508.432 1062.53 509.671 1057.61 509.671C1053.57 509.671 1052.12 509.183 1051.48 507.604C1051.01 506.455 1048.27 501.864 1045.38 497.398C1040.4 489.691 1039.91 489.271 1035.75 489.237C1034.29 489.237 1032.83 489.226 1031.37 489.215C1031.37 492.43 1031.37 495.657 1031.37 498.875C1031.37 502.091 1031.37 505.318 1031.37 508.534C1030.01 508.534 1028.65 508.534 1027.29 508.534C1025.92 508.534 1024.57 508.534 1023.2 508.534C1023.2 500.01 1023.2 491.486 1023.2 482.962C1023.2 474.438 1023.2 465.915 1023.2 457.391C1027.24 457.391 1031.28 457.391 1035.32 457.391C1054.7 457.391 1059.98 460.688 1059.98 472.78C1059.98 479.179 1059.61 480.35 1056.56 483.441C1054.68 485.35 1052.22 487.202 1051.07 487.556C1049.09 488.168 1049.09 488.361 1051.11 491.829C1054.29 497.318 1060.54 506.115 1061.79 506.864ZM1049.32 466.564C1046.94 464.746 1044.56 464.21 1038.81 464.21C1036.32 464.21 1033.85 464.21 1031.37 464.21C1031.37 467.244 1031.37 470.267 1031.37 473.304C1031.37 476.338 1031.37 479.361 1031.37 482.395C1033.92 482.395 1036.46 482.395 1039.02 482.395C1045.57 482.395 1047.07 481.998 1049.53 479.61C1053.55 475.689 1053.44 469.734 1049.32 466.564Z" fill="#061732"/>
<path fill-rule="evenodd" clip-rule="evenodd" d="M1106.69 457.391C1112.33 457.391 1117.98 457.391 1123.62 457.391C1123.62 458.528 1123.62 459.665 1123.62 460.802C1123.62 461.939 1123.62 463.073 1123.62 464.21C1119.33 464.21 1115.06 464.21 1110.77 464.21C1106.49 464.21 1102.22 464.21 1097.93 464.21C1097.93 466.859 1097.93 469.518 1097.93 472.167C1097.93 474.815 1097.93 477.475 1097.93 480.121C1101.39 480.121 1104.84 480.121 1108.31 480.121C1111.77 480.121 1115.22 480.121 1118.68 480.121C1118.85 481.258 1119.03 482.395 1119.19 483.532C1119.37 484.669 1119.54 485.804 1119.71 486.941C1116.08 486.941 1112.46 486.941 1108.83 486.941C1105.19 486.941 1101.56 486.941 1097.93 486.941C1097.93 490.544 1097.93 494.135 1097.93 497.738C1097.93 501.34 1097.93 504.933 1097.93 508.534C1096.56 508.534 1095.21 508.534 1093.84 508.534C1092.48 508.534 1091.12 508.534 1089.76 508.534C1089.76 500.01 1089.76 491.486 1089.76 482.962C1089.76 474.438 1089.76 465.915 1089.76 457.391C1095.4 457.391 1101.05 457.391 1106.69 457.391Z" fill="#0A162E"/>
<path fill-rule="evenodd" clip-rule="evenodd" d="M1167.99 457.391C1173.83 457.391 1179.67 457.391 1185.51 457.391C1185.51 458.721 1185.51 460.039 1185.51 461.369C1185.51 462.699 1185.51 464.017 1185.51 465.347C1181.22 465.347 1176.95 465.347 1172.66 465.347C1168.38 465.347 1164.1 465.347 1159.82 465.347C1159.82 467.621 1159.82 469.893 1159.82 472.167C1159.82 474.438 1159.82 476.712 1159.82 478.986C1163.32 478.986 1166.82 478.986 1170.33 478.986C1173.83 478.986 1177.33 478.986 1180.84 478.986C1180.84 480.316 1180.84 481.632 1180.84 482.962C1180.84 484.292 1180.84 485.611 1180.84 486.941C1177.33 486.941 1173.83 486.941 1170.33 486.941C1166.82 486.941 1163.32 486.941 1159.82 486.941C1159.82 489.214 1159.82 491.486 1159.82 493.76C1159.82 496.034 1159.82 498.306 1159.82 500.58C1164.1 500.58 1168.38 500.58 1172.66 500.58C1176.95 500.58 1181.22 500.58 1185.51 500.58C1185.51 501.91 1185.51 503.228 1185.51 504.558C1185.51 505.888 1185.51 507.204 1185.51 508.534C1182.64 508.534 1179.78 508.534 1176.92 508.534C1172.21 508.534 1164.33 508.865 1159.41 509.274C1156.43 509.512 1153.45 509.762 1150.48 510C1150.48 501.238 1150.48 492.464 1150.48 483.702C1150.48 474.929 1150.48 466.166 1150.48 457.391C1156.31 457.391 1162.15 457.391 1167.99 457.391Z" fill="#0A1430"/>
<path fill-rule="evenodd" clip-rule="evenodd" d="M1255.9 462.88C1257.89 464.562 1257.86 464.78 1255.09 467.462C1254.12 468.404 1253.16 469.348 1252.19 470.292C1250.62 469.223 1249.05 468.166 1247.47 467.108C1243.32 464.301 1241.98 463.995 1236.13 464.46C1230.15 464.95 1229.05 465.461 1224.88 469.825C1223.34 471.427 1221.79 473.041 1220.24 474.656C1220.43 477.679 1220.61 480.702 1220.79 483.725C1221.3 492.249 1221.56 493.02 1225.39 496.749C1228.79 500.055 1230.54 500.807 1236.08 501.363C1241.96 501.955 1243.24 501.682 1247.53 498.921C1249.13 497.886 1250.74 496.851 1252.36 495.816C1253.16 496.59 1253.96 497.375 1254.76 498.158C1257.14 500.477 1257.15 500.523 1254.91 502.953C1251.62 506.535 1243.33 509.671 1237.15 509.671C1230.19 509.671 1223.08 506.262 1217.31 500.171C1212.16 494.738 1210.44 487.68 1211.87 478.031C1212.9 471.143 1214.63 468.041 1220.48 462.529C1225.08 458.187 1225.65 457.983 1234.07 457.574C1243.21 457.118 1251.47 459.131 1255.9 462.88Z" fill="#07152F"/>
<path fill-rule="evenodd" clip-rule="evenodd" d="M1299.35 457.391C1305.78 457.391 1312.2 457.391 1318.62 457.391C1318.62 458.528 1318.62 459.665 1318.62 460.802C1318.62 461.939 1318.62 463.073 1318.62 464.21C1316.29 464.21 1313.95 464.21 1311.61 464.21C1309.28 464.21 1306.94 464.21 1304.61 464.21C1304.61 471.597 1304.61 478.986 1304.61 486.373C1304.61 493.76 1304.61 501.147 1304.61 508.534C1303.24 508.534 1301.89 508.534 1300.52 508.534C1299.16 508.534 1297.8 508.534 1296.44 508.534C1296.44 501.147 1296.44 493.76 1296.44 486.373C1296.44 478.986 1296.44 471.597 1296.44 464.21C1293.71 464.21 1290.98 464.21 1288.26 464.21C1285.54 464.21 1282.81 464.21 1280.09 464.21C1280.09 463.073 1280.09 461.939 1280.09 460.802C1280.09 459.665 1280.09 458.528 1280.09 457.391C1286.51 457.391 1292.93 457.391 1299.35 457.391Z" fill="#091532"/>
<path fill-rule="evenodd" clip-rule="evenodd" d="M1367.08 501.717C1371.17 501.717 1375.25 501.717 1379.34 501.717C1379.34 503.047 1379.34 504.363 1379.34 505.693C1379.34 507.022 1379.34 508.341 1379.34 509.671C1373.7 509.671 1368.05 509.671 1362.41 509.671C1356.77 509.671 1351.12 509.671 1345.48 509.671C1345.48 500.954 1345.48 492.249 1345.48 483.532C1345.48 474.815 1345.48 466.11 1345.48 457.391C1347.03 457.391 1348.6 457.391 1350.15 457.391C1351.7 457.391 1353.27 457.391 1354.82 457.391C1354.82 464.78 1354.82 472.167 1354.82 479.554C1354.82 486.941 1354.82 494.328 1354.82 501.717C1358.91 501.717 1362.99 501.717 1367.08 501.717Z" fill="#0D152E"/>
<path fill-rule="evenodd" clip-rule="evenodd" d="M1535.49 465.234C1537.25 467.78 1538.14 470.791 1538.14 474.064C1538.14 478.451 1537.52 479.656 1532.93 484.133C1531.19 485.826 1529.43 487.522 1527.69 489.215C1524.58 489.215 1521.45 489.215 1518.33 489.215C1515.2 489.215 1512.08 489.215 1508.95 489.215C1508.95 492.43 1508.95 495.657 1508.95 498.875C1508.95 502.091 1508.95 505.318 1508.95 508.534C1507.59 508.534 1506.23 508.534 1504.87 508.534C1503.5 508.534 1502.15 508.534 1500.78 508.534C1500.78 500.01 1500.78 491.486 1500.78 482.962C1500.78 474.438 1500.78 465.915 1500.78 457.391C1504.77 457.391 1508.75 457.391 1512.75 457.391C1526.53 457.391 1531.23 459.018 1535.49 465.234ZM1526.21 467.12C1524.59 466.005 1521.09 465.347 1516.87 465.347C1514.62 465.347 1512.38 465.347 1510.12 465.347C1510.12 467.996 1510.12 470.655 1510.12 473.304C1510.12 475.95 1510.12 478.61 1510.12 481.258C1512.59 481.258 1515.06 481.258 1517.52 481.258C1526.25 481.258 1528.8 479.384 1528.8 472.995C1528.8 470.04 1528.08 468.393 1526.21 467.12Z" fill="#0B172F"/>
<path fill-rule="evenodd" clip-rule="evenodd" d="M1600.2 502.817C1601.22 504.535 1602.25 506.251 1603.28 507.967C1601.84 508.08 1600.39 508.193 1598.96 508.307C1594.73 508.636 1594.51 508.454 1588.25 499.216C1582.68 490.987 1581.37 489.737 1578.1 489.43C1576.85 489.305 1575.59 489.192 1574.34 489.067C1574.34 492.498 1574.34 495.943 1574.34 499.375C1574.34 502.806 1574.34 506.24 1574.34 509.671C1572.79 509.671 1571.23 509.671 1569.67 509.671C1568.12 509.671 1566.56 509.671 1565 509.671C1565 500.954 1565 492.249 1565 483.532C1565 474.815 1565 466.11 1565 457.391C1568.9 457.391 1572.81 457.391 1576.71 457.391C1589.85 457.391 1594.14 458.653 1599.32 464.017C1602.5 467.301 1602.66 467.95 1602.05 474.507C1601.53 480.098 1600.74 482.157 1598.16 484.794C1596.38 486.6 1593.97 488.078 1592.8 488.078C1589.97 488.078 1590.13 488.851 1593.9 493.613C1595.67 495.839 1598.5 499.987 1600.2 502.817ZM1591.5 467.814C1589.31 465.835 1587.37 465.347 1581.57 465.347C1579.15 465.347 1576.75 465.347 1574.34 465.347C1574.34 468.189 1574.34 471.03 1574.34 473.871C1574.34 476.712 1574.34 479.554 1574.34 482.395C1576.46 482.395 1578.57 482.395 1580.67 482.395C1585.79 482.395 1587.7 481.828 1590.6 479.452C1595.01 475.848 1595.35 471.348 1591.5 467.814Z" fill="#07162E"/>
<path fill-rule="evenodd" clip-rule="evenodd" d="M1648.49 457.391C1654.13 457.391 1659.78 457.391 1665.42 457.391C1665.42 458.721 1665.42 460.039 1665.42 461.369C1665.42 462.699 1665.42 464.017 1665.42 465.347C1661.14 465.347 1656.86 465.347 1652.58 465.347C1648.29 465.347 1644.02 465.347 1639.73 465.347C1639.73 467.621 1639.73 469.893 1639.73 472.167C1639.73 474.438 1639.73 476.712 1639.73 478.986C1643.43 478.986 1647.13 478.986 1650.83 478.986C1654.53 478.986 1658.22 478.986 1661.92 478.986C1661.92 480.316 1661.92 481.632 1661.92 482.962C1661.92 484.292 1661.92 485.611 1661.92 486.941C1658.22 486.941 1654.53 486.941 1650.83 486.941C1647.13 486.941 1643.43 486.941 1639.73 486.941C1639.73 489.407 1639.73 491.863 1639.73 494.327C1639.73 496.794 1639.73 499.25 1639.73 501.717C1644.02 501.717 1648.29 501.717 1652.58 501.717C1656.86 501.717 1661.14 501.717 1665.42 501.717C1665.42 502.851 1665.42 503.988 1665.42 505.125C1665.42 506.262 1665.42 507.399 1665.42 508.534C1659.78 508.534 1654.13 508.534 1648.49 508.534C1642.85 508.534 1637.2 508.534 1631.56 508.534C1631.56 500.01 1631.56 491.486 1631.56 482.962C1631.56 474.438 1631.56 465.915 1631.56 457.391C1637.2 457.391 1642.85 457.391 1648.49 457.391Z" fill="#0C162B"/>
<path fill-rule="evenodd" clip-rule="evenodd" d="M1726.43 485.622C1730.54 489.317 1730.91 496.806 1727.22 501.853C1720.05 511.639 1700.38 512.195 1691.69 502.851C1689.43 500.421 1689.43 500.398 1692.31 498.249C1696.04 495.453 1696.53 495.487 1700.66 498.875C1707.64 504.592 1721.47 501.556 1721.47 494.305C1721.47 490.828 1718.49 488.645 1710.19 486.01C1696.13 481.542 1692.28 478.428 1692.28 471.552C1692.28 462.926 1699.25 457.368 1710.03 457.413C1716.22 457.436 1725.04 460.439 1726.72 463.073C1727.23 463.859 1726.54 465.461 1725.13 466.847C1722.73 469.167 1722.52 469.178 1719.25 467.301C1715.33 465.041 1705.12 464.666 1703.02 466.711C1700.77 468.906 1701.4 473.109 1704.25 474.895C1705.7 475.802 1710.55 477.94 1715.05 479.633C1719.54 481.338 1724.67 484.031 1726.43 485.622Z" fill="#0A1227"/>
<path fill-rule="evenodd" clip-rule="evenodd" d="M1789.58 458.153C1790.01 458.562 1790.36 460.359 1790.36 462.131C1790.36 463.2 1790.36 464.278 1790.36 465.347C1786.29 465.347 1782.2 465.347 1778.12 465.347C1764.34 465.347 1764.08 465.529 1764.88 475.122C1765.01 476.599 1765.13 478.076 1765.26 479.554C1768.85 479.667 1772.46 479.769 1776.06 479.883C1786.61 480.2 1786.86 480.271 1786.86 482.962C1786.86 485.656 1786.61 485.724 1776.06 486.044C1772.46 486.158 1768.85 486.26 1765.26 486.373C1765.14 488.931 1765.02 491.486 1764.91 494.044C1764.8 496.601 1764.69 499.159 1764.57 501.717C1768.87 501.717 1773.16 501.717 1777.46 501.717C1781.77 501.717 1786.07 501.717 1790.36 501.717C1790.36 502.851 1790.36 503.988 1790.36 505.125C1790.36 506.262 1790.36 507.399 1790.36 508.534C1784.72 508.534 1779.07 508.534 1773.43 508.534C1767.79 508.534 1762.14 508.534 1756.5 508.534C1756.5 500.01 1756.5 491.486 1756.5 482.962C1756.5 474.438 1756.5 465.915 1756.5 457.391C1761.88 457.391 1767.27 457.391 1772.65 457.391C1781.54 457.391 1789.16 457.733 1789.58 458.153Z" fill="#0C152C"/>
<path fill-rule="evenodd" clip-rule="evenodd" d="M1904.8 457.391C1911.42 457.391 1918.03 457.391 1924.65 457.391C1924.65 458.505 1924.65 459.631 1924.65 460.745C1924.65 464.074 1924.58 464.108 1917.35 464.437C1914.92 464.551 1912.48 464.667 1910.05 464.78C1909.95 472.076 1909.84 479.361 1909.73 486.657C1909.63 493.953 1909.52 501.238 1909.42 508.534C1908.06 508.534 1906.71 508.534 1905.36 508.534C1904 508.534 1902.65 508.534 1901.29 508.534C1901.29 501.147 1901.29 493.76 1901.29 486.373C1901.29 478.986 1901.29 471.597 1901.29 464.21C1898.57 464.21 1895.84 464.21 1893.12 464.21C1890.4 464.21 1887.67 464.21 1884.95 464.21C1884.95 463.073 1884.95 461.939 1884.95 460.802C1884.95 459.665 1884.95 458.528 1884.95 457.391C1891.57 457.391 1898.18 457.391 1904.8 457.391Z" fill="#10172D"/>
<path fill-rule="evenodd" clip-rule="evenodd" d="M1967.27 457.391C1972.91 457.391 1978.56 457.391 1984.2 457.391C1984.2 458.721 1984.2 460.039 1984.2 461.369C1984.2 462.699 1984.2 464.017 1984.2 465.347C1979.91 465.347 1975.64 465.347 1971.36 465.347C1967.07 465.347 1962.8 465.347 1958.51 465.347C1958.51 467.621 1958.51 469.893 1958.51 472.167C1958.51 474.438 1958.51 476.712 1958.51 478.986C1962.21 478.986 1965.9 478.986 1969.6 478.986C1973.3 478.986 1976.99 478.986 1980.7 478.986C1980.7 480.121 1980.7 481.258 1980.7 482.395C1980.7 483.532 1980.7 484.669 1980.7 485.804C1977.02 485.804 1973.35 485.804 1969.67 485.804C1963.61 485.804 1958.43 486.192 1958.16 486.657C1957.88 487.122 1957.91 490.703 1958.23 494.613C1958.42 496.976 1958.6 499.352 1958.79 501.717C1962.83 501.717 1966.87 501.717 1970.91 501.717C1974.95 501.717 1978.99 501.717 1983.03 501.717C1983.03 502.851 1983.03 503.988 1983.03 505.125C1983.03 506.262 1983.03 507.399 1983.03 508.534C1977.58 508.534 1972.14 508.534 1966.68 508.534C1961.23 508.534 1955.79 508.534 1950.34 508.534C1950.34 500.01 1950.34 491.486 1950.34 482.962C1950.34 474.438 1950.34 465.915 1950.34 457.391C1955.98 457.391 1961.63 457.391 1967.27 457.391Z" fill="#0E1328"/>
<path fill-rule="evenodd" clip-rule="evenodd" d="M2053.12 471.45C2055.58 476.837 2056.04 485.976 2054.11 491.6C2052.51 496.284 2044.72 504.42 2039.57 506.796C2036.93 508.012 2032.12 508.534 2023.43 508.534C2019.31 508.534 2015.18 508.534 2011.06 508.534C2011.06 500.01 2011.06 491.486 2011.06 482.962C2011.06 474.438 2011.06 465.915 2011.06 457.391C2014.9 457.391 2018.75 457.391 2022.59 457.391C2039.04 457.391 2048.74 461.859 2053.12 471.45ZM2043.09 471.804C2039.45 466.598 2036.39 465.347 2027.32 465.347C2025.02 465.347 2022.71 465.347 2020.4 465.347C2020.4 471.177 2020.4 477.007 2020.4 482.826C2020.4 499.999 2020.44 500.33 2023.02 500.999C2030.42 502.931 2040 499.477 2043.73 493.545C2047.31 487.817 2047 477.418 2043.09 471.804Z" fill="#0A162E"/>
<path fill-rule="evenodd" clip-rule="evenodd" d="M1822.77 457.609C1826.99 457.949 1827.58 458.573 1839.18 475.008C1845.81 484.383 1851.71 492.226 1852.32 492.43C1852.98 492.657 1853.42 485.69 1853.42 475.099C1853.42 469.201 1853.42 463.291 1853.42 457.391C1854.78 457.391 1856.14 457.391 1857.51 457.391C1858.87 457.391 1860.23 457.391 1861.59 457.391C1861.59 465.915 1861.59 474.438 1861.59 482.962C1861.59 491.486 1861.59 500.01 1861.59 508.534C1860.04 508.534 1858.48 508.534 1856.93 508.534C1855.38 508.534 1853.83 508.534 1852.27 508.534C1847.99 502.216 1843.7 495.909 1839.42 489.589C1835.13 483.282 1830.85 476.962 1826.56 470.655C1826.56 476.962 1826.56 483.282 1826.56 489.589C1826.56 495.909 1826.56 502.216 1826.56 508.534C1825.2 508.534 1823.84 508.534 1822.48 508.534C1821.11 508.534 1819.75 508.534 1818.39 508.534C1818.39 499.988 1818.39 491.441 1818.39 482.894C1818.39 474.348 1818.39 465.801 1818.39 457.255C1819.85 457.368 1821.31 457.495 1822.77 457.609Z" fill="#131A2F"/>
<path fill-rule="evenodd" clip-rule="evenodd" d="M977.074 457.391C982.714 457.391 988.366 457.391 994.006 457.391C994.006 458.528 994.006 459.665 994.006 460.802C994.006 461.939 994.006 463.073 994.006 464.21C989.72 464.21 985.446 464.21 981.161 464.21C976.875 464.21 972.601 464.21 968.318 464.21C968.318 466.677 968.318 469.133 968.318 471.597C968.318 474.064 968.318 476.519 968.318 478.986C972.019 478.986 975.71 478.986 979.41 478.986C983.112 478.986 986.801 478.986 990.504 478.986C990.504 480.316 990.504 481.632 990.504 482.962C990.504 484.292 990.504 485.611 990.504 486.941C986.801 486.941 983.112 486.941 979.41 486.941C975.71 486.941 972.019 486.941 968.318 486.941C968.318 489.158 968.318 491.384 968.318 493.601C968.318 495.816 968.318 498.045 968.318 500.262C970.361 500.5 972.403 500.738 974.448 500.977C977.822 501.374 983.602 501.705 987.291 501.705C993.971 501.717 994.006 501.739 994.006 505.125C994.006 506.262 994.006 507.399 994.006 508.534C988.366 508.534 982.714 508.534 977.074 508.534C971.436 508.534 965.784 508.534 960.144 508.534C960.144 500.01 960.144 491.486 960.144 482.962C960.144 474.438 960.144 465.915 960.144 457.391C965.784 457.391 971.436 457.391 977.074 457.391Z" fill="#131931"/>
<path fill-rule="evenodd" clip-rule="evenodd" d="M1395.21 457.277C1398.84 456.88 1404.66 457.767 1405.85 458.904C1406.62 459.631 1409.42 464.074 1412.07 468.756C1414.72 473.44 1417.06 477.28 1417.26 477.28C1417.61 477.28 1421.11 471.963 1427.21 462.109C1429.9 457.79 1430.53 457.402 1435.1 457.402C1436.76 457.402 1438.41 457.391 1440.07 457.391C1436.95 462.336 1433.84 467.279 1430.72 472.235C1427.61 477.178 1424.5 482.123 1421.38 487.065C1421.38 490.646 1421.38 494.225 1421.38 497.806C1421.38 501.374 1421.38 504.955 1421.38 508.534C1420.01 508.534 1418.66 508.534 1417.29 508.534C1415.92 508.534 1414.57 508.534 1413.2 508.534C1413.19 505.035 1413.19 501.521 1413.18 498.022C1413.17 488.599 1412.82 486.918 1409.86 481.828C1401.07 466.688 1397.68 461.21 1395.99 459.381C1394.99 458.289 1394.64 457.334 1395.21 457.277Z" fill="#141C34"/>
<path fill-rule="evenodd" clip-rule="evenodd" d="M80.1654 458.719C79.0042 459.482 77.8431 460.242 76.6819 461.016C74.7677 462.277 73.2451 463.344 73.2964 463.403C73.35 463.448 71.6386 465.255 69.4958 467.402C64.8302 472.086 63.9092 470.813 67.3204 464.402C67.9266 463.242 68.5306 462.085 69.1368 460.936C70.8062 457.732 71.3168 457.503 80.1654 458.719Z" fill="#0A1022"/>
<path fill-rule="evenodd" clip-rule="evenodd" d="M152.259 472.46C156.89 481.336 154.733 494.918 147.631 501.588C135.861 512.658 118.544 512.408 107.968 501.009C100.84 493.327 98.9606 480.848 103.71 472.71C110.521 461.038 118.621 456.742 131.678 457.902C137.747 458.435 139.543 459.164 144.204 462.981C147.195 465.436 150.821 469.71 152.259 472.46ZM144.754 476.223C144.488 474.904 142.455 472.12 140.235 470.016C136.696 466.687 135.29 466.151 128.85 465.754C122.202 465.346 121.141 465.595 117.723 468.403C112.363 472.789 110.526 476.938 110.526 484.654C110.526 492.247 112.454 495.531 119.374 499.691C122.704 501.69 124.753 502.078 129.871 501.667C142.045 500.68 147.734 490.951 144.754 476.223Z" fill="#0A1530"/>
<path fill-rule="evenodd" clip-rule="evenodd" d="M220.385 457.582C221.91 457.582 223.435 457.582 224.958 457.582C224.958 463.403 224.958 469.21 224.958 475.029C224.958 485.03 224.391 494.122 223.631 496.339C220.821 504.52 212.735 509.862 203.154 509.862C196.938 509.862 193.035 508.022 187.593 502.509C186.229 501.134 184.867 499.759 183.506 498.372C183.385 491.575 183.261 484.781 183.14 477.984C183.018 471.176 182.897 464.379 182.774 457.582C184.161 457.582 185.548 457.582 186.936 457.582C188.323 457.582 189.708 457.582 191.095 457.582C191.095 463.641 191.095 469.698 191.095 475.744C191.095 481.801 191.095 487.86 191.095 493.917C192.177 495.1 193.261 496.271 194.343 497.451C198.99 502.521 206.766 503.34 211.609 499.294C212.749 498.338 213.892 497.383 215.034 496.43C215.162 489.951 215.293 483.474 215.424 477.006C215.554 470.529 215.682 464.061 215.815 457.582C217.338 457.582 218.863 457.582 220.385 457.582Z" fill="#091730"/>
<path fill-rule="evenodd" clip-rule="evenodd" d="M397.514 463.63C398.4 464.413 399.288 465.209 400.174 465.992C399.249 466.891 398.325 467.79 397.402 468.686C396.477 469.596 395.553 470.495 394.63 471.391C393.152 470.413 391.676 469.437 390.2 468.459C386.679 466.14 384.357 465.539 378.884 465.539C372.482 465.539 371.647 465.856 367.077 470.005C365.438 471.493 363.799 472.982 362.159 474.471C362.159 477.312 362.159 480.154 362.159 482.995C362.159 490.917 362.409 491.78 365.664 495.111C373.237 502.872 381.088 503.998 389.843 498.588C391.634 497.485 393.424 496.384 395.213 495.281C396.087 496.18 396.959 497.088 397.834 497.986C400.946 501.214 399.904 503.099 393.182 506.386C386.926 509.442 380.848 510.146 373.468 508.657C368.038 507.568 365.846 506.363 361.406 502.055C354.983 495.815 352.856 489.678 353.752 479.949C354.512 471.72 358.469 465.55 365.948 460.936C370.595 458.061 372.524 457.582 379.376 457.582C387.693 457.582 392.541 459.198 397.514 463.63Z" fill="#0A132F"/>
<path fill-rule="evenodd" clip-rule="evenodd" d="M585.188 457.582C590.83 457.582 596.475 457.582 602.118 457.582C602.118 458.912 602.118 460.23 602.118 461.56C602.118 462.89 602.118 464.209 602.118 465.539C597.837 465.539 593.556 465.539 589.275 465.539C584.992 465.539 580.711 465.539 576.43 465.539C576.43 467.813 576.43 470.084 576.43 472.358C576.43 474.63 576.43 476.904 576.43 479.178C580.128 479.178 583.824 479.178 587.522 479.178C591.22 479.178 594.918 479.178 598.616 479.178C598.616 480.508 598.616 481.824 598.616 483.154C598.616 484.484 598.616 485.802 598.616 487.132C594.918 487.132 591.22 487.132 587.522 487.132C583.824 487.132 580.128 487.132 576.43 487.132C576.43 489.406 576.43 491.678 576.43 493.951C576.43 496.225 576.43 498.497 576.43 500.771C580.711 500.771 584.992 500.771 589.275 500.771C593.556 500.771 597.837 500.771 602.118 500.771C602.118 502.101 602.118 503.419 602.118 504.749C602.118 506.079 602.118 507.396 602.118 508.725C596.475 508.725 590.83 508.725 585.188 508.725C579.543 508.725 573.898 508.725 568.255 508.725C568.255 500.202 568.255 491.678 568.255 483.154C568.255 474.63 568.255 466.106 568.255 457.582C573.898 457.582 579.543 457.582 585.188 457.582Z" fill="#06142F"/>
<path fill-rule="evenodd" clip-rule="evenodd" d="M648.825 457.582C654.663 457.582 660.501 457.582 666.34 457.582C666.34 458.912 666.34 460.23 666.34 461.56C666.34 462.89 666.34 464.209 666.34 465.539C661.865 465.539 657.389 465.539 652.912 465.539C648.435 465.539 643.958 465.539 639.484 465.539C639.484 467.813 639.484 470.084 639.484 472.358C639.484 474.63 639.484 476.904 639.484 479.178C643.182 479.178 646.878 479.178 650.576 479.178C654.274 479.178 657.972 479.178 661.67 479.178C661.67 480.312 661.67 481.449 661.67 482.586C661.67 483.723 661.67 484.86 661.67 485.995C657.972 485.995 654.274 485.995 650.576 485.995C646.878 485.995 643.182 485.995 639.484 485.995C639.484 488.643 639.484 491.303 639.484 493.951C639.484 496.6 639.484 499.26 639.484 501.908C643.765 501.908 648.046 501.908 652.329 501.908C656.61 501.908 660.891 501.908 665.172 501.908C665.172 503.043 665.172 504.18 665.172 505.317C665.172 506.454 665.172 507.591 665.172 508.725C659.529 508.725 653.884 508.725 648.242 508.725C642.597 508.725 636.954 508.725 631.309 508.725C631.309 500.202 631.309 491.678 631.309 483.154C631.309 474.63 631.309 466.106 631.309 457.582C637.148 457.582 642.986 457.582 648.825 457.582Z" fill="#08112D"/>
<path fill-rule="evenodd" clip-rule="evenodd" d="M770.03 499.861C770.802 500.612 771.431 502.555 771.431 504.18C771.431 507.931 769.447 509.862 765.593 509.862C761.977 509.862 759.755 507.976 759.755 504.897C759.755 499.929 766.633 496.554 770.03 499.861Z" fill="#0A1530"/>
<path fill-rule="evenodd" clip-rule="evenodd" d="M67.3201 464.402C63.9089 470.813 64.8299 472.086 69.4955 467.402C71.6383 465.255 73.3497 463.448 73.2961 463.403C73.2448 463.344 74.7674 462.277 76.6816 461.016C77.8428 460.242 79.0039 459.482 80.1651 458.719C74.336 468.005 68.5092 477.278 62.6802 486.565C62.6755 490.211 62.6709 493.849 62.6639 497.496C62.6592 501.145 62.6545 504.795 62.6499 508.43C61.0947 508.68 59.5371 508.92 57.9796 509.159C56.4244 509.408 54.8645 509.647 53.3093 509.885C53.3093 506.215 53.3093 502.543 53.3093 498.86C53.3093 487.951 53.2557 487.747 48.4269 479.813C45.7385 475.404 42.9173 471.017 42.1548 470.084C41.3924 469.154 39.3965 465.947 37.7201 462.981C36.7035 461.186 35.6892 459.379 34.6726 457.582C36.3794 457.582 38.0861 457.582 39.7929 457.582C41.4996 457.582 43.2064 457.582 44.9155 457.582C46.9836 461.163 49.0494 464.731 51.1176 468.312C55.149 475.29 57.7511 478.699 58.5485 478.052C59.2247 477.505 60.9501 474.984 62.3817 472.438C63.2491 470.892 64.1188 469.358 64.9862 467.813C65.7649 466.676 66.5414 465.539 67.3201 464.402Z" fill="url(#paint2_radial_4_212)"/>
<path fill-rule="evenodd" clip-rule="evenodd" d="M266.99 457.582C281.332 457.582 284.528 458.549 289.625 464.447C295.175 470.869 292.535 482.881 284.745 486.667C283.309 487.359 281.847 488.212 281.497 488.553C281.148 488.893 283.51 493.441 286.748 498.667C288.711 501.829 290.675 504.999 292.638 508.158C291.143 508.271 289.651 508.385 288.159 508.498C283.738 508.839 283.612 508.737 278.711 500.703C272.63 490.736 270.184 488.269 266.412 488.269C263.513 488.269 263.492 488.348 263.492 498.497C263.492 501.908 263.492 505.317 263.492 508.725C262.175 508.725 260.858 508.725 259.54 508.725C258.225 508.725 256.908 508.725 255.591 508.725C255.383 506.363 255.176 503.987 254.968 501.622C254.628 497.714 254.275 486.213 254.185 476.05C254.131 469.891 254.077 463.743 254.024 457.582C258.344 457.582 262.667 457.582 266.99 457.582ZM281.206 467.425C279.667 466.061 276.888 465.539 271.229 465.539C268.617 465.539 266.004 465.539 263.39 465.539C263.504 468.289 263.618 471.028 263.733 473.779C263.847 476.529 263.961 479.268 264.075 482.019C266.733 482.019 269.394 482.019 272.052 482.019C278.599 482.019 280.324 481.62 281.686 479.813C284.062 476.654 283.794 469.698 281.206 467.425Z" fill="url(#paint3_radial_4_212)"/>
<path fill-rule="evenodd" clip-rule="evenodd" d="M425.818 502.691C426.362 500.93 427.294 498.883 427.893 498.145C428.49 497.394 429.33 495.372 429.754 493.634C430.181 491.907 431.769 487.815 433.282 484.54C434.795 481.279 436.42 477.335 436.894 475.767C437.367 474.199 438.754 470.756 439.978 468.096C441.2 465.448 442.713 461.96 443.341 460.355C444.313 457.868 445.085 457.491 448.685 457.8C452.786 458.14 452.991 458.39 456.941 467.813C459.17 473.13 462.989 482.586 465.428 488.836C467.867 495.089 470.728 502.124 471.784 504.463C472.425 505.884 473.064 507.305 473.705 508.725C472.169 508.725 470.632 508.725 469.098 508.725C465.316 508.725 464.358 508.271 463.749 506.17C461.084 496.963 461.753 497.36 448.701 497.36C444.753 497.36 440.804 497.36 436.856 497.36C436.166 499.26 435.474 501.146 434.783 503.043C432.837 508.374 432.461 508.725 428.67 508.725C424.396 508.725 424.13 508.169 425.818 502.691ZM456.162 487.132C455.6 486.201 453.684 481.654 451.907 477.051C450.83 474.267 449.753 471.471 448.675 468.675C448.111 469.959 447.549 471.232 446.985 472.506C446.055 474.607 444.586 477.95 443.721 479.915C442.853 481.883 442.147 484.291 442.147 485.246C442.147 486.213 441.622 487.314 440.979 487.702C437.915 489.542 440.585 490.543 448.568 490.543C457.386 490.543 458.039 490.246 456.162 487.132Z" fill="#131931"/>
<path fill-rule="evenodd" clip-rule="evenodd" d="M514.525 457.777C519.191 457.902 523.856 458.027 528.522 458.152C529.986 459.584 531.451 461.004 532.917 462.436C537.037 466.449 537.312 467.141 537.312 473.643C537.312 480.38 537.175 480.689 532.257 484.94C530.572 486.394 528.888 487.849 527.205 489.304C529.194 492.451 531.182 495.588 533.174 498.735C535.16 501.874 537.151 505.021 539.14 508.158C537.594 508.271 536.049 508.385 534.5 508.498C530.693 508.782 529.567 508.385 528.228 506.227C517.925 489.701 517.678 489.428 513.082 489.417C511.622 489.417 510.163 489.406 508.703 489.406C508.703 492.621 508.703 495.849 508.703 499.067C508.703 502.282 508.703 505.51 508.703 508.725C507.341 508.725 505.98 508.725 504.618 508.725C503.254 508.725 501.892 508.725 500.531 508.725C500.531 500.167 500.531 491.609 500.531 483.063C500.531 474.505 500.531 465.947 500.531 457.389C505.194 457.514 509.862 457.65 514.525 457.777ZM527.02 468.005C524.857 466.026 522.9 465.539 517.23 465.539C514.868 465.539 512.506 465.539 510.144 465.539C509.962 468.096 509.78 470.654 509.599 473.209C509.295 477.426 509.265 481.268 509.529 481.733C509.794 482.2 512.828 482.586 516.274 482.586C521.308 482.586 523.241 482.008 526.13 479.643C530.537 476.039 530.882 471.539 527.02 468.005Z" fill="url(#paint4_radial_4_212)"/>
<path fill-rule="evenodd" clip-rule="evenodd" d="M707.255 457.582C716.752 457.582 719.865 458.027 723.649 459.901C735.529 465.8 736.207 482.507 724.754 487.121C722.812 487.906 721.222 488.745 721.222 488.986C721.222 489.236 723.85 493.509 727.06 498.497C730.271 503.487 732.899 507.829 732.899 508.147C732.899 508.464 730.868 508.725 728.385 508.725C723.978 508.725 723.728 508.498 717.785 499.067C712.059 489.973 711.462 489.406 707.703 489.406C706.372 489.406 705.038 489.406 703.707 489.406C703.707 492.622 703.707 495.849 703.707 499.067C703.707 502.282 703.707 505.51 703.707 508.725C702.343 508.725 700.981 508.725 699.619 508.725C698.258 508.725 696.896 508.725 695.532 508.725C695.532 500.202 695.532 491.678 695.532 483.154C695.532 474.63 695.532 466.106 695.532 457.582C699.44 457.582 703.348 457.582 707.255 457.582ZM721.772 467.994C719.254 466.061 716.981 465.539 711.138 465.539C708.661 465.539 706.183 465.539 703.707 465.539C703.707 468.38 703.707 471.221 703.707 474.062C703.707 476.904 703.707 479.745 703.707 482.586C706.192 482.586 708.68 482.586 711.166 482.586C720.047 482.586 723.302 480.587 724.3 474.528C724.876 471.017 724.517 470.084 721.772 467.994Z" fill="#101A33"/>
<defs>
<linearGradient id="paint0_linear_4_212" x1="971.317" y1="715.273" x2="806.312" y2="407.234" gradientUnits="userSpaceOnUse">
<stop stop-color="#3A38F5"/>
<stop offset="0.181818" stop-color="#333FF1"/>
<stop offset="0.227273" stop-color="#2C3FF0"/>
<stop offset="0.454545" stop-color="#1F4AF0"/>
<stop offset="0.545455" stop-color="#194DEF"/>
<stop offset="0.590909" stop-color="#1C4DF2"/>
<stop offset="0.636364" stop-color="#1C4DF2"/>
<stop offset="0.818182" stop-color="#1056F3"/>
<stop offset="0.954545" stop-color="#0D56EE"/>
<stop offset="1" stop-color="#0756ED"/>
</linearGradient>
<linearGradient id="paint1_linear_4_212" x1="1482.3" y1="-1964.62" x2="1803.55" y2="-2002.19" gradientUnits="userSpaceOnUse">
<stop stop-color="#144EF5"/>
<stop offset="0.136364" stop-color="#2B46F5"/>
<stop offset="0.227273" stop-color="#3C3AF4"/>
<stop offset="0.272727" stop-color="#4534F2"/>
<stop offset="0.454545" stop-color="#4E2EF1"/>
<stop offset="0.727273" stop-color="#4A34F2"/>
<stop offset="0.863636" stop-color="#4E38F0"/>
<stop offset="0.954545" stop-color="#4A3AF0"/>
<stop offset="1" stop-color="#4E38F0"/>
</linearGradient>
<radialGradient id="paint2_radial_4_212" cx="0" cy="0" r="1" gradientUnits="userSpaceOnUse" gradientTransform="translate(24.7282 481.245) scale(58.9996 57.425)">
<stop stop-color="#061B39"/>
<stop offset="0.371308" stop-color="#061B39"/>
<stop offset="0.461122" stop-color="#091A39"/>
<stop offset="0.550935" stop-color="#0A1B38"/>
<stop offset="0.730561" stop-color="#0D1A32"/>
<stop offset="0.820374" stop-color="#0E1930"/>
<stop offset="0.910187" stop-color="#0D172C"/>
<stop offset="1" stop-color="#0D172B"/>
</radialGradient>
<radialGradient id="paint3_radial_4_212" cx="0" cy="0" r="1" gradientUnits="userSpaceOnUse" gradientTransform="translate(411.847 449.775) scale(158.822 154.583)">
<stop stop-color="#071537"/>
<stop offset="0.0519333" stop-color="#071537"/>
<stop offset="0.0931536" stop-color="#081631"/>
<stop offset="0.134374" stop-color="#071530"/>
<stop offset="0.175594" stop-color="#071530"/>
<stop offset="0.258035" stop-color="#09172F"/>
<stop offset="0.299255" stop-color="#051530"/>
<stop offset="0.340475" stop-color="#081129"/>
<stop offset="0.381696" stop-color="#051531"/>
<stop offset="0.422916" stop-color="#051531"/>
<stop offset="0.464136" stop-color="#06122C"/>
<stop offset="0.505356" stop-color="#051531"/>
<stop offset="0.587797" stop-color="#041430"/>
<stop offset="0.670238" stop-color="#051531"/>
<stop offset="0.711458" stop-color="#061633"/>
<stop offset="0.793899" stop-color="#061632"/>
<stop offset="0.835119" stop-color="#041734"/>
<stop offset="0.876339" stop-color="#061632"/>
<stop offset="0.95878" stop-color="#041734"/>
<stop offset="1" stop-color="#051735"/>
</radialGradient>
<radialGradient id="paint4_radial_4_212" cx="0" cy="0" r="1" gradientUnits="userSpaceOnUse" gradientTransform="translate(661.306 473.243) scale(158.821 154.583)">
<stop stop-color="#071530"/>
<stop offset="0.0499384" stop-color="#071530"/>
<stop offset="0.132552" stop-color="#09162B"/>
<stop offset="0.173859" stop-color="#0D182C"/>
<stop offset="0.215167" stop-color="#0A172C"/>
<stop offset="0.256474" stop-color="#081631"/>
<stop offset="0.297781" stop-color="#0E172E"/>
<stop offset="0.339088" stop-color="#071636"/>
<stop offset="0.380395" stop-color="#0A1732"/>
<stop offset="0.421702" stop-color="#0A1732"/>
<stop offset="0.463009" stop-color="#061737"/>
<stop offset="0.545623" stop-color="#061633"/>
<stop offset="0.58693" stop-color="#071839"/>
<stop offset="0.628237" stop-color="#021639"/>
<stop offset="0.669544" stop-color="#051636"/>
<stop offset="0.710851" stop-color="#071839"/>
<stop offset="0.752158" stop-color="#071839"/>
<stop offset="0.793465" stop-color="#021739"/>
<stop offset="0.834772" stop-color="#061738"/>
<stop offset="0.876079" stop-color="#021739"/>
<stop offset="0.917386" stop-color="#031538"/>
<stop offset="0.958693" stop-color="#031538"/>
<stop offset="1" stop-color="#03133A"/>
</radialGradient>
</defs>
</svg>
