<svg width="2218" height="445" viewBox="0 0 2218 445" fill="none" xmlns="http://www.w3.org/2000/svg">
<path fill-rule="evenodd" clip-rule="evenodd" d="M68.1362 400.656C118.391 350.489 132.975 335.749 132.969 335.535C132.966 335.404 132.961 335.276 132.958 335.143C145.037 323.127 157.116 311.11 169.197 299.094C181.278 287.077 193.355 275.061 205.436 263.044C205.767 263.194 206.102 263.34 206.434 263.489C207.046 263.763 207.694 264.519 208.118 265.448C208.784 266.914 208.805 268.228 208.809 307.728C208.809 321.318 208.812 334.905 208.812 348.495C206.113 351.226 203.413 353.957 200.714 356.685C153.864 404.063 148.141 409.706 145.206 411.444C139.51 414.816 132.953 417.137 126.191 418.173C124.03 418.504 118.423 418.637 106.602 418.637C90.4318 418.637 89.9688 418.615 87.0132 417.814C83.261 416.799 78.9284 414.699 76.2586 412.598C73.1586 410.158 70.8337 406.741 68.1362 400.656Z" fill="url(#paint0_linear_4_20)"/>
<path fill-rule="evenodd" clip-rule="evenodd" d="M371.884 371.492C373.5 373.849 372.397 377.727 369.686 379.211C368.632 379.788 365.074 379.834 315.668 379.934C286.576 379.991 262.065 379.938 261.196 379.813C259.259 379.535 257.503 377.926 256.947 375.918C256.15 373.02 257.941 369.741 260.74 368.989C261.749 368.719 278.067 368.629 315.607 368.697C333.418 368.726 351.23 368.758 369.038 368.79C369.373 369.039 369.711 369.285 370.045 369.534C370.598 369.943 371.424 370.826 371.884 371.492Z" fill="url(#paint1_radial_4_20)"/>
<path fill-rule="evenodd" clip-rule="evenodd" d="M372.111 340.663C372.86 342.044 372.642 344.832 371.691 346.117C371.303 346.644 370.452 347.434 369.8 347.879C369.405 348.146 369.009 348.417 368.614 348.684C353.883 348.652 339.152 348.62 324.422 348.591C309.691 348.559 294.96 348.527 280.23 348.495C279.855 348.229 279.485 347.965 279.112 347.697C277.915 346.843 276.846 344.65 276.846 343.044C276.846 341.677 278.246 339.071 279.453 338.191C280.454 337.461 280.692 337.458 323.973 337.351C353.06 337.283 367.909 337.369 368.757 337.615C370.135 338.014 371.21 338.989 372.111 340.663Z" fill="url(#paint2_radial_4_20)"/>
<path fill-rule="evenodd" clip-rule="evenodd" d="M280.531 171.007C280.432 171.007 280.354 171.087 280.354 171.185C280.354 171.283 280.432 171.363 280.531 171.363C280.632 171.363 280.71 171.283 280.71 171.185C280.71 171.087 280.632 171.007 280.531 171.007Z" fill="url(#paint3_linear_4_20)"/>
<path fill-rule="evenodd" clip-rule="evenodd" d="M277.237 215.423C279.584 218.13 314.202 258.625 321.314 262.18C321.314 256.848 323.066 127.968 323.092 126.857C322.49 125.615 318.767 128.525 296.352 152.849C282.031 167.905 277.601 172.74 276.76 174.219C276.347 174.942 276.24 178.617 276.169 194.595C276.14 201.093 276.109 207.591 276.079 214.088C276.464 214.533 276.852 214.978 277.237 215.423ZM280.354 171.185C280.354 171.087 280.432 171.007 280.531 171.007C280.632 171.007 280.71 171.087 280.71 171.185C280.71 171.283 280.632 171.363 280.531 171.363C280.432 171.363 280.354 171.283 280.354 171.185Z" fill="url(#paint4_linear_4_20)"/>
<path fill-rule="evenodd" clip-rule="evenodd" d="M66 69.5332C66.1344 69.0882 66.2688 68.6431 66.4039 68.1981C68.4145 61.5506 71.6447 58.1778 77.7402 56.3635C80.021 55.6845 81.1461 55.6476 99.5799 55.6476C111.476 55.6476 120.082 55.7961 121.764 56.0301C128.812 57.0098 138.342 62.1848 143.109 67.6208C144.283 68.9609 147.086 72.0685 149.341 74.5263C151.596 76.984 157.212 83.1544 161.832 88.2392C166.447 93.3232 174.3 101.962 179.284 107.436C184.263 112.911 190.823 120.137 193.861 123.495C196.899 126.853 202.017 132.468 205.237 135.972C212.93 144.349 259.248 195.277 267.23 204.138C270.656 207.944 274.225 211.819 276.846 214.444C277.231 214.889 277.619 215.334 278.004 215.779C280.35 218.486 294.309 233.662 300.352 240.079C301.927 241.83 303.497 243.579 305.072 245.33C307.668 248.218 310.713 251.502 313.887 254.677C313.887 254.763 313.887 254.852 313.887 254.937C313.887 255.083 315.129 256.451 316.647 257.981C318.164 259.509 318.926 260.153 318.339 259.409C317.983 258.96 317.626 258.508 317.27 258.06C317.747 258.487 318.221 258.914 318.695 259.345C320.29 260.783 321.355 261.293 321.387 260.63C321.401 260.392 321.566 260.584 321.754 261.054C322.075 261.855 321.202 262.813 309.178 274.862C302.073 281.979 292.41 291.717 287.709 296.495C283.007 301.273 278.681 305.418 278.092 305.702C277.505 305.987 275.902 306.407 274.531 306.635C272.319 307.005 271.781 306.973 269.809 306.358C267.347 305.592 268.142 306.315 258.002 295.623C252.937 290.282 247.545 284.514 233.751 269.695C231.105 266.854 228.141 263.536 227.162 262.322C226.183 261.107 224.259 259.1 222.888 257.86C220.174 255.403 219.148 254.247 219.148 253.637C219.148 253.42 218.827 253.246 217.724 253.253C212.819 248.002 207.915 242.75 203.011 237.498C190.67 224.283 181.481 214.378 168.912 200.744C148.686 178.804 133.602 162.669 133.154 162.491C132.893 162.388 132.806 188.482 132.958 335.143C132.961 335.276 132.966 335.404 132.969 335.535C132.976 335.749 118.391 350.489 68.1364 400.656C67.81 399.737 67.4835 398.815 67.1571 397.897C66.8306 396.978 66.5042 396.056 66.1778 395.137C66.1181 286.604 66.059 178.068 66 69.5332Z" fill="url(#paint5_radial_4_20)"/>
<path fill-rule="evenodd" clip-rule="evenodd" d="M300.886 239.723C300.987 239.723 301.065 239.804 301.065 239.902C301.065 239.999 300.987 240.079 300.886 240.079C300.787 240.079 300.708 239.999 300.708 239.902C300.708 239.804 300.787 239.723 300.886 239.723Z" fill="url(#paint6_linear_4_20)"/>
<path fill-rule="evenodd" clip-rule="evenodd" d="M301.243 240.079C301.343 240.079 301.421 240.16 301.421 240.257C301.421 240.355 301.343 240.436 301.243 240.436C301.143 240.436 301.065 240.355 301.065 240.257C301.065 240.16 301.143 240.079 301.243 240.079Z" fill="url(#paint7_linear_4_20)"/>
<path fill-rule="evenodd" clip-rule="evenodd" d="M301.599 240.436C301.699 240.436 301.777 240.515 301.777 240.613C301.777 240.711 301.699 240.792 301.599 240.792C301.5 240.792 301.421 240.711 301.421 240.613C301.421 240.515 301.5 240.436 301.599 240.436Z" fill="url(#paint8_linear_4_20)"/>
<path fill-rule="evenodd" clip-rule="evenodd" d="M281.298 171.363C281.398 171.363 281.476 171.442 281.476 171.54C281.476 171.639 281.398 171.719 281.298 171.719C281.198 171.719 281.12 171.639 281.12 171.54C281.12 171.442 281.198 171.363 281.298 171.363Z" fill="url(#paint9_radial_4_20)"/>
<path fill-rule="evenodd" clip-rule="evenodd" d="M225.305 409.867C220.761 409.867 222.334 419.483 225.305 420.157C236.519 420.125 317.647 420.246 331.562 420.157C345.415 420.068 359.262 419.978 370.425 419.946C371.333 419.703 372.239 419.46 373.146 419.217C373.658 419.079 374.171 418.941 374.685 418.804C389.917 414.72 400.588 402.881 404.31 385.948C404.948 383.05 404.973 378.837 404.973 273.273C404.973 167.326 405.043 162.445 403.749 157.957C403.617 157.499 403.471 157.046 403.309 156.49C400.588 147.128 393.444 138.175 384.672 133.127C380.266 130.591 375.451 128.975 369.98 128.196C369.549 128.135 367.733 128.074 365.916 128.013C364.1 127.951 362.283 127.89 361.852 127.829C361.14 128.113 359.997 128.066 357.861 127.977C356.266 127.91 354.119 127.821 351.184 127.829C350.943 127.829 350.707 127.83 350.476 127.831C341.91 127.854 340.401 127.859 340.401 128.968V134.208V140.962C341.582 140.962 342.971 140.954 344.503 140.945C354.744 140.886 371.426 140.789 375.878 142.807C383.688 146.347 389.921 154.204 391.673 162.721C392.065 164.624 392.151 184.333 392.151 273.629C392.151 375.477 392.112 382.373 391.535 384.623C388.443 396.633 381.064 404.544 369.535 408.2C367.469 408.856 365.461 409.208 363.213 409.312L359.918 409.461V409.632C359.918 409.725 348.547 409.831 334.645 409.867H225.305Z" fill="url(#paint10_radial_4_20)"/>
<path fill-rule="evenodd" clip-rule="evenodd" d="M257.701 73.3539C258.146 73.2309 258.591 73.1072 259.036 72.9842C273.956 68.8521 281.816 63.2647 286.82 53.2374C289.371 48.1249 290.941 42.9819 292.961 33.1209C293.092 32.8835 293.224 32.646 293.352 32.4086C293.569 32.0168 293.972 31.6969 294.741 31.6969C295.041 33.2695 295.339 34.8414 295.639 36.4141C297.989 48.806 301.024 55.499 306.993 61.4618C313.059 67.5234 319.697 70.6359 334.631 74.4218C334.624 74.5113 334.62 74.6002 334.613 74.6891C334.602 74.8363 334.763 75.0759 335.344 75.4903C334.959 75.5572 334.57 75.6247 334.186 75.6922C316.4 78.7913 305.238 86.0999 299.963 98.1002C298.235 102.03 296.746 107.265 294.741 116.436C294.502 116.565 294.268 116.695 294.029 116.825C293.638 117.039 293.317 117.44 293.317 118.216C293.2 117.533 293.081 116.851 292.961 116.168C291.875 109.903 289.114 100.917 286.888 96.3931C284.113 90.7574 281.082 87.369 275.608 83.7851C270.615 80.5168 266.926 79.0409 256.633 76.202C256.557 75.9461 256.486 75.6901 256.411 75.4342C256.262 74.9038 256.426 74.463 257.701 73.3539Z" fill="url(#paint11_linear_4_20)"/>
<path fill-rule="evenodd" clip-rule="evenodd" d="M294.741 31.6969C293.972 31.6969 293.569 32.0168 293.352 32.4086C293.224 32.646 293.092 32.8835 292.96 33.1209C293.078 31.9344 293.196 30.7471 293.317 29.5605C293.509 27.6018 293.808 26 293.975 26C294.147 26 294.385 27.2819 294.741 31.6969Z" fill="#001BC7"/>
<path fill-rule="evenodd" clip-rule="evenodd" d="M661.664 61.8668C670.103 61.8668 678.542 61.8668 686.981 61.8668C686.981 105.962 686.981 150.049 686.981 194.145C686.981 238.241 686.981 282.329 686.981 326.425C678.477 326.408 669.974 326.399 661.47 326.381C652.966 326.373 644.462 326.355 635.958 326.346C634.566 324.526 633.172 322.706 631.78 320.888C583.884 258.387 561.959 229.769 554.537 220.074C543.76 205.993 515.347 169.395 501.396 151.624C498.089 147.413 494.782 143.194 491.475 138.984C491.397 170.222 491.32 201.467 491.244 232.704C491.168 263.942 491.091 295.187 491.015 326.425C482.738 326.425 474.462 326.425 466.185 326.425C457.908 326.425 449.632 326.425 441.355 326.425C441.355 282.329 441.355 238.241 441.355 194.145C441.355 150.049 441.355 105.962 441.355 61.8668C449.882 61.8668 458.41 61.8668 466.937 61.8668C475.464 61.8668 483.993 61.8668 492.521 61.8668C499.549 70.8755 506.576 79.8858 513.605 88.8945C553.634 140.196 625.316 233.372 633.286 244.447C634.756 246.486 636.162 248.173 636.411 248.181C636.66 248.19 636.746 206.274 636.604 155.034C636.519 123.982 636.434 92.9189 636.348 61.8668C644.787 61.8668 653.226 61.8668 661.664 61.8668Z" fill="#030F35"/>
<path fill-rule="evenodd" clip-rule="evenodd" d="M947.895 220.32C948.942 230.85 948.946 233.706 947.925 242.486C944.519 271.764 928.981 297.025 904.725 312.713C884.598 325.73 865.9 330.634 840.122 329.677C825.464 329.132 817.575 327.647 804.451 322.987C771.047 311.123 746.865 282.435 741.598 248.42C733.042 193.169 768.518 144.821 824.589 135.302C834.996 133.534 855.027 133.534 865.433 135.302C893.475 140.056 919.354 156.633 933.379 178.816C940.97 190.823 946.549 206.767 947.895 220.32ZM789.063 214.906C786.852 223.116 786.636 239.094 788.623 247.321C792.972 265.339 807.668 280.957 825.527 286.538C835.268 289.58 850.081 290.371 858.556 288.297C868.926 285.757 877.233 281.159 884.821 273.768C893.027 265.778 897.627 258.115 900.224 248.12C902.741 238.436 902.26 221.85 899.203 213.044C892.486 193.68 877.52 180.066 858.105 175.636C848.792 173.518 834.052 174.229 825.318 177.235C807.688 183.292 793.641 197.89 789.063 214.906Z" fill="#031036"/>
<path fill-rule="evenodd" clip-rule="evenodd" d="M1153.78 137.455C1162.21 137.455 1170.64 137.455 1179.06 137.455C1178.14 139.433 1177.22 141.409 1176.3 143.387C1172.5 151.571 1158.58 182.764 1138.96 227.105C1129.86 247.655 1116.72 277.354 1109.74 293.121C1102.76 308.891 1096.79 322.838 1096.45 324.121C1096.25 324.895 1096.05 325.678 1095.86 326.452C1087.89 326.373 1079.93 326.292 1071.96 326.222C1064.01 326.143 1056.04 326.064 1048.08 325.985C1044.98 318.954 1041.88 311.922 1038.79 304.891C1033.68 293.288 1025.54 274.902 1020.69 264.021C1015.84 253.139 1005.07 228.82 996.749 209.967C970.824 151.236 967.662 144.144 965.895 140.751C965.321 139.652 964.748 138.554 964.174 137.455C972.685 137.464 981.195 137.481 989.704 137.49C998.211 137.499 1006.73 137.508 1015.23 137.525C1017.7 143.589 1020.16 149.655 1022.62 155.727C1026.68 165.74 1037.99 192.915 1047.73 216.118C1057.48 239.322 1066.94 261.964 1068.76 266.438C1071.84 274.04 1073.48 276.387 1073.48 273.214C1073.48 272.477 1085.62 242.32 1100.47 206.195C1115.31 170.082 1127.69 139.837 1127.98 138.993C1128.46 137.578 1130.51 137.455 1153.78 137.455Z" fill="#031036"/>
<path fill-rule="evenodd" clip-rule="evenodd" d="M1402.41 137.236C1402.78 137.411 1403.08 180.057 1403.08 231.993C1403.08 263.466 1403.08 294.95 1403.08 326.425C1395.41 326.425 1387.73 326.425 1380.06 326.425C1372.38 326.425 1364.71 326.425 1357.03 326.425C1357.03 322.303 1357.03 318.18 1357.03 314.057C1357.03 309.936 1357.03 305.814 1357.03 301.7C1355.08 303.625 1353.13 305.551 1351.19 307.474C1341.21 317.327 1328.85 324.149 1315.22 327.311C1290.02 333.175 1261.5 328.34 1239.38 314.472C1231.68 309.645 1219.9 298.334 1214.49 290.582C1192.97 259.731 1190.54 215.434 1208.61 183.158C1218.66 165.194 1237.37 148.354 1255.35 141.058C1268.45 135.758 1276.23 134.422 1293.82 134.457C1311.7 134.493 1318.38 135.758 1330.46 141.418C1338.63 145.242 1349.47 153.512 1353.53 159.014C1354.55 160.395 1355.57 161.766 1356.58 163.146C1356.66 158.9 1356.74 154.646 1356.83 150.402C1356.91 146.148 1356.99 141.894 1357.07 137.648C1363.47 137.438 1369.85 137.227 1376.25 137.015C1394.25 136.427 1400.81 136.479 1402.41 137.236ZM1244.95 216.998C1242.99 224.671 1242.84 237.811 1244.6 246.003C1247.5 259.477 1257.31 273.486 1268.77 280.509C1276.06 284.974 1282.6 287.312 1291.57 288.63C1309.51 291.286 1327.78 285.536 1340.33 273.275C1350.66 263.194 1355.81 251.302 1356.76 235.438C1358.37 208.147 1343.2 185.005 1318.65 177.349C1309.11 174.369 1296.79 173.676 1287.5 175.592C1266.59 179.889 1250.35 195.693 1244.95 216.998Z" fill="#041136"/>
<path fill-rule="evenodd" clip-rule="evenodd" d="M1700.32 97.7453C1705.71 102.772 1710.12 107.166 1710.12 107.519C1710.12 108.344 1677.76 136.593 1676.9 136.514C1676.55 136.488 1673.88 133.71 1670.98 130.361C1651.93 108.335 1616.5 96.5413 1585.28 101.842C1570.8 104.302 1555.74 110.541 1544.86 118.611C1538.26 123.497 1527.19 134.898 1522.88 141.243C1517.65 148.933 1512.51 160.264 1509.89 169.79C1507.85 177.288 1507.55 180.145 1507.47 193.268C1507.35 215.899 1511.32 229.831 1522.78 247.03C1532.55 261.692 1544.29 271.554 1561.33 279.402C1575.03 285.722 1583.04 287.277 1601.75 287.268C1615.38 287.259 1618.67 286.979 1625.63 285.211C1641.92 281.071 1656.78 272.626 1670.04 259.986C1672.65 257.499 1675.26 255.012 1677.87 252.523C1679.17 253.631 1680.46 254.738 1681.76 255.855C1683.9 257.683 1691.16 263.854 1697.89 269.567C1704.62 275.271 1710.12 280.378 1710.12 280.896C1710.12 282.558 1693.71 297.825 1685.9 303.424C1666.34 317.476 1645.68 325.167 1618.01 328.701C1583.99 333.043 1545.64 323.972 1518.06 305.075C1507.3 297.7 1491.47 282.179 1484.53 272.194C1473.73 256.681 1467.03 241.309 1462.53 221.743C1460.7 213.789 1460.44 210.327 1460.47 195.024C1460.51 180.18 1460.83 176.014 1462.56 168.218C1468.84 139.837 1481.04 117.477 1500.48 98.7562C1516.96 82.873 1534.94 72.3708 1558.1 65.075C1573.87 60.1188 1582.65 58.8691 1602.2 58.834C1616.83 58.8077 1620.82 59.1079 1629.21 60.8471C1656 66.4106 1680.17 78.9628 1700.32 97.7453Z" fill="url(#paint12_linear_4_20)"/>
<path fill-rule="evenodd" clip-rule="evenodd" d="M1977.06 61.8668C2000.43 61.8668 2001.95 61.9633 2001.37 63.406C2001.04 64.2484 1996.76 75.2262 1991.86 87.7959C1986.97 100.364 1977.22 125.089 1970.19 142.729C1963.15 160.369 1956.05 178.369 1954.4 182.72C1951.17 191.184 1947.61 200.219 1920.25 269.295C1910.58 293.711 1901.71 316.537 1900.54 320.035C1898.6 325.765 1898.14 326.434 1895.69 326.881C1894.2 327.154 1882.47 327.259 1869.63 327.118C1861.84 327.031 1854.06 326.952 1846.27 326.864C1845.87 325.835 1845.47 324.816 1845.06 323.787C1844.4 322.092 1839.81 310.226 1834.84 297.419C1803.79 217.208 1748.54 77.1778 1742.08 62.3073C1741.84 61.7351 1750.41 61.3578 1766.54 61.2262C1774.82 61.1648 1783.1 61.0928 1791.37 61.0226C1791.83 61.7088 1792.28 62.3862 1792.74 63.0619C1793.49 64.1781 1795.29 68.4236 1796.72 72.4936C1798.15 76.5548 1803.39 90.5636 1808.36 103.616C1851.2 216.162 1866.33 256.058 1869.24 264.021C1870.73 268.135 1872.07 271.606 1872.19 271.738C1872.32 271.878 1873.35 269.505 1874.49 266.464C1875.62 263.431 1886.41 235.236 1898.46 203.814C1910.51 172.393 1922.46 141.146 1925.04 134.379C1927.61 127.611 1934.75 108.907 1940.92 92.8048C1947.09 76.7128 1952.13 63.1673 1952.13 62.7022C1952.13 62.1915 1961.83 61.8668 1977.06 61.8668Z" fill="url(#paint13_linear_4_20)"/>
<path fill-rule="evenodd" clip-rule="evenodd" d="M2032.92 412.037C2033.51 412.618 2034 413.919 2034 414.938C2034 417.425 2032.32 418.893 2029.49 418.893C2026.65 418.893 2024.97 417.425 2024.97 414.938C2024.97 412.452 2026.65 410.983 2029.49 410.983C2030.78 410.983 2032.32 411.458 2032.92 412.037Z" fill="#061738"/>
<path fill-rule="evenodd" clip-rule="evenodd" d="M1137.51 386.775C1139.54 391.54 1137.95 397.156 1133.42 401.277C1131.32 403.194 1130.02 403.518 1123.4 403.783C1120.86 403.889 1118.33 403.994 1115.8 404.099C1115.8 406.7 1115.8 409.312 1115.8 411.913C1115.8 414.523 1115.8 417.125 1115.8 419.735C1114.6 419.735 1113.38 419.735 1112.18 419.735C1110.98 419.735 1109.77 419.735 1108.57 419.735C1108.57 412.994 1108.57 406.262 1108.57 399.521C1108.57 392.779 1108.57 386.047 1108.57 379.304C1111.51 379.304 1114.44 379.304 1117.38 379.304C1122.22 379.304 1127.57 379.692 1129.27 380.166C1132.67 381.115 1136.36 384.078 1137.51 386.775ZM1129.49 386.916C1128.3 385.861 1126.16 385.457 1121.82 385.457C1119.81 385.457 1117.8 385.457 1115.8 385.457C1115.8 387.655 1115.8 389.852 1115.8 392.049C1115.8 394.247 1115.8 396.444 1115.8 398.641C1117.57 398.641 1119.33 398.641 1121.1 398.641C1128.05 398.641 1131.15 396.497 1131.15 391.681C1131.15 389.589 1130.54 387.83 1129.49 386.916Z" fill="#09142E"/>
<path fill-rule="evenodd" clip-rule="evenodd" d="M1237.75 417.564C1239.75 418.777 1238.32 419.735 1234.52 419.735C1231.39 419.735 1230.27 419.358 1229.78 418.136C1229.42 417.248 1227.29 413.698 1225.06 410.244C1221.21 404.284 1220.83 403.959 1217.61 403.933C1216.48 403.933 1215.36 403.924 1214.23 403.915C1214.23 406.402 1214.23 408.898 1214.23 411.386C1214.23 413.873 1214.23 416.369 1214.23 418.856C1213.17 418.856 1212.12 418.856 1211.07 418.856C1210.01 418.856 1208.96 418.856 1207.9 418.856C1207.9 412.264 1207.9 405.672 1207.9 399.08C1207.9 392.488 1207.9 385.896 1207.9 379.304C1211.03 379.304 1214.15 379.304 1217.28 379.304C1232.27 379.304 1236.35 381.854 1236.35 391.205C1236.35 396.154 1236.06 397.06 1233.7 399.45C1232.25 400.926 1230.35 402.358 1229.46 402.632C1227.93 403.106 1227.93 403.255 1229.49 405.937C1231.95 410.182 1236.78 416.985 1237.75 417.564ZM1228.11 386.398C1226.26 384.992 1224.42 384.578 1219.98 384.578C1218.05 384.578 1216.14 384.578 1214.23 384.578C1214.23 386.924 1214.23 389.262 1214.23 391.61C1214.23 393.957 1214.23 396.295 1214.23 398.641C1216.19 398.641 1218.16 398.641 1220.14 398.641C1225.21 398.641 1226.36 398.334 1228.27 396.488C1231.38 393.455 1231.29 388.85 1228.11 386.398Z" fill="#061732"/>
<path fill-rule="evenodd" clip-rule="evenodd" d="M1272.47 379.304C1276.83 379.304 1281.2 379.304 1285.57 379.304C1285.57 380.183 1285.57 381.063 1285.57 381.942C1285.57 382.821 1285.57 383.699 1285.57 384.578C1282.25 384.578 1278.95 384.578 1275.63 384.578C1272.32 384.578 1269.01 384.578 1265.7 384.578C1265.7 386.626 1265.7 388.683 1265.7 390.731C1265.7 392.779 1265.7 394.836 1265.7 396.883C1268.37 396.883 1271.04 396.883 1273.73 396.883C1276.4 396.883 1279.07 396.883 1281.75 396.883C1281.88 397.762 1282.02 398.641 1282.14 399.521C1282.28 400.4 1282.41 401.277 1282.54 402.157C1279.73 402.157 1276.93 402.157 1274.12 402.157C1271.32 402.157 1268.51 402.157 1265.7 402.157C1265.7 404.944 1265.7 407.72 1265.7 410.507C1265.7 413.292 1265.7 416.071 1265.7 418.856C1264.64 418.856 1263.59 418.856 1262.54 418.856C1261.48 418.856 1260.44 418.856 1259.38 418.856C1259.38 412.264 1259.38 405.672 1259.38 399.08C1259.38 392.488 1259.38 385.896 1259.38 379.304C1263.74 379.304 1268.11 379.304 1272.47 379.304Z" fill="#0A162E"/>
<path fill-rule="evenodd" clip-rule="evenodd" d="M1319.88 379.304C1324.4 379.304 1328.91 379.304 1333.43 379.304C1333.43 380.332 1333.43 381.352 1333.43 382.381C1333.43 383.409 1333.43 384.429 1333.43 385.457C1330.11 385.457 1326.81 385.457 1323.49 385.457C1320.18 385.457 1316.87 385.457 1313.56 385.457C1313.56 387.216 1313.56 388.973 1313.56 390.731C1313.56 392.488 1313.56 394.247 1313.56 396.005C1316.27 396.005 1318.98 396.005 1321.69 396.005C1324.4 396.005 1327.1 396.005 1329.81 396.005C1329.81 397.034 1329.81 398.052 1329.81 399.08C1329.81 400.108 1329.81 401.128 1329.81 402.157C1327.1 402.157 1324.4 402.157 1321.69 402.157C1318.98 402.157 1316.27 402.157 1313.56 402.157C1313.56 403.915 1313.56 405.672 1313.56 407.43C1313.56 409.189 1313.56 410.946 1313.56 412.704C1316.87 412.704 1320.18 412.704 1323.49 412.704C1326.81 412.704 1330.11 412.704 1333.43 412.704C1333.43 413.733 1333.43 414.753 1333.43 415.781C1333.43 416.809 1333.43 417.828 1333.43 418.856C1331.21 418.856 1329 418.856 1326.79 418.856C1323.14 418.856 1317.05 419.112 1313.24 419.428C1310.94 419.612 1308.64 419.805 1306.33 419.99C1306.33 413.214 1306.33 406.428 1306.33 399.652C1306.33 392.867 1306.33 386.091 1306.33 379.304C1310.85 379.304 1315.37 379.304 1319.88 379.304Z" fill="#0A1430"/>
<path fill-rule="evenodd" clip-rule="evenodd" d="M1387.87 383.549C1389.41 384.85 1389.38 385.018 1387.24 387.093C1386.49 387.821 1385.75 388.551 1385 389.281C1383.78 388.455 1382.57 387.637 1381.35 386.819C1378.14 384.648 1377.1 384.411 1372.57 384.771C1367.95 385.15 1367.1 385.545 1363.88 388.92C1362.68 390.159 1361.48 391.407 1360.29 392.656C1360.44 394.994 1360.57 397.332 1360.72 399.67C1361.1 406.262 1361.31 406.858 1364.27 409.742C1366.9 412.299 1368.26 412.88 1372.54 413.31C1377.09 413.768 1378.07 413.557 1381.39 411.421C1382.63 410.621 1383.88 409.821 1385.13 409.021C1385.75 409.619 1386.36 410.226 1386.98 410.832C1388.83 412.625 1388.84 412.661 1387.1 414.54C1384.56 417.31 1378.14 419.735 1373.37 419.735C1367.99 419.735 1362.49 417.099 1358.02 412.389C1354.04 408.187 1352.71 402.729 1353.82 395.266C1354.61 389.94 1355.95 387.541 1360.47 383.277C1364.03 379.92 1364.47 379.762 1370.98 379.446C1378.05 379.093 1384.44 380.65 1387.87 383.549Z" fill="#07152F"/>
<path fill-rule="evenodd" clip-rule="evenodd" d="M1421.47 379.304C1426.44 379.304 1431.41 379.304 1436.37 379.304C1436.37 380.183 1436.37 381.063 1436.37 381.942C1436.37 382.821 1436.37 383.699 1436.37 384.578C1434.57 384.578 1432.76 384.578 1430.95 384.578C1429.15 384.578 1427.34 384.578 1425.54 384.578C1425.54 390.291 1425.54 396.005 1425.54 401.718C1425.54 407.43 1425.54 413.143 1425.54 418.856C1424.48 418.856 1423.43 418.856 1422.38 418.856C1421.32 418.856 1420.27 418.856 1419.21 418.856C1419.21 413.143 1419.21 407.43 1419.21 401.718C1419.21 396.005 1419.21 390.291 1419.21 384.578C1417.11 384.578 1415 384.578 1412.89 384.578C1410.79 384.578 1408.68 384.578 1406.57 384.578C1406.57 383.699 1406.57 382.821 1406.57 381.942C1406.57 381.063 1406.57 380.183 1406.57 379.304C1411.54 379.304 1416.51 379.304 1421.47 379.304Z" fill="#091532"/>
<path fill-rule="evenodd" clip-rule="evenodd" d="M1473.85 413.584C1477.01 413.584 1480.17 413.584 1483.33 413.584C1483.33 414.612 1483.33 415.63 1483.33 416.659C1483.33 417.687 1483.33 418.707 1483.33 419.735C1478.97 419.735 1474.6 419.735 1470.24 419.735C1465.87 419.735 1461.5 419.735 1457.14 419.735C1457.14 412.994 1457.14 406.262 1457.14 399.521C1457.14 392.779 1457.14 386.047 1457.14 379.304C1458.34 379.304 1459.55 379.304 1460.75 379.304C1461.96 379.304 1463.16 379.304 1464.37 379.304C1464.37 385.018 1464.37 390.731 1464.37 396.444C1464.37 402.157 1464.37 407.869 1464.37 413.584C1467.53 413.584 1470.69 413.584 1473.85 413.584Z" fill="#0D152E"/>
<path fill-rule="evenodd" clip-rule="evenodd" d="M1604.09 385.369C1605.45 387.339 1606.14 389.668 1606.14 392.198C1606.14 395.591 1605.65 396.523 1602.11 399.986C1600.76 401.295 1599.4 402.606 1598.06 403.915C1595.65 403.915 1593.23 403.915 1590.82 403.915C1588.4 403.915 1585.99 403.915 1583.57 403.915C1583.57 406.402 1583.57 408.898 1583.57 411.386C1583.57 413.873 1583.57 416.369 1583.57 418.856C1582.51 418.856 1581.46 418.856 1580.41 418.856C1579.35 418.856 1578.3 418.856 1577.25 418.856C1577.25 412.264 1577.25 405.672 1577.25 399.08C1577.25 392.488 1577.25 385.896 1577.25 379.304C1580.33 379.304 1583.41 379.304 1586.5 379.304C1597.16 379.304 1600.8 380.562 1604.09 385.369ZM1596.91 386.828C1595.66 385.966 1592.95 385.457 1589.69 385.457C1587.95 385.457 1586.21 385.457 1584.47 385.457C1584.47 387.505 1584.47 389.562 1584.47 391.61C1584.47 393.657 1584.47 395.714 1584.47 397.762C1586.37 397.762 1588.29 397.762 1590.19 397.762C1596.94 397.762 1598.92 396.312 1598.92 391.372C1598.92 389.087 1598.36 387.812 1596.91 386.828Z" fill="#0B172F"/>
<path fill-rule="evenodd" clip-rule="evenodd" d="M1654.13 414.435C1654.92 415.764 1655.72 417.09 1656.51 418.417C1655.4 418.505 1654.28 418.593 1653.17 418.68C1649.9 418.935 1649.73 418.794 1644.89 411.65C1640.58 405.286 1639.57 404.319 1637.04 404.082C1636.08 403.985 1635.1 403.898 1634.14 403.801C1634.14 406.455 1634.14 409.119 1634.14 411.772C1634.14 414.426 1634.14 417.082 1634.14 419.735C1632.93 419.735 1631.72 419.735 1630.52 419.735C1629.32 419.735 1628.11 419.735 1626.91 419.735C1626.91 412.994 1626.91 406.262 1626.91 399.521C1626.91 392.779 1626.91 386.047 1626.91 379.304C1629.93 379.304 1632.95 379.304 1635.97 379.304C1646.13 379.304 1649.44 380.28 1653.45 384.429C1655.91 386.968 1656.03 387.47 1655.56 392.541C1655.16 396.865 1654.55 398.457 1652.56 400.496C1651.18 401.893 1649.31 403.036 1648.41 403.036C1646.22 403.036 1646.34 403.634 1649.26 407.316C1650.63 409.038 1652.82 412.246 1654.13 414.435ZM1647.4 387.365C1645.71 385.835 1644.21 385.457 1639.72 385.457C1637.86 385.457 1636 385.457 1634.14 385.457C1634.14 387.655 1634.14 389.852 1634.14 392.049C1634.14 394.247 1634.14 396.444 1634.14 398.641C1635.77 398.641 1637.4 398.641 1639.03 398.641C1642.99 398.641 1644.47 398.202 1646.71 396.365C1650.12 393.578 1650.38 390.098 1647.4 387.365Z" fill="#07162E"/>
<path fill-rule="evenodd" clip-rule="evenodd" d="M1691.48 379.304C1695.84 379.304 1700.21 379.304 1704.57 379.304C1704.57 380.332 1704.57 381.352 1704.57 382.381C1704.57 383.409 1704.57 384.429 1704.57 385.457C1701.26 385.457 1697.95 385.457 1694.64 385.457C1691.33 385.457 1688.02 385.457 1684.71 385.457C1684.71 387.216 1684.71 388.973 1684.71 390.731C1684.71 392.488 1684.71 394.247 1684.71 396.005C1687.57 396.005 1690.42 396.005 1693.28 396.005C1696.15 396.005 1699 396.005 1701.86 396.005C1701.86 397.034 1701.86 398.052 1701.86 399.08C1701.86 400.108 1701.86 401.128 1701.86 402.157C1699 402.157 1696.15 402.157 1693.28 402.157C1690.42 402.157 1687.57 402.157 1684.71 402.157C1684.71 404.064 1684.71 405.963 1684.71 407.869C1684.71 409.777 1684.71 411.676 1684.71 413.584C1688.02 413.584 1691.33 413.584 1694.64 413.584C1697.95 413.584 1701.26 413.584 1704.57 413.584C1704.57 414.461 1704.57 415.341 1704.57 416.22C1704.57 417.099 1704.57 417.978 1704.57 418.856C1700.21 418.856 1695.84 418.856 1691.48 418.856C1687.12 418.856 1682.75 418.856 1678.38 418.856C1678.38 412.264 1678.38 405.672 1678.38 399.08C1678.38 392.488 1678.38 385.896 1678.38 379.304C1682.75 379.304 1687.12 379.304 1691.48 379.304Z" fill="#0C162B"/>
<path fill-rule="evenodd" clip-rule="evenodd" d="M1751.76 401.137C1754.93 403.994 1755.21 409.786 1752.36 413.689C1746.82 421.257 1731.61 421.687 1724.89 414.461C1723.14 412.582 1723.14 412.564 1725.37 410.902C1728.25 408.74 1728.63 408.766 1731.83 411.386C1737.23 415.807 1747.92 413.459 1747.92 407.852C1747.92 405.163 1745.62 403.475 1739.19 401.437C1728.32 397.981 1725.34 395.573 1725.34 390.256C1725.34 383.585 1730.73 379.287 1739.07 379.322C1743.85 379.339 1750.68 381.661 1751.98 383.699C1752.37 384.306 1751.84 385.545 1750.74 386.617C1748.89 388.411 1748.73 388.42 1746.2 386.968C1743.17 385.22 1735.27 384.931 1733.65 386.512C1731.91 388.209 1732.39 391.46 1734.6 392.841C1735.72 393.543 1739.47 395.196 1742.95 396.505C1746.43 397.823 1750.39 399.907 1751.76 401.137Z" fill="#0A1227"/>
<path fill-rule="evenodd" clip-rule="evenodd" d="M1800.59 379.894C1800.93 380.21 1801.2 381.6 1801.2 382.97C1801.2 383.797 1801.2 384.631 1801.2 385.457C1798.04 385.457 1794.88 385.457 1791.73 385.457C1781.07 385.457 1780.87 385.598 1781.49 393.016C1781.59 394.159 1781.68 395.301 1781.78 396.444C1784.56 396.532 1787.35 396.611 1790.13 396.698C1798.3 396.944 1798.49 396.998 1798.49 399.08C1798.49 401.163 1798.3 401.216 1790.13 401.463C1787.35 401.551 1784.56 401.63 1781.78 401.718C1781.69 403.696 1781.6 405.672 1781.51 407.65C1781.43 409.628 1781.34 411.606 1781.25 413.584C1784.57 413.584 1787.89 413.584 1791.22 413.584C1794.55 413.584 1797.87 413.584 1801.2 413.584C1801.2 414.461 1801.2 415.341 1801.2 416.22C1801.2 417.099 1801.2 417.978 1801.2 418.856C1796.84 418.856 1792.46 418.856 1788.1 418.856C1783.74 418.856 1779.37 418.856 1775.01 418.856C1775.01 412.264 1775.01 405.672 1775.01 399.08C1775.01 392.488 1775.01 385.896 1775.01 379.304C1779.17 379.304 1783.33 379.304 1787.5 379.304C1794.37 379.304 1800.27 379.569 1800.59 379.894Z" fill="#0C152C"/>
<path fill-rule="evenodd" clip-rule="evenodd" d="M1889.69 379.304C1894.81 379.304 1899.92 379.304 1905.05 379.304C1905.05 380.166 1905.05 381.036 1905.05 381.898C1905.05 384.473 1904.99 384.499 1899.4 384.754C1897.52 384.841 1895.63 384.931 1893.76 385.019C1893.68 390.661 1893.6 396.295 1893.51 401.937C1893.43 407.58 1893.35 413.214 1893.27 418.856C1892.22 418.856 1891.17 418.856 1890.13 418.856C1889.08 418.856 1888.03 418.856 1886.99 418.856C1886.99 413.143 1886.99 407.43 1886.99 401.718C1886.99 396.005 1886.99 390.291 1886.99 384.578C1884.88 384.578 1882.77 384.578 1880.66 384.578C1878.56 384.578 1876.45 384.578 1874.34 384.578C1874.34 383.699 1874.34 382.821 1874.34 381.942C1874.34 381.063 1874.34 380.183 1874.34 379.304C1879.46 379.304 1884.57 379.304 1889.69 379.304Z" fill="#10172D"/>
<path fill-rule="evenodd" clip-rule="evenodd" d="M1938.01 379.304C1942.37 379.304 1946.74 379.304 1951.1 379.304C1951.1 380.332 1951.1 381.352 1951.1 382.381C1951.1 383.409 1951.1 384.429 1951.1 385.457C1947.79 385.457 1944.48 385.457 1941.17 385.457C1937.85 385.457 1934.55 385.457 1931.23 385.457C1931.23 387.216 1931.23 388.973 1931.23 390.731C1931.23 392.488 1931.23 394.247 1931.23 396.005C1934.1 396.005 1936.95 396.005 1939.81 396.005C1942.68 396.005 1945.53 396.005 1948.39 396.005C1948.39 396.883 1948.39 397.762 1948.39 398.641C1948.39 399.52 1948.39 400.4 1948.39 401.277C1945.55 401.277 1942.71 401.277 1939.87 401.277C1935.18 401.277 1931.17 401.577 1930.96 401.937C1930.75 402.297 1930.77 405.067 1931.02 408.09C1931.16 409.917 1931.31 411.755 1931.45 413.584C1934.58 413.584 1937.7 413.584 1940.82 413.584C1943.95 413.584 1947.07 413.584 1950.2 413.584C1950.2 414.461 1950.2 415.341 1950.2 416.22C1950.2 417.099 1950.2 417.978 1950.2 418.856C1945.98 418.856 1941.77 418.856 1937.55 418.856C1933.34 418.856 1929.13 418.856 1924.91 418.856C1924.91 412.264 1924.91 405.672 1924.91 399.08C1924.91 392.488 1924.91 385.896 1924.91 379.304C1929.27 379.304 1933.64 379.304 1938.01 379.304Z" fill="#0E1328"/>
<path fill-rule="evenodd" clip-rule="evenodd" d="M2004.4 390.177C2006.3 394.343 2006.66 401.411 2005.16 405.76C2003.93 409.382 1997.9 415.674 1993.92 417.512C1991.88 418.452 1988.16 418.856 1981.44 418.856C1978.25 418.856 1975.06 418.856 1971.87 418.856C1971.87 412.264 1971.87 405.672 1971.87 399.08C1971.87 392.488 1971.87 385.896 1971.87 379.304C1974.84 379.304 1977.82 379.304 1980.79 379.304C1993.52 379.304 2001.01 382.76 2004.4 390.177ZM1996.64 390.45C1993.83 386.424 1991.46 385.457 1984.45 385.457C1982.67 385.457 1980.88 385.457 1979.09 385.457C1979.09 389.966 1979.09 394.475 1979.09 398.975C1979.09 412.255 1979.13 412.511 1981.13 413.029C1986.84 414.523 1994.26 411.852 1997.14 407.264C1999.91 402.834 1999.66 394.792 1996.64 390.45Z" fill="#0A162E"/>
<path fill-rule="evenodd" clip-rule="evenodd" d="M1826.26 379.473C1829.52 379.736 1829.98 380.218 1838.95 392.929C1844.07 400.179 1848.64 406.244 1849.11 406.402C1849.62 406.578 1849.96 401.19 1849.96 392.999C1849.96 388.437 1849.96 383.867 1849.96 379.304C1851.02 379.304 1852.06 379.304 1853.12 379.304C1854.18 379.304 1855.23 379.304 1856.28 379.304C1856.28 385.896 1856.28 392.488 1856.28 399.08C1856.28 405.672 1856.28 412.264 1856.28 418.856C1855.08 418.856 1853.88 418.856 1852.68 418.856C1851.48 418.856 1850.28 418.856 1849.07 418.856C1845.76 413.97 1842.45 409.093 1839.13 404.205C1835.82 399.327 1832.5 394.44 1829.19 389.562C1829.19 394.44 1829.19 399.327 1829.19 404.205C1829.19 409.093 1829.19 413.97 1829.19 418.856C1828.13 418.856 1827.09 418.856 1826.03 418.856C1824.97 418.856 1823.93 418.856 1822.87 418.856C1822.87 412.247 1822.87 405.637 1822.87 399.027C1822.87 392.418 1822.87 385.808 1822.87 379.199C1824 379.286 1825.13 379.385 1826.26 379.473Z" fill="#131A2F"/>
<path fill-rule="evenodd" clip-rule="evenodd" d="M1172.23 379.304C1176.6 379.304 1180.97 379.304 1185.33 379.304C1185.33 380.183 1185.33 381.063 1185.33 381.942C1185.33 382.821 1185.33 383.699 1185.33 384.578C1182.01 384.578 1178.71 384.578 1175.39 384.578C1172.08 384.578 1168.77 384.578 1165.46 384.578C1165.46 386.486 1165.46 388.385 1165.46 390.291C1165.46 392.198 1165.46 394.097 1165.46 396.005C1168.32 396.005 1171.18 396.005 1174.04 396.005C1176.9 396.005 1179.76 396.005 1182.62 396.005C1182.62 397.034 1182.62 398.052 1182.62 399.08C1182.62 400.108 1182.62 401.128 1182.62 402.157C1179.76 402.157 1176.9 402.157 1174.04 402.157C1171.18 402.157 1168.32 402.157 1165.46 402.157C1165.46 403.871 1165.46 405.593 1165.46 407.308C1165.46 409.021 1165.46 410.744 1165.46 412.459C1167.04 412.643 1168.62 412.827 1170.2 413.012C1172.81 413.319 1177.28 413.575 1180.14 413.575C1185.3 413.584 1185.33 413.601 1185.33 416.22C1185.33 417.099 1185.33 417.978 1185.33 418.856C1180.97 418.856 1176.6 418.856 1172.23 418.856C1167.87 418.856 1163.5 418.856 1159.14 418.856C1159.14 412.264 1159.14 405.672 1159.14 399.08C1159.14 392.488 1159.14 385.896 1159.14 379.304C1163.5 379.304 1167.87 379.304 1172.23 379.304Z" fill="#131931"/>
<path fill-rule="evenodd" clip-rule="evenodd" d="M1495.6 379.216C1498.41 378.909 1502.91 379.595 1503.83 380.475C1504.42 381.036 1506.59 384.473 1508.64 388.093C1510.69 391.716 1512.5 394.685 1512.65 394.685C1512.92 394.685 1515.63 390.573 1520.35 382.953C1522.43 379.613 1522.92 379.313 1526.45 379.313C1527.73 379.313 1529.01 379.304 1530.3 379.304C1527.88 383.128 1525.47 386.951 1523.06 390.784C1520.66 394.606 1518.25 398.431 1515.84 402.253C1515.84 405.023 1515.84 407.79 1515.84 410.56C1515.84 413.319 1515.84 416.088 1515.84 418.856C1514.78 418.856 1513.74 418.856 1512.68 418.856C1511.62 418.856 1510.57 418.856 1509.52 418.856C1509.51 416.15 1509.51 413.433 1509.5 410.726C1509.49 403.439 1509.22 402.139 1506.94 398.202C1500.14 386.494 1497.52 382.258 1496.21 380.843C1495.43 379.999 1495.16 379.26 1495.6 379.216Z" fill="#141C34"/>
<path fill-rule="evenodd" clip-rule="evenodd" d="M478.604 380.331C477.706 380.921 476.808 381.509 475.91 382.107C474.43 383.083 473.252 383.908 473.292 383.954C473.334 383.989 472.01 385.386 470.353 387.046C466.745 390.669 466.033 389.684 468.671 384.726C469.139 383.829 469.606 382.934 470.075 382.046C471.366 379.568 471.761 379.391 478.604 380.331Z" fill="#0A1022"/>
<path fill-rule="evenodd" clip-rule="evenodd" d="M534.359 390.958C537.94 397.822 536.272 408.326 530.779 413.484C521.677 422.045 508.285 421.852 500.105 413.037C494.593 407.096 493.14 397.445 496.813 391.151C502.08 382.125 508.344 378.803 518.442 379.699C523.136 380.112 524.524 380.675 528.129 383.627C530.442 385.526 533.246 388.831 534.359 390.958ZM528.554 393.868C528.349 392.848 526.776 390.695 525.06 389.068C522.322 386.493 521.235 386.079 516.255 385.772C511.114 385.456 510.293 385.649 507.65 387.82C503.504 391.213 502.083 394.421 502.083 400.388C502.083 406.26 503.575 408.8 508.927 412.017C511.501 413.563 513.086 413.863 517.044 413.546C526.459 412.782 530.859 405.258 528.554 393.868Z" fill="#0A1530"/>
<path fill-rule="evenodd" clip-rule="evenodd" d="M587.044 379.452C588.223 379.452 589.403 379.452 590.58 379.452C590.58 383.954 590.58 388.445 590.58 392.945C590.58 400.679 590.142 407.71 589.554 409.425C587.381 415.752 581.128 419.883 573.719 419.883C568.911 419.883 565.893 418.46 561.684 414.197C560.629 413.133 559.576 412.07 558.523 410.997C558.429 405.741 558.334 400.486 558.24 395.23C558.146 389.965 558.053 384.708 557.957 379.452C559.03 379.452 560.103 379.452 561.176 379.452C562.249 379.452 563.32 379.452 564.393 379.452C564.393 384.138 564.393 388.822 564.393 393.498C564.393 398.182 564.393 402.868 564.393 407.552C565.229 408.467 566.068 409.372 566.904 410.285C570.498 414.206 576.512 414.839 580.257 411.71C581.139 410.971 582.022 410.232 582.906 409.495C583.005 404.484 583.106 399.475 583.207 394.474C583.308 389.465 583.407 384.463 583.51 379.452C584.687 379.452 585.867 379.452 587.044 379.452Z" fill="#091730"/>
<path fill-rule="evenodd" clip-rule="evenodd" d="M724.028 384.129C724.713 384.735 725.4 385.351 726.085 385.956C725.369 386.651 724.655 387.346 723.941 388.039C723.225 388.743 722.511 389.438 721.797 390.132C720.654 389.375 719.513 388.62 718.371 387.864C715.648 386.07 713.852 385.605 709.62 385.605C704.669 385.605 704.023 385.851 700.489 389.059C699.221 390.21 697.954 391.362 696.686 392.513C696.686 394.71 696.686 396.908 696.686 399.105C696.686 405.232 696.879 405.899 699.396 408.475C705.253 414.478 711.324 415.348 718.095 411.164C719.48 410.311 720.865 409.46 722.248 408.607C722.924 409.302 723.599 410.004 724.275 410.699C726.682 413.195 725.876 414.653 720.677 417.194C715.839 419.558 711.139 420.103 705.431 418.951C701.232 418.109 699.537 417.177 696.104 413.846C691.136 409.019 689.491 404.274 690.184 396.75C690.772 390.386 693.832 385.614 699.616 382.046C703.21 379.822 704.701 379.452 710.001 379.452C716.433 379.452 720.181 380.702 724.028 384.129Z" fill="#0A132F"/>
<path fill-rule="evenodd" clip-rule="evenodd" d="M869.166 379.452C873.53 379.452 877.895 379.452 882.259 379.452C882.259 380.48 882.259 381.5 882.259 382.529C882.259 383.557 882.259 384.577 882.259 385.605C878.949 385.605 875.638 385.605 872.327 385.605C869.015 385.605 865.704 385.605 862.394 385.605C862.394 387.364 862.394 389.121 862.394 390.879C862.394 392.636 862.394 394.395 862.394 396.153C865.253 396.153 868.111 396.153 870.971 396.153C873.831 396.153 876.691 396.153 879.551 396.153C879.551 397.182 879.551 398.199 879.551 399.228C879.551 400.256 879.551 401.276 879.551 402.305C876.691 402.305 873.831 402.305 870.971 402.305C868.111 402.305 865.253 402.305 862.394 402.305C862.394 404.063 862.394 405.82 862.394 407.578C862.394 409.337 862.394 411.094 862.394 412.852C865.704 412.852 869.015 412.852 872.327 412.852C875.638 412.852 878.949 412.852 882.259 412.852C882.259 413.881 882.259 414.901 882.259 415.929C882.259 416.957 882.259 417.976 882.259 419.004C877.895 419.004 873.53 419.004 869.166 419.004C864.801 419.004 860.435 419.004 856.072 419.004C856.072 412.412 856.072 405.82 856.072 399.228C856.072 392.636 856.072 386.044 856.072 379.452C860.435 379.452 864.801 379.452 869.166 379.452Z" fill="#06142F"/>
<path fill-rule="evenodd" clip-rule="evenodd" d="M918.38 379.452C922.895 379.452 927.411 379.452 931.926 379.452C931.926 380.48 931.926 381.5 931.926 382.529C931.926 383.557 931.926 384.577 931.926 385.605C928.465 385.605 925.003 385.605 921.541 385.605C918.079 385.605 914.617 385.605 911.157 385.605C911.157 387.364 911.157 389.121 911.157 390.879C911.157 392.636 911.157 394.395 911.157 396.153C914.016 396.153 916.875 396.153 919.734 396.153C922.594 396.153 925.454 396.153 928.314 396.153C928.314 397.031 928.314 397.91 928.314 398.789C928.314 399.668 928.314 400.548 928.314 401.425C925.454 401.425 922.594 401.425 919.734 401.425C916.875 401.425 914.016 401.425 911.157 401.425C911.157 403.473 911.157 405.53 911.157 407.578C911.157 409.627 911.157 411.684 911.157 413.732C914.467 413.732 917.778 413.732 921.09 413.732C924.401 413.732 927.712 413.732 931.022 413.732C931.022 414.609 931.022 415.488 931.022 416.368C931.022 417.247 931.022 418.126 931.022 419.004C926.659 419.004 922.293 419.004 917.929 419.004C913.564 419.004 909.2 419.004 904.835 419.004C904.835 412.412 904.835 405.82 904.835 399.228C904.835 392.636 904.835 386.044 904.835 379.452C909.35 379.452 913.865 379.452 918.38 379.452Z" fill="#08112D"/>
<path fill-rule="evenodd" clip-rule="evenodd" d="M1012.12 412.149C1012.71 412.73 1013.2 414.232 1013.2 415.489C1013.2 418.39 1011.66 419.883 1008.68 419.883C1005.89 419.883 1004.17 418.425 1004.17 416.043C1004.17 412.201 1009.49 409.592 1012.12 412.149Z" fill="#0A1530"/>
<path fill-rule="evenodd" clip-rule="evenodd" d="M468.67 384.726C466.032 389.684 466.744 390.669 470.353 387.046C472.01 385.386 473.333 383.989 473.292 383.954C473.252 383.908 474.43 383.083 475.91 382.107C476.808 381.509 477.706 380.921 478.604 380.331C474.096 387.513 469.59 394.684 465.082 401.866C465.078 404.686 465.075 407.5 465.069 410.32C465.066 413.142 465.062 415.964 465.059 418.776C463.856 418.969 462.651 419.155 461.447 419.339C460.244 419.532 459.038 419.717 457.835 419.901C457.835 417.063 457.835 414.223 457.835 411.375C457.835 402.938 457.793 402.78 454.059 396.645C451.98 393.234 449.798 389.842 449.209 389.121C448.619 388.401 447.075 385.921 445.779 383.627C444.993 382.239 444.208 380.842 443.422 379.452C444.742 379.452 446.062 379.452 447.382 379.452C448.702 379.452 450.022 379.452 451.344 379.452C452.943 382.221 454.541 384.98 456.14 387.75C459.258 393.147 461.27 395.783 461.887 395.283C462.41 394.86 463.744 392.91 464.851 390.941C465.522 389.745 466.195 388.559 466.865 387.364C467.468 386.484 468.068 385.605 468.67 384.726Z" fill="url(#paint14_radial_4_20)"/>
<path fill-rule="evenodd" clip-rule="evenodd" d="M623.086 379.452C634.177 379.452 636.65 380.2 640.591 384.761C644.883 389.728 642.842 399.017 636.817 401.945C635.707 402.48 634.576 403.14 634.305 403.403C634.035 403.667 635.862 407.184 638.366 411.225C639.885 413.67 641.403 416.122 642.921 418.565C641.765 418.653 640.611 418.741 639.457 418.828C636.038 419.092 635.941 419.013 632.151 412.8C627.448 405.092 625.556 403.184 622.639 403.184C620.398 403.184 620.381 403.245 620.381 411.094C620.381 413.732 620.381 416.368 620.381 419.004C619.363 419.004 618.344 419.004 617.325 419.004C616.308 419.004 615.289 419.004 614.27 419.004C614.11 417.177 613.949 415.339 613.789 413.511C613.526 410.488 613.253 401.594 613.183 393.735C613.142 388.971 613.1 384.217 613.059 379.452C616.4 379.452 619.743 379.452 623.086 379.452ZM634.08 387.064C632.89 386.009 630.741 385.605 626.364 385.605C624.345 385.605 622.323 385.605 620.302 385.605C620.39 387.732 620.479 389.851 620.567 391.978C620.655 394.105 620.744 396.223 620.832 398.35C622.888 398.35 624.945 398.35 627.001 398.35C632.064 398.35 633.398 398.042 634.452 396.645C636.289 394.201 636.082 388.822 634.08 387.064Z" fill="url(#paint15_radial_4_20)"/>
<path fill-rule="evenodd" clip-rule="evenodd" d="M745.917 414.337C746.337 412.975 747.059 411.392 747.522 410.822C747.984 410.241 748.633 408.677 748.961 407.333C749.291 405.997 750.519 402.833 751.689 400.3C752.859 397.778 754.116 394.728 754.482 393.515C754.848 392.303 755.921 389.64 756.868 387.583C757.813 385.535 758.983 382.837 759.468 381.597C760.22 379.673 760.817 379.382 763.601 379.621C766.773 379.884 766.931 380.077 769.986 387.364C771.71 391.476 774.663 398.789 776.55 403.623C778.436 408.458 780.648 413.898 781.465 415.708C781.961 416.807 782.455 417.905 782.951 419.004C781.763 419.004 780.574 419.004 779.388 419.004C776.463 419.004 775.722 418.653 775.251 417.028C773.19 409.908 773.708 410.215 763.614 410.215C760.561 410.215 757.506 410.215 754.453 410.215C753.92 411.684 753.384 413.142 752.85 414.609C751.345 418.732 751.054 419.004 748.122 419.004C744.817 419.004 744.612 418.574 745.917 414.337ZM769.384 402.305C768.949 401.585 767.467 398.068 766.093 394.509C765.26 392.355 764.427 390.193 763.594 388.031C763.157 389.024 762.723 390.009 762.286 390.993C761.567 392.618 760.431 395.204 759.762 396.723C759.091 398.245 758.545 400.107 758.545 400.846C758.545 401.594 758.139 402.445 757.641 402.745C755.272 404.168 757.337 404.942 763.511 404.942C770.33 404.942 770.835 404.712 769.384 402.305Z" fill="#131931"/>
<path fill-rule="evenodd" clip-rule="evenodd" d="M814.519 379.603C818.127 379.699 821.735 379.796 825.344 379.892C826.476 381 827.608 382.099 828.743 383.206C831.929 386.309 832.141 386.844 832.141 391.872C832.141 397.083 832.035 397.322 828.232 400.609C826.928 401.734 825.627 402.859 824.325 403.984C825.863 406.418 827.401 408.844 828.941 411.278C830.477 413.705 832.017 416.14 833.555 418.565C832.36 418.653 831.164 418.74 829.967 418.828C827.022 419.048 826.151 418.741 825.116 417.071C817.148 404.291 816.957 404.081 813.403 404.072C812.274 404.072 811.145 404.063 810.016 404.063C810.016 406.55 810.016 409.046 810.016 411.534C810.016 414.021 810.016 416.517 810.016 419.004C808.963 419.004 807.91 419.004 806.857 419.004C805.802 419.004 804.749 419.004 803.696 419.004C803.696 412.386 803.696 405.767 803.696 399.158C803.696 392.539 803.696 385.921 803.696 379.303C807.303 379.399 810.913 379.505 814.519 379.603ZM824.182 387.513C822.509 385.982 820.996 385.605 816.611 385.605C814.784 385.605 812.957 385.605 811.131 385.605C810.99 387.583 810.85 389.561 810.709 391.537C810.474 394.798 810.451 397.769 810.655 398.129C810.86 398.491 813.206 398.789 815.871 398.789C819.764 398.789 821.259 398.342 823.493 396.513C826.901 393.726 827.168 390.246 824.182 387.513Z" fill="url(#paint16_radial_4_20)"/>
<path fill-rule="evenodd" clip-rule="evenodd" d="M963.568 379.452C970.913 379.452 973.32 379.796 976.246 381.246C985.434 385.807 985.958 398.728 977.101 402.296C975.599 402.903 974.369 403.552 974.369 403.738C974.369 403.932 976.401 407.236 978.884 411.094C981.367 414.953 983.4 418.311 983.4 418.556C983.4 418.802 981.829 419.004 979.909 419.004C976.501 419.004 976.308 418.828 971.711 411.534C967.283 404.502 966.821 404.063 963.914 404.063C962.885 404.063 961.853 404.063 960.824 404.063C960.824 406.55 960.824 409.046 960.824 411.534C960.824 414.021 960.824 416.517 960.824 419.004C959.769 419.004 958.716 419.004 957.663 419.004C956.61 419.004 955.557 419.004 954.502 419.004C954.502 412.412 954.502 405.82 954.502 399.228C954.502 392.636 954.502 386.044 954.502 379.452C957.524 379.452 960.546 379.452 963.568 379.452ZM974.795 387.504C972.847 386.009 971.089 385.605 966.57 385.605C964.655 385.605 962.739 385.605 960.824 385.605C960.824 387.803 960.824 390 960.824 392.197C960.824 394.395 960.824 396.592 960.824 398.789C962.746 398.789 964.67 398.789 966.592 398.789C973.46 398.789 975.978 397.243 976.749 392.557C977.195 389.842 976.917 389.121 974.795 387.504Z" fill="#101A33"/>
<defs>
<linearGradient id="paint0_linear_4_20" x1="208.321" y1="225.51" x2="267.621" y2="272.8" gradientUnits="userSpaceOnUse">
<stop stop-color="#111091"/>
<stop offset="0.0454545" stop-color="#12118F"/>
<stop offset="0.0909091" stop-color="#190F92"/>
<stop offset="0.136364" stop-color="#191199"/>
<stop offset="0.227273" stop-color="#2017AD"/>
<stop offset="0.272727" stop-color="#2B1BB7"/>
<stop offset="0.318182" stop-color="#2B1DBE"/>
<stop offset="0.954545" stop-color="#4F2BE5"/>
<stop offset="1" stop-color="#502CE7"/>
</linearGradient>
<radialGradient id="paint1_radial_4_20" cx="0" cy="0" r="1" gradientTransform="matrix(8.3449 30.0717 180.488 -50.0532 432.152 333.331)" gradientUnits="userSpaceOnUse">
<stop stop-color="#623EE5"/>
<stop offset="0.629615" stop-color="#623EE5"/>
<stop offset="0.831643" stop-color="#562FE5"/>
<stop offset="0.932657" stop-color="#4C25E1"/>
<stop offset="1" stop-color="#4B21DC"/>
</radialGradient>
<radialGradient id="paint2_radial_4_20" cx="0" cy="0" r="1" gradientTransform="matrix(0.177527 11.1101 66.6819 -1.06482 312.894 342.043)" gradientUnits="userSpaceOnUse">
<stop stop-color="#522BE4"/>
<stop offset="0.00821977" stop-color="#522BE4"/>
<stop offset="0.368867" stop-color="#5330E5"/>
<stop offset="0.684434" stop-color="#5F3BE5"/>
<stop offset="0.864757" stop-color="#603CE6"/>
<stop offset="0.954919" stop-color="#5F3DEA"/>
<stop offset="1" stop-color="#623CE9"/>
</radialGradient>
<linearGradient id="paint3_linear_4_20" x1="124.152" y1="-225.179" x2="145.938" y2="-232.776" gradientUnits="userSpaceOnUse">
<stop stop-color="#120795"/>
<stop offset="0.0952381" stop-color="#170B95"/>
<stop offset="0.629808" stop-color="#2615AF"/>
<stop offset="0.904762" stop-color="#2E1ABD"/>
<stop offset="1" stop-color="#311BC1"/>
</linearGradient>
<linearGradient id="paint4_linear_4_20" x1="124.152" y1="-225.179" x2="145.938" y2="-232.776" gradientUnits="userSpaceOnUse">
<stop stop-color="#120795"/>
<stop offset="0.0952381" stop-color="#170B95"/>
<stop offset="0.629808" stop-color="#2615AF"/>
<stop offset="0.904762" stop-color="#2E1ABD"/>
<stop offset="1" stop-color="#311BC1"/>
</linearGradient>
<radialGradient id="paint5_radial_4_20" cx="0" cy="0" r="1" gradientUnits="userSpaceOnUse" gradientTransform="translate(51.2764 527.707) scale(476.812 476.66)">
<stop stop-color="#442EE9"/>
<stop offset="0.0717379" stop-color="#442EE9"/>
<stop offset="0.113932" stop-color="#3E31EC"/>
<stop offset="0.409288" stop-color="#2147EE"/>
<stop offset="0.451482" stop-color="#2448EF"/>
<stop offset="0.493675" stop-color="#3940EC"/>
<stop offset="0.578063" stop-color="#3541EC"/>
<stop offset="0.66245" stop-color="#3348ED"/>
<stop offset="0.704644" stop-color="#264EED"/>
<stop offset="0.789031" stop-color="#0655EF"/>
<stop offset="0.915613" stop-color="#005BF0"/>
<stop offset="1" stop-color="#005CF0"/>
</radialGradient>
<linearGradient id="paint6_linear_4_20" x1="124.139" y1="-225.186" x2="145.926" y2="-232.783" gradientUnits="userSpaceOnUse">
<stop stop-color="#120795"/>
<stop offset="0.0952381" stop-color="#170B95"/>
<stop offset="0.904762" stop-color="#2E1ABD"/>
<stop offset="1" stop-color="#311BC1"/>
</linearGradient>
<linearGradient id="paint7_linear_4_20" x1="124.161" y1="-225.157" x2="145.946" y2="-232.754" gradientUnits="userSpaceOnUse">
<stop stop-color="#120795"/>
<stop offset="0.0952381" stop-color="#170B95"/>
<stop offset="0.904762" stop-color="#2E1ABD"/>
<stop offset="1" stop-color="#311BC1"/>
</linearGradient>
<linearGradient id="paint8_linear_4_20" x1="124.153" y1="-225.186" x2="145.938" y2="-232.782" gradientUnits="userSpaceOnUse">
<stop stop-color="#120795"/>
<stop offset="0.0952381" stop-color="#170B95"/>
<stop offset="0.904762" stop-color="#2E1ABD"/>
<stop offset="1" stop-color="#311BC1"/>
</linearGradient>
<radialGradient id="paint9_radial_4_20" cx="0" cy="0" r="1" gradientUnits="userSpaceOnUse" gradientTransform="translate(333.071 195.363) scale(66.5572 66.54)">
<stop stop-color="#321FC6"/>
<stop offset="0.157345" stop-color="#321FC6"/>
<stop offset="0.297788" stop-color="#4023D7"/>
<stop offset="0.344602" stop-color="#4124D8"/>
<stop offset="0.672301" stop-color="#3A24D5"/>
<stop offset="1" stop-color="#4A22E1"/>
</radialGradient>
<radialGradient id="paint10_radial_4_20" cx="0" cy="0" r="1" gradientTransform="matrix(366.97 -301.445 188.187 228.947 42.531 434.942)" gradientUnits="userSpaceOnUse">
<stop stop-color="white"/>
<stop offset="0.475962" stop-color="white"/>
<stop offset="0.557692" stop-color="#522BE4"/>
<stop offset="0.928949" stop-color="#4E38F0"/>
<stop offset="1" stop-color="#120795"/>
</radialGradient>
<linearGradient id="paint11_linear_4_20" x1="271.798" y1="-49.7211" x2="343.795" y2="-41.1558" gradientUnits="userSpaceOnUse">
<stop stop-color="#2837E6"/>
<stop offset="0.136364" stop-color="#2C37EA"/>
<stop offset="0.363636" stop-color="#3A37EC"/>
<stop offset="0.454545" stop-color="#3739ED"/>
<stop offset="0.545455" stop-color="#4234EC"/>
<stop offset="0.636364" stop-color="#4235EB"/>
<stop offset="0.772727" stop-color="#462FEA"/>
<stop offset="0.909091" stop-color="#402EEB"/>
<stop offset="1" stop-color="#4530F0"/>
</linearGradient>
<linearGradient id="paint12_linear_4_20" x1="1167.78" y1="578.739" x2="1040.17" y2="340.515" gradientUnits="userSpaceOnUse">
<stop stop-color="#3A38F5"/>
<stop offset="0.181818" stop-color="#333FF1"/>
<stop offset="0.227273" stop-color="#2C3FF0"/>
<stop offset="0.454545" stop-color="#1F4AF0"/>
<stop offset="0.545455" stop-color="#194DEF"/>
<stop offset="0.590909" stop-color="#1C4DF2"/>
<stop offset="0.636364" stop-color="#1C4DF2"/>
<stop offset="0.818182" stop-color="#1056F3"/>
<stop offset="0.954545" stop-color="#0D56EE"/>
<stop offset="1" stop-color="#0756ED"/>
</linearGradient>
<linearGradient id="paint13_linear_4_20" x1="1562.96" y1="-1493.77" x2="1811.39" y2="-1522.83" gradientUnits="userSpaceOnUse">
<stop stop-color="#144EF5"/>
<stop offset="0.136364" stop-color="#2B46F5"/>
<stop offset="0.227273" stop-color="#3C3AF4"/>
<stop offset="0.272727" stop-color="#4534F2"/>
<stop offset="0.454545" stop-color="#4E2EF1"/>
<stop offset="0.727273" stop-color="#4A34F2"/>
<stop offset="0.863636" stop-color="#4E38F0"/>
<stop offset="0.954545" stop-color="#4A3AF0"/>
<stop offset="1" stop-color="#4E38F0"/>
</linearGradient>
<radialGradient id="paint14_radial_4_20" cx="0" cy="0" r="1" gradientUnits="userSpaceOnUse" gradientTransform="translate(435.732 397.752) scale(45.6277 44.41)">
<stop stop-color="#061B39"/>
<stop offset="0.371308" stop-color="#061B39"/>
<stop offset="0.461122" stop-color="#091A39"/>
<stop offset="0.550935" stop-color="#0A1B38"/>
<stop offset="0.730561" stop-color="#0D1A32"/>
<stop offset="0.820374" stop-color="#0E1930"/>
<stop offset="0.910187" stop-color="#0D172C"/>
<stop offset="1" stop-color="#0D172B"/>
</radialGradient>
<radialGradient id="paint15_radial_4_20" cx="0" cy="0" r="1" gradientUnits="userSpaceOnUse" gradientTransform="translate(735.112 373.415) scale(122.826 119.548)">
<stop stop-color="#071537"/>
<stop offset="0.0519333" stop-color="#071537"/>
<stop offset="0.0931536" stop-color="#081631"/>
<stop offset="0.134374" stop-color="#071530"/>
<stop offset="0.175594" stop-color="#071530"/>
<stop offset="0.258035" stop-color="#09172F"/>
<stop offset="0.299255" stop-color="#051530"/>
<stop offset="0.340475" stop-color="#081129"/>
<stop offset="0.381696" stop-color="#051531"/>
<stop offset="0.422916" stop-color="#051531"/>
<stop offset="0.464136" stop-color="#06122C"/>
<stop offset="0.505356" stop-color="#051531"/>
<stop offset="0.587797" stop-color="#041430"/>
<stop offset="0.670238" stop-color="#051531"/>
<stop offset="0.711458" stop-color="#061633"/>
<stop offset="0.793899" stop-color="#061632"/>
<stop offset="0.835119" stop-color="#041734"/>
<stop offset="0.876339" stop-color="#061632"/>
<stop offset="0.95878" stop-color="#041734"/>
<stop offset="1" stop-color="#051735"/>
</radialGradient>
<radialGradient id="paint16_radial_4_20" cx="0" cy="0" r="1" gradientUnits="userSpaceOnUse" gradientTransform="translate(928.033 391.564) scale(122.826 119.547)">
<stop stop-color="#071530"/>
<stop offset="0.0499384" stop-color="#071530"/>
<stop offset="0.132552" stop-color="#09162B"/>
<stop offset="0.173859" stop-color="#0D182C"/>
<stop offset="0.215167" stop-color="#0A172C"/>
<stop offset="0.256474" stop-color="#081631"/>
<stop offset="0.297781" stop-color="#0E172E"/>
<stop offset="0.339088" stop-color="#071636"/>
<stop offset="0.380395" stop-color="#0A1732"/>
<stop offset="0.421702" stop-color="#0A1732"/>
<stop offset="0.463009" stop-color="#061737"/>
<stop offset="0.545623" stop-color="#061633"/>
<stop offset="0.58693" stop-color="#071839"/>
<stop offset="0.628237" stop-color="#021639"/>
<stop offset="0.669544" stop-color="#051636"/>
<stop offset="0.710851" stop-color="#071839"/>
<stop offset="0.752158" stop-color="#071839"/>
<stop offset="0.793465" stop-color="#021739"/>
<stop offset="0.834772" stop-color="#061738"/>
<stop offset="0.876079" stop-color="#021739"/>
<stop offset="0.917386" stop-color="#031538"/>
<stop offset="0.958693" stop-color="#031538"/>
<stop offset="1" stop-color="#03133A"/>
</radialGradient>
</defs>
</svg>
